<svg width="109" height="109" viewBox="0 0 109 109" fill="none" xmlns="http://www.w3.org/2000/svg">
<circle cx="54.5" cy="54.5" r="53.5" stroke="white" stroke-width="2"/>
<path d="M54 70C54 70.5523 54.4477 71 55 71C55.5523 71 56 70.5523 56 70L54 70ZM55.7071 39.2929C55.3166 38.9024 54.6834 38.9024 54.2929 39.2929L47.9289 45.6569C47.5384 46.0474 47.5384 46.6805 47.9289 47.0711C48.3195 47.4616 48.9526 47.4616 49.3431 47.0711L55 41.4142L60.6569 47.0711C61.0474 47.4616 61.6805 47.4616 62.0711 47.0711C62.4616 46.6805 62.4616 46.0474 62.0711 45.6569L55.7071 39.2929ZM56 70L56 40L54 40L54 70L56 70Z" fill="white"/>
</svg>
