<svg width="714" height="650" viewBox="0 0 714 650" fill="none" xmlns="http://www.w3.org/2000/svg">
<circle opacity="0.3" cx="404.5" cy="340.499" r="309.5" fill="#5DFFE8" fill-opacity="0.34"/>
<circle opacity="0.3" cx="151" cy="459" r="130" fill="#5DFFE8" fill-opacity="0.34"/>
<path opacity="0.6" d="M233 482.778L200.83 477.753L204.571 469.548L181.145 456.005L168.759 457.936L165.428 456.005L151.299 458.205L122.105 475.198L129.999 479.755L114.395 479.684L103.455 486.058L125.449 512.348L90.6715 502.638H74.9407L64 509.012L137.552 529.185H153.283L165.145 522.271L130.339 479.953L176.383 506.585H192.114L202.885 500.31L182.42 488.471L185.737 486.54L205.421 489.678H221.152L233 482.778Z" fill="#132734"/>
<path d="M189.676 458.447L189.634 473.494L174.441 464.707L174.484 449.66L183 444L194 452L189.676 458.447Z" fill="#69767E"/>
<path d="M174.484 449.66L174.441 464.707L157.875 474.346L157.917 459.299L174.484 449.66Z" fill="#839098"/>
<path d="M204.571 454.543L204.529 469.591L200.787 477.796L200.83 462.748L204.571 454.543Z" fill="#94A1A9"/>
<path d="M189.123 469.576L189.081 484.61L182.377 488.514L182.42 473.48L189.123 469.576Z" fill="#839098"/>
<path d="M233 467.774L232.957 482.821L221.095 489.735L221.138 474.687L233 467.774Z" fill="#839098"/>
<path d="M221.138 474.687L221.095 489.734L189.081 484.61L189.124 469.576L221.138 474.687Z" fill="#69767E"/>
<path d="M192.1 491.58L192.057 506.628L137.779 475.241L137.821 460.193L192.1 491.58Z" fill="#69767E"/>
<path d="M202.884 485.305L202.842 500.353L192.057 506.628L192.1 491.58L202.884 485.305Z" fill="#839098"/>
<path d="M145.942 503.078L145.899 518.112L119.128 486.1L119.171 471.053L145.942 503.078Z" fill="#69767E"/>
<path d="M153.269 514.194L153.226 529.241L79.688 509.055L79.7305 494.021L153.269 514.194Z" fill="#69767E"/>
<path d="M165.131 507.281L165.088 522.328L153.227 529.241L153.269 514.194L165.131 507.281Z" fill="#839098"/>
<path d="M221.138 474.687L189.124 469.576L182.421 473.48L202.885 485.305L192.1 491.58L137.822 460.193C137.822 460.193 151 452.16 164.5 444.5C169.357 441.744 177.932 439.574 183.5 440C194.036 440.806 204.571 446.5 204.571 454.543C204.571 458.065 200.83 462.748 200.83 462.748L233 467.774L221.138 474.687ZM173.11 468.086L189.677 458.447C189.677 458.447 194 453 187.5 449.66C185.28 448.279 179.819 446.5 174.484 449.66C168 453.5 157.917 459.299 157.917 459.299L173.11 468.086ZM119.171 471.053L145.942 503.079L90.6717 487.648L79.731 494.022L153.269 514.194L165.131 507.281L130.112 464.679L119.171 471.053Z" fill="url(#paint0_linear_338_38)"/>
<circle opacity="0.3" cx="151" cy="459" r="149" stroke="#5DFFE8" stroke-opacity="0.34" stroke-width="4"/>
<path d="M288.145 153.86C288.145 135.684 288.182 117.5 288.122 99.3238C288.107 93.8694 290.353 89.6563 294.589 86.4138C303.062 79.9136 313.141 77.1827 323.198 74.6248C341.052 70.0807 359.266 67.5378 377.563 65.6419C412.061 62.0684 446.687 60.5787 481.342 61.3085C522.623 62.1737 563.836 64.3404 604.38 73.0825C615.158 75.4072 625.779 78.3036 635.528 83.7204C642.731 87.7228 646.276 93.4481 645.983 102.092C645.51 115.995 645.856 189.491 645.856 203.409C645.856 205.538 645.916 207.674 645.811 209.803C645.6 214.107 643.054 216.89 639.524 216.815C636.242 216.74 633.74 213.911 633.703 209.773C633.605 199.241 633.658 129.139 633.658 118.614C633.658 112.775 633.658 112.79 628.295 114.92C613.769 120.697 598.506 123.443 583.191 126.001C582.703 126.084 582.192 126.084 581.697 126.099C577.566 126.25 574.997 124.482 574.479 121.134C573.983 117.929 576.169 115.205 580.097 114.431C586.722 113.114 593.399 112.061 600.001 110.654C609.187 108.705 618.313 106.448 626.86 102.423C629.286 101.28 632.892 100.347 632.952 97.4956C633.012 94.7872 629.422 93.9822 627.116 92.9064C613.934 86.7373 599.761 84.1793 585.58 81.7042C580.78 80.8616 575.936 80.2296 571.121 79.4622C568.237 79.0033 566.72 79.9588 566.352 83.0885C564.97 94.8624 561.53 106.102 557.361 117.162C555.018 123.383 557.849 129.455 558.465 135.586C558.518 136.135 559.464 136.647 560.058 137.083C564.977 140.687 567.268 145.509 567.178 151.626C567.065 159.525 567.185 167.425 567.14 175.324C567.043 190.363 558.811 202.453 544.9 207.93C543.06 208.652 541.596 209.284 541.333 211.639C540.168 222.119 534.453 230.274 527.663 237.85C527.159 238.407 526.679 238.994 526.115 239.49C518.372 246.209 515.653 254.357 517.478 264.656C519.13 274 519.611 283.562 520.377 293.041C520.58 295.547 521.541 296.758 523.764 297.743C539.673 304.785 555.566 311.872 571.362 319.147C575.064 320.855 578.587 320.486 582.335 319.9C595.585 317.823 608.684 315.152 621.355 310.668C624.907 309.412 628.317 307.862 631.465 305.771C633.763 304.244 633.763 302.746 631.404 301.212C625.23 297.179 618.283 295.027 611.283 293.117C592.4 287.948 573.037 285.541 553.636 283.351C552.892 283.269 552.126 283.254 551.405 283.088C547.882 282.275 545.862 279.537 546.327 276.287C546.778 273.135 549.677 270.78 553.132 271.201C579.451 274.399 605.912 276.941 630.766 287.233C634.672 288.851 633.605 285.781 633.613 284.156C633.673 262.595 633.643 241.025 633.65 219.463C633.65 214.573 633.553 209.683 633.733 204.8C633.868 201.107 636.302 198.654 639.471 198.519C642.814 198.383 645.36 200.828 645.78 204.65C645.886 205.643 645.848 206.651 645.848 207.659C645.856 211.925 645.856 216.183 645.856 220.449C645.863 247.533 645.848 274.609 645.893 301.693C645.901 307.945 642.926 312.429 637.962 315.769C630.796 320.599 622.699 323.255 614.467 325.474C595.697 330.537 576.507 333.216 557.218 335.315C519.34 339.438 481.335 340.498 443.299 339.513C405.902 338.542 368.587 336.097 331.836 328.446C321.043 326.197 310.407 323.375 300.455 318.417C292.065 314.242 287.439 308.186 288.055 298.165C288.67 288.174 288.19 278.115 288.19 268.087C288.19 266.958 288.145 265.822 288.272 264.709C288.685 261.052 291.097 258.697 294.319 258.72C297.526 258.743 299.914 261.127 300.32 264.769C300.433 265.762 300.388 266.77 300.388 267.778C300.395 272.916 300.388 278.062 300.388 283.201C300.388 288.384 300.365 288.339 305.127 286.421C320.449 280.244 336.561 277.257 352.777 274.797C362.293 273.353 371.87 272.36 381.424 271.171C382.295 271.066 383.166 271.006 384.045 270.991C388.356 270.885 391.023 272.849 391.316 276.332C391.616 279.928 389.611 282.426 385.172 282.915C372.493 284.314 359.807 285.623 347.241 287.865C334.427 290.145 321.629 292.567 309.536 297.646C307.238 298.609 304.999 299.782 302.904 301.129C300.027 302.98 300.042 304.198 302.941 306.057C308.807 309.833 315.425 311.827 322.042 313.708C332.888 316.8 343.974 318.741 355.105 320.501C357.689 320.908 360.032 320.336 362.376 319.283C378.359 312.098 394.35 304.936 410.371 297.834C412.407 296.931 413.428 295.802 413.616 293.402C414.667 280.176 415.869 266.951 417.161 253.747C417.476 250.512 415.884 248.202 414.179 245.908C410.371 240.784 405.842 236.24 402.214 230.951C398.474 225.505 395.567 219.734 394.643 213.136C394.237 210.232 392.758 208.818 390.024 207.577C376.511 201.453 369.038 190.912 368.535 175.903C368.272 168.012 368.505 160.105 368.46 152.213C368.422 145.223 371.269 139.837 377.278 136.278C379.005 135.255 379.719 134.036 379.696 132.058C379.629 123.91 379.644 115.762 379.681 107.607C379.689 105.854 379.17 104.477 377.833 103.311C371.239 97.5407 366.116 90.6268 362.383 82.7123C361.429 80.6885 360.025 79.9212 357.899 80.2522C341.818 82.7499 325.76 85.3379 310.497 91.319C307.951 92.3196 305.488 93.6286 303.144 95.058C300.005 96.9765 300.012 98.0448 303.152 100.136C305.014 101.378 307.027 102.453 309.093 103.311C323.792 109.39 339.347 111.993 354.91 114.513C357.501 114.935 360.145 115.168 362.661 115.86C366.026 116.785 367.724 119.652 367.085 122.691C366.439 125.738 363.72 127.935 360.4 127.453C341.443 124.73 322.538 121.713 304.609 114.513C300.395 112.821 300.38 112.79 300.38 117.252C300.373 147.345 300.38 236.391 300.373 266.484C300.373 267.989 300.455 269.523 300.192 270.983C299.621 274.173 297.744 276.272 294.379 276.332C291.006 276.392 289.076 274.353 288.415 271.171C288.137 269.839 288.19 268.425 288.19 267.056C288.175 249 288.182 171.991 288.182 153.935C288.175 153.86 288.16 153.86 288.145 153.86ZM468.146 146.209C441.234 146.209 414.329 146.201 387.417 146.217C381.919 146.217 380.71 147.413 380.688 152.784C380.658 160.428 380.605 168.079 380.703 175.723C380.86 188.392 390.197 197.879 402.77 198.007C415.163 198.135 427.549 198.03 439.942 198.037C445.605 198.037 450.397 195.961 454.491 192.071C463.316 183.698 472.81 183.683 481.74 191.921C486.037 195.885 491.009 198.127 497.003 198.075C509.02 197.969 521.03 198.12 533.048 197.999C544.232 197.887 552.892 190.574 554.83 179.477C556.28 171.156 555.258 162.715 555.423 154.334C555.558 147.465 554.199 146.201 547.386 146.194C520.963 146.194 494.554 146.194 468.146 146.209ZM426.918 210.27C420.488 210.27 415.103 210.353 409.725 210.24C406.916 210.18 406.172 211.203 407.006 213.859C408.876 219.847 412.309 224.903 416.32 229.59C421.382 235.496 426.159 241.529 429.749 248.526C432.844 254.552 437.103 259.841 442.127 264.483C456.301 277.573 475.551 279.266 489.83 268.418C496.74 263.166 501.817 256.313 505.475 248.503C508.547 241.951 512.641 236.248 517.598 230.997C522.15 226.182 526.506 221.111 528.459 214.521C529.57 210.782 529.262 210.292 525.439 210.277C516.434 210.24 507.421 210.232 498.415 210.27C488.996 210.308 480.772 207.298 473.794 200.881C469.437 196.871 466.771 196.924 462.482 200.934C457.405 205.688 451.479 208.682 444.591 209.773C438.372 210.774 432.108 209.977 426.918 210.27ZM550.984 323.924C549.918 322.104 548.573 321.999 547.477 321.502C536.413 316.514 525.372 311.488 514.263 306.606C510.763 305.064 509.088 302.634 508.855 298.827C508.495 293.086 508.097 287.324 507.255 281.636C506.715 277.972 507.345 274.045 505.415 269.734C504.604 270.878 504.296 271.434 503.868 271.886C494.149 282.027 482.469 287.91 468.243 287.677C453.214 287.436 441.189 280.538 430.921 270.028C430.253 269.343 429.689 268.056 428.63 268.365C427.346 268.734 427.579 270.201 427.481 271.269C426.677 280.492 425.829 289.716 425.168 298.955C424.905 302.596 423.38 305.033 420.008 306.501C413.015 309.555 406.075 312.73 399.12 315.86C393.847 318.229 388.582 320.607 383.309 322.977C383.384 323.3 383.459 323.631 383.534 323.955C439.206 328.822 494.892 328.882 550.984 323.924ZM431.011 106.952C443.577 106.509 459.989 104.146 475.627 97.8868C486.255 93.6286 495.733 87.7379 501.75 77.446C503.147 75.0536 502.666 74.0756 499.879 74.0003C494.757 73.8724 489.635 73.4511 484.512 73.4361C467.372 73.3834 450.239 73.3157 433.099 73.9702C414.096 74.7 395.154 75.9714 376.241 77.8523C373.928 78.0855 373.725 78.8077 374.784 80.6208C378.239 86.5116 382.355 91.823 387.868 95.9383C399.45 104.583 412.76 107.125 431.011 106.952ZM469.708 134.006C483.971 134.006 498.235 134.006 512.505 134.006C517.388 134.006 522.262 134.006 527.144 133.991C528.624 133.984 529.893 133.826 529.796 131.772C529.6 127.769 527.918 125.768 523.982 125.091C522.871 124.903 521.759 124.715 520.662 124.467C508.75 121.796 497.942 117.304 491.249 106.23C490.1 104.319 488.951 104.914 487.516 105.636C468.296 115.236 447.626 118.29 426.475 119.261C422.779 119.434 418.423 117.304 415.599 119.546C412.722 121.826 412.324 126.415 410.859 129.996C409.237 133.954 409.304 133.999 413.781 134.006C432.423 134.006 451.066 133.999 469.708 134.006ZM536.03 113.769C538.411 113.769 540.784 113.753 543.165 113.776C544.818 113.784 545.997 113.234 546.643 111.542C550.481 101.558 553.17 91.2813 554.657 80.6885C554.905 78.898 554.544 77.4159 552.299 77.2278C541.085 76.2874 529.886 75.1815 518.634 74.8354C517.192 74.7903 515.825 74.9558 515.27 76.5883C512.438 84.9166 507.12 91.4544 500.631 97.1721C500.165 97.5859 499.384 97.8041 500.187 98.8874C503.845 103.8 508.112 107.818 513.97 110.014C521.106 112.693 528.444 113.904 536.03 113.769ZM391.406 123.225C391.406 125.731 391.383 128.236 391.413 130.741C391.428 132.095 391.226 133.668 393.186 133.916C394.883 134.127 396.431 133.976 397.167 131.997C398.038 129.65 399.037 127.356 399.961 125.023C403.318 116.515 403.296 116.567 394.786 113.505C392.427 112.655 391.233 112.828 391.383 115.71C391.503 118.215 391.406 120.72 391.406 123.225Z" fill="white"/>
<path d="M354.212 39.2878C353.979 33.7657 354.414 28.2812 354.963 22.7967C355.669 15.7474 359.259 13.4904 365.643 16.3192C370.375 18.4182 375.227 19.9303 380.5 19.7423C382.611 19.667 383.242 19.0426 382.205 17.0339C380.831 14.3631 379.554 11.6397 378.307 8.90118C377.083 6.21536 377.406 3.70257 379.651 1.71642C381.875 -0.24716 384.413 -0.382579 386.937 1.18227C390.264 3.24365 393.975 3.61982 397.738 3.84552C408.929 4.52261 419.903 2.52894 430.951 1.24245C450.916 -1.08977 470.669 -0.728652 489.552 7.51689C493.706 9.33001 497.604 11.5795 501.142 14.3857C502.659 15.5894 504.018 16.0333 505.926 15.2283C529.233 5.38779 549.723 18.0119 559.983 36.617C561.86 40.0251 563.408 43.5987 564.437 47.3603C565.556 51.4455 564.136 54.4849 560.749 55.6359C557.489 56.7343 554.409 54.9965 553.088 50.9264C550.339 42.4777 545.854 35.2628 538.764 29.816C531.809 24.4669 524.043 22.6763 515.42 24.5647C513.001 25.0913 512.16 25.9114 513.707 28.3113C514.849 30.0793 515.811 32.0579 516.396 34.0742C517.313 37.264 516.051 39.7542 513.054 41.1837C510.282 42.5078 507.09 41.605 505.693 38.6709C497.484 21.4952 482.154 15.7248 464.939 13.212C449.301 10.9325 433.76 12.7832 418.25 14.9725C411.934 15.8678 405.572 16.4019 399.18 16.101C396.446 15.9731 395.064 16.2063 396.671 19.494C398.94 24.1283 397.768 26.9872 393.021 29.1389C385.638 32.4867 377.976 32.6598 370.285 30.5232C367.566 29.7708 366.409 30.2147 366.154 33.1864C365.726 38.1969 365.643 43.1773 366.229 48.1803C366.575 51.1445 365.658 53.6498 362.962 55.2297C360.919 56.4334 358.868 56.2077 356.946 54.9062C355.015 53.6047 354.249 51.6561 354.219 49.4142C354.174 46.0513 354.212 42.6658 354.212 39.2878Z" fill="white"/>
<path d="M159.351 439.624L149.229 433.746L137.427 421.357L147.549 427.235L159.351 439.624Z" fill="#69767E"/>
<path d="M159.378 401.789C159.387 401.69 159.396 401.591 159.405 401.491C159.414 401.41 159.423 401.329 159.432 401.238C159.45 400.949 159.468 400.669 159.468 400.381C159.459 398.222 158.782 396.778 157.572 396.082L147.449 390.204C148.65 390.899 149.336 392.344 149.346 394.502C149.346 394.782 149.327 395.071 149.309 395.36C149.3 395.441 149.291 395.522 149.282 395.613C149.264 395.793 149.237 395.983 149.21 396.164C149.183 396.326 149.156 396.48 149.129 396.642C149.093 396.832 149.057 397.012 149.011 397.202C148.993 397.292 148.966 397.383 148.948 397.473C148.876 397.753 148.795 398.024 148.695 398.304C148.686 398.34 148.668 398.376 148.659 398.421C148.569 398.683 148.47 398.945 148.361 399.198C148.343 399.243 148.325 399.288 148.307 399.333C148.19 399.604 148.063 399.875 147.928 400.146C147.901 400.2 147.874 400.254 147.847 400.308C147.702 400.579 147.558 400.85 147.404 401.121C147.386 401.157 147.359 401.184 147.341 401.22C147.196 401.455 147.052 401.69 146.898 401.925C146.853 401.997 146.799 402.069 146.754 402.141C146.609 402.358 146.456 402.566 146.293 402.773C146.248 402.837 146.203 402.9 146.158 402.963C146.032 403.135 145.887 403.297 145.752 403.46C145.652 403.577 145.562 403.695 145.463 403.803C145.427 403.848 145.381 403.893 145.336 403.938C145.074 404.227 144.804 404.516 144.533 404.796C144.424 404.905 144.316 405.013 144.199 405.121C144.018 405.293 143.837 405.464 143.648 405.636C143.521 405.744 143.404 405.853 143.268 405.961C143.07 406.124 142.871 406.286 142.672 406.449C142.546 406.548 142.42 406.647 142.293 406.747C142.067 406.918 141.833 407.081 141.598 407.243C141.481 407.325 141.372 407.406 141.255 407.478C140.903 407.713 140.541 407.939 140.171 408.146L129.245 414.449L139.368 420.328L150.294 414.025C150.664 413.808 151.025 413.582 151.377 413.356C151.495 413.284 151.603 413.203 151.711 413.122C151.946 412.959 152.181 412.797 152.407 412.625C152.533 412.526 152.659 412.426 152.786 412.327C152.994 412.165 153.192 412.002 153.391 411.839C153.517 411.731 153.644 411.623 153.77 411.514C153.96 411.343 154.14 411.18 154.321 411C154.393 410.936 154.465 410.873 154.529 410.81C154.574 410.765 154.61 410.72 154.655 410.684C154.935 410.404 155.206 410.115 155.459 409.826C155.495 409.79 155.531 409.754 155.558 409.717C155.567 409.708 155.576 409.699 155.585 409.69C155.684 409.573 155.775 409.456 155.874 409.338C156.001 409.185 156.127 409.04 156.244 408.887C156.253 408.869 156.262 408.86 156.28 408.842C156.326 408.778 156.371 408.715 156.416 408.652C156.533 408.498 156.651 408.345 156.759 408.182C156.795 408.128 156.831 408.074 156.867 408.02C156.922 407.948 156.967 407.875 157.012 407.803C157.066 407.722 157.129 407.641 157.183 407.55C157.283 407.397 157.373 407.243 157.463 407.099C157.481 407.063 157.508 407.036 157.527 406.999C157.536 406.99 157.545 406.972 157.554 406.963C157.662 406.774 157.77 406.584 157.87 406.394C157.906 406.322 157.942 406.259 157.978 406.187C158.005 406.133 158.032 406.078 158.059 406.024C158.086 405.961 158.123 405.907 158.15 405.844C158.24 405.663 158.321 405.473 158.402 405.293C158.411 405.266 158.421 405.239 158.439 405.212C158.457 405.166 158.475 405.121 158.493 405.085C158.538 404.968 158.592 404.85 158.637 404.733C158.691 404.588 158.737 404.453 158.791 404.309C158.8 404.272 158.818 404.236 158.827 404.191C158.836 404.173 158.836 404.155 158.845 404.137C158.917 403.92 158.98 403.713 159.044 403.496C159.053 403.451 159.062 403.406 159.08 403.36C159.107 403.27 159.125 403.18 159.143 403.09C159.17 402.972 159.206 402.864 159.224 402.746C159.242 402.674 159.251 402.602 159.26 402.521C159.287 402.358 159.314 402.205 159.342 402.042C159.342 401.961 159.36 401.879 159.378 401.789Z" fill="#69767E"/>
<path d="M159.216 419.036L171.921 432.365L159.351 439.616L147.549 427.227L139.386 431.931L139.44 451.102L128.442 457.45L128.271 398.403L151.396 385.057C162.548 378.628 170.801 382.131 170.837 393.816C170.864 402.593 166.241 412.147 159.216 419.036ZM150.285 414.034C155.748 410.882 159.478 405.455 159.469 400.381C159.451 395.306 155.703 394.204 150.24 397.356L139.314 403.659L139.359 420.337L150.285 414.034Z" fill="white"/>
<path d="M128.442 457.459L118.32 451.58L118.148 392.534L128.279 398.412L128.442 457.459Z" fill="#69767E"/>
<path d="M152.732 384.344C152.967 384.226 153.202 384.1 153.436 383.991C153.554 383.937 153.662 383.883 153.77 383.829C154.005 383.721 154.249 383.612 154.484 383.513C154.574 383.477 154.664 383.432 154.755 383.395C154.863 383.35 154.971 383.305 155.089 383.269C155.396 383.143 155.703 383.025 156.01 382.917C156.145 382.872 156.272 382.827 156.407 382.781C156.696 382.691 156.976 382.601 157.247 382.52C157.373 382.483 157.5 382.447 157.626 382.411C157.78 382.375 157.924 382.339 158.078 382.303C158.249 382.267 158.421 382.222 158.592 382.185C158.737 382.158 158.881 382.131 159.026 382.104C159.197 382.077 159.369 382.041 159.54 382.023C159.64 382.005 159.739 381.996 159.847 381.987C160.037 381.969 160.227 381.942 160.416 381.933C160.516 381.924 160.606 381.915 160.705 381.915C160.958 381.897 161.211 381.887 161.464 381.897C161.473 381.897 161.482 381.897 161.491 381.897C161.735 381.897 161.97 381.915 162.204 381.933C162.547 381.96 162.872 381.996 163.198 382.05C163.252 382.059 163.315 382.077 163.369 382.086C163.622 382.131 163.866 382.194 164.11 382.258C164.209 382.285 164.308 382.312 164.399 382.348C164.588 382.411 164.778 382.474 164.967 382.547C165.058 382.583 165.157 382.619 165.247 382.664C165.446 382.754 165.636 382.845 165.825 382.944C165.907 382.989 165.997 383.025 166.069 383.07L155.947 377.192C155.92 377.174 155.883 377.156 155.856 377.138C155.802 377.111 155.748 377.093 155.703 377.056C155.513 376.957 155.324 376.858 155.125 376.777C155.089 376.759 155.053 376.74 155.017 376.722C154.962 376.695 154.899 376.686 154.845 376.659C154.655 376.587 154.475 376.524 154.276 376.461C154.222 376.442 154.168 376.415 154.105 376.397C154.068 376.388 154.023 376.379 153.987 376.37C153.743 376.307 153.5 376.244 153.247 376.199C153.202 376.19 153.156 376.172 153.111 376.163C153.102 376.163 153.093 376.163 153.075 376.163C152.75 376.108 152.416 376.072 152.082 376.045C152.055 376.045 152.028 376.036 151.992 376.036C151.775 376.009 151.567 376 151.359 376C151.35 376 151.341 376 151.332 376C151.134 376 150.926 376 150.718 376.009C150.673 376.009 150.619 376.018 150.574 376.018C150.475 376.027 150.384 376.036 150.285 376.036C150.095 376.054 149.915 376.072 149.716 376.09C149.617 376.099 149.517 376.117 149.409 376.126C149.346 376.135 149.283 376.144 149.219 376.154C149.111 376.172 149.003 376.199 148.894 376.217C148.75 376.244 148.605 376.271 148.461 376.298C148.289 376.334 148.118 376.37 147.946 376.415C147.802 376.451 147.648 376.488 147.495 376.524C147.45 376.533 147.404 376.542 147.359 376.56C147.278 376.578 147.197 376.614 147.115 376.632C146.835 376.713 146.556 376.795 146.276 376.894C146.14 376.939 146.014 376.984 145.878 377.029C145.571 377.138 145.264 377.255 144.957 377.382C144.876 377.418 144.804 377.436 144.723 377.472C144.686 377.481 144.659 377.499 144.623 377.517C144.533 377.553 144.443 377.598 144.352 377.634C144.118 377.734 143.883 377.842 143.639 377.95C143.531 378.005 143.413 378.059 143.305 378.113C143.07 378.221 142.835 378.348 142.601 378.465C142.492 378.519 142.393 378.574 142.284 378.628C141.95 378.808 141.607 378.989 141.264 379.188L118.139 392.534L128.261 398.412L151.387 385.066C151.73 384.867 152.064 384.687 152.407 384.506C152.524 384.452 152.624 384.398 152.732 384.344Z" fill="#839098"/>
<path d="M109.958 468.123L99.8352 462.244L96.5122 454.867L106.635 460.745L109.958 468.123Z" fill="#69767E"/>
<path d="M87.5277 461.007L77.4053 455.129L92.6657 446.325L102.788 452.203L87.5277 461.007Z" fill="#839098"/>
<path d="M102.788 452.203L92.6656 446.324L84.9722 429.15L95.0946 435.028L102.788 452.203Z" fill="#647179"/>
<path d="M101.262 413.998L122.383 460.953L109.958 468.123L106.635 460.745L83.7351 473.956L80.4663 485.135L68.1226 492.26L88.9092 421.122L101.262 413.998ZM87.5277 461.007L102.797 452.194L95.1037 435.028L87.5277 461.007Z" fill="white"/>
<path d="M68.1224 492.269L58 486.381L78.7867 415.244L88.9181 421.122L68.1224 492.269Z" fill="#69767E"/>
<path d="M88.9181 421.122L78.7866 415.244L91.1304 408.119L101.262 413.998L88.9181 421.122Z" fill="#839098"/>
<defs>
<linearGradient id="paint0_linear_338_38" x1="79.7246" y1="477.597" x2="233.006" y2="477.597" gradientUnits="userSpaceOnUse">
<stop stop-color="#D1DEE6"/>
<stop offset="1" stop-color="#F8FCFE"/>
</linearGradient>
</defs>
</svg>
