<svg width="705" height="677" viewBox="0 0 705 677" fill="none" xmlns="http://www.w3.org/2000/svg">
<g opacity="0.17">
<path d="M352.526 535.7C453.759 535.7 535.825 453.65 535.825 352.437C535.825 251.224 453.759 169.174 352.526 169.174C251.292 169.174 169.227 251.224 169.227 352.437C169.227 453.65 251.292 535.7 352.526 535.7Z" stroke="#5DFFE8" stroke-width="8.3476" stroke-miterlimit="10"/>
<path d="M352.526 613.092C496.51 613.092 613.232 496.393 613.232 352.437C613.232 208.481 496.51 91.7822 352.526 91.7822C208.542 91.7822 91.8193 208.481 91.8193 352.437C91.8193 496.393 208.542 613.092 352.526 613.092Z" stroke="#5DFFE8" stroke-width="0.7761" stroke-miterlimit="10"/>
<path d="M79.5027 430.23C72.4674 405.506 68.7114 379.41 68.7114 352.437C68.7114 195.709 195.785 68.6601 352.545 68.6601" stroke="#5DFFE8" stroke-width="0.2609" stroke-miterlimit="10"/>
<path d="M636.359 352.437C636.359 509.165 509.285 636.214 352.526 636.214" stroke="#5DFFE8" stroke-width="0.2609" stroke-miterlimit="10"/>
<path d="M190.638 663.359C78.5303 604.895 2 487.606 2 352.437C2.01907 158.9 158.95 2 352.526 2" stroke="#5DFFE8" stroke-width="3.1304" stroke-miterlimit="10"/>
<path d="M703.051 352.437C703.051 490.866 622.784 610.538 506.235 667.495" stroke="#5DFFE8" stroke-width="3.1304" stroke-miterlimit="10"/>
<path d="M97.6914 178.858C165.375 79.621 288.083 25.1034 413.269 50.2654C580.191 83.8146 688.294 246.281 654.758 413.169C640.706 483.032 604.061 542.582 553.956 585.776" stroke="#5DFFE8" stroke-width="0.9177" stroke-miterlimit="10"/>
<path d="M501.659 639.779C457.026 662.978 406.311 676.092 352.526 676.092C209.208 676.092 87.6629 582.974 45.0698 453.962" stroke="#5DFFE8" stroke-width="0.9636" stroke-miterlimit="10"/>
</g>
<path d="M544.158 391.477L501.603 366.764L451.988 314.681L494.542 339.394L544.158 391.477Z" fill="#69767E"/>
<path d="M544.271 232.418C544.309 232.001 544.347 231.583 544.385 231.165C544.423 230.824 544.461 230.482 544.499 230.102C544.575 228.888 544.651 227.711 544.651 226.496C544.613 217.423 541.766 211.349 536.679 208.426L494.125 183.713C499.173 186.636 502.058 192.71 502.096 201.783C502.096 202.96 502.021 204.175 501.945 205.389C501.907 205.731 501.869 206.073 501.831 206.452C501.755 207.212 501.641 208.009 501.527 208.768C501.413 209.451 501.299 210.097 501.185 210.78C501.033 211.577 500.882 212.336 500.692 213.134C500.616 213.513 500.502 213.893 500.426 214.272C500.122 215.449 499.781 216.588 499.363 217.765C499.325 217.917 499.249 218.069 499.211 218.258C498.832 219.359 498.414 220.46 497.959 221.523C497.883 221.713 497.807 221.903 497.731 222.093C497.237 223.231 496.706 224.37 496.137 225.509C496.023 225.737 495.909 225.965 495.795 226.192C495.187 227.331 494.58 228.47 493.935 229.609C493.859 229.761 493.745 229.875 493.669 230.027C493.062 231.014 492.454 232.001 491.809 232.988C491.619 233.291 491.391 233.595 491.202 233.899C490.594 234.81 489.949 235.683 489.265 236.556C489.076 236.822 488.886 237.087 488.696 237.353C488.165 238.074 487.557 238.758 486.988 239.441C486.57 239.934 486.191 240.428 485.773 240.884C485.621 241.073 485.431 241.263 485.242 241.453C484.141 242.668 483.002 243.882 481.863 245.059C481.407 245.515 480.952 245.97 480.458 246.426C479.699 247.147 478.94 247.868 478.143 248.59C477.611 249.045 477.118 249.501 476.548 249.956C475.713 250.64 474.878 251.323 474.043 252.006C473.512 252.424 472.98 252.841 472.449 253.259C471.5 253.98 470.513 254.664 469.526 255.347C469.032 255.689 468.577 256.03 468.083 256.334C466.603 257.321 465.084 258.27 463.528 259.143L417.594 285.64L460.149 310.353L506.082 283.856C507.639 282.945 509.157 281.996 510.638 281.047C511.131 280.743 511.587 280.402 512.042 280.06C513.029 279.377 514.016 278.693 514.965 277.972C515.497 277.554 516.028 277.137 516.56 276.719C517.433 276.036 518.268 275.353 519.103 274.669C519.635 274.214 520.166 273.758 520.697 273.303C521.495 272.581 522.254 271.898 523.013 271.139C523.317 270.873 523.621 270.607 523.886 270.342C524.076 270.152 524.228 269.962 524.418 269.81C525.595 268.633 526.733 267.419 527.796 266.204C527.948 266.052 528.1 265.9 528.214 265.748C528.252 265.71 528.29 265.672 528.328 265.634C528.745 265.141 529.125 264.647 529.542 264.154C530.074 263.509 530.605 262.901 531.099 262.256C531.137 262.18 531.175 262.142 531.251 262.066C531.441 261.8 531.63 261.535 531.82 261.269C532.314 260.624 532.807 259.978 533.263 259.295C533.415 259.067 533.566 258.839 533.718 258.612C533.946 258.308 534.136 258.004 534.326 257.701C534.553 257.359 534.819 257.017 535.047 256.638C535.464 255.992 535.844 255.347 536.224 254.739C536.3 254.588 536.413 254.474 536.489 254.322C536.527 254.284 536.565 254.208 536.603 254.17C537.059 253.373 537.514 252.576 537.932 251.778C538.084 251.475 538.236 251.209 538.387 250.905C538.501 250.678 538.615 250.45 538.729 250.222C538.843 249.956 538.995 249.729 539.109 249.463C539.488 248.704 539.83 247.906 540.172 247.147C540.21 247.033 540.248 246.919 540.324 246.806C540.399 246.616 540.475 246.426 540.551 246.274C540.741 245.781 540.969 245.287 541.159 244.794C541.386 244.186 541.576 243.617 541.804 243.009C541.842 242.858 541.918 242.706 541.956 242.516C541.994 242.44 541.994 242.364 542.032 242.288C542.335 241.377 542.601 240.504 542.867 239.593C542.905 239.403 542.943 239.213 543.019 239.023C543.133 238.644 543.209 238.264 543.285 237.885C543.398 237.391 543.55 236.936 543.626 236.442C543.702 236.138 543.74 235.835 543.778 235.493C543.892 234.81 544.006 234.164 544.12 233.481C544.12 233.139 544.196 232.798 544.271 232.418Z" fill="#69767E"/>
<path d="M543.588 304.925L597 360.956L544.158 391.439L494.542 339.356L460.225 359.134L460.453 439.726L414.216 466.413L413.495 218.182L510.714 162.075C557.596 135.047 592.293 149.776 592.445 198.898C592.558 235.797 573.122 275.96 543.588 304.925ZM506.044 283.894C529.011 270.645 544.689 247.83 544.651 226.496C544.575 205.162 528.821 200.53 505.855 213.779L459.921 240.276L460.111 310.391L506.044 283.894Z" fill="white"/>
<path d="M414.216 466.451L371.661 441.738L370.94 193.508L413.533 218.221L414.216 466.451Z" fill="#69767E"/>
<path d="M516.332 159.076C517.319 158.583 518.306 158.052 519.293 157.596C519.787 157.368 520.242 157.14 520.698 156.913C521.685 156.457 522.71 156.002 523.697 155.584C524.076 155.432 524.456 155.242 524.835 155.09C525.291 154.901 525.746 154.711 526.24 154.559C527.531 154.028 528.821 153.534 530.112 153.079C530.681 152.889 531.213 152.699 531.782 152.509C532.997 152.13 534.174 151.75 535.313 151.408C535.844 151.256 536.376 151.105 536.907 150.953C537.552 150.801 538.16 150.649 538.805 150.497C539.526 150.345 540.248 150.156 540.969 150.004C541.576 149.89 542.184 149.776 542.791 149.662C543.512 149.548 544.234 149.396 544.955 149.32C545.372 149.244 545.79 149.206 546.246 149.169C547.043 149.093 547.84 148.979 548.637 148.941C549.055 148.903 549.434 148.865 549.852 148.865C550.915 148.789 551.978 148.751 553.041 148.789C553.079 148.789 553.117 148.789 553.155 148.789C554.18 148.789 555.167 148.865 556.154 148.941C557.596 149.055 558.963 149.206 560.329 149.434C560.557 149.472 560.823 149.548 561.051 149.586C562.113 149.776 563.138 150.042 564.163 150.307C564.581 150.421 564.999 150.535 565.378 150.687C566.175 150.953 566.973 151.218 567.77 151.522C568.149 151.674 568.567 151.826 568.947 152.016C569.782 152.395 570.579 152.775 571.376 153.192C571.718 153.382 572.097 153.534 572.401 153.724L529.846 129.011C529.732 128.935 529.581 128.859 529.467 128.783C529.239 128.669 529.011 128.593 528.821 128.442C528.024 128.024 527.227 127.606 526.392 127.265C526.24 127.189 526.088 127.113 525.936 127.037C525.709 126.923 525.443 126.885 525.215 126.771C524.418 126.468 523.659 126.202 522.823 125.936C522.596 125.86 522.368 125.746 522.102 125.67C521.95 125.632 521.761 125.594 521.609 125.556C520.584 125.291 519.559 125.025 518.496 124.835C518.306 124.797 518.116 124.721 517.926 124.683C517.888 124.683 517.851 124.683 517.775 124.683C516.408 124.456 515.003 124.304 513.599 124.19C513.485 124.19 513.371 124.152 513.219 124.152C512.308 124.038 511.435 124 510.562 124C510.524 124 510.486 124 510.448 124C509.613 124 508.74 124 507.867 124.038C507.677 124.038 507.449 124.076 507.259 124.076C506.842 124.114 506.462 124.152 506.045 124.152C505.247 124.228 504.488 124.304 503.653 124.38C503.235 124.418 502.818 124.494 502.362 124.531C502.097 124.569 501.831 124.607 501.565 124.645C501.11 124.721 500.654 124.835 500.198 124.911C499.591 125.025 498.984 125.139 498.376 125.253C497.655 125.405 496.934 125.556 496.213 125.746C495.605 125.898 494.96 126.05 494.314 126.202C494.125 126.24 493.935 126.278 493.745 126.354C493.403 126.43 493.062 126.581 492.72 126.657C491.543 126.999 490.367 127.341 489.19 127.758C488.62 127.948 488.089 128.138 487.519 128.328C486.229 128.783 484.938 129.277 483.647 129.808C483.306 129.96 483.002 130.036 482.66 130.188C482.509 130.226 482.395 130.302 482.243 130.378C481.863 130.529 481.484 130.719 481.104 130.871C480.117 131.289 479.13 131.744 478.105 132.2C477.649 132.427 477.156 132.655 476.7 132.883C475.713 133.339 474.726 133.87 473.739 134.364C473.284 134.591 472.866 134.819 472.411 135.047C471.006 135.806 469.564 136.565 468.121 137.4L370.902 193.508L413.457 218.221L510.676 162.113C512.118 161.278 513.523 160.519 514.965 159.76C515.459 159.532 515.877 159.304 516.332 159.076Z" fill="#839098"/>
<path d="M336.509 511.284L293.955 486.571L279.985 455.556L322.539 480.269L336.509 511.284Z" fill="#69767E"/>
<path d="M242.213 481.37L199.658 456.657L263.813 419.644L306.368 444.357L242.213 481.37Z" fill="#839098"/>
<path d="M306.368 444.357L263.813 419.644L231.47 347.442L274.025 372.155L306.368 444.357Z" fill="#647179"/>
<path d="M299.952 283.742L388.744 481.142L336.509 511.284L322.539 480.269L226.269 535.807L212.527 582.803L160.634 612.755L248.021 313.694L299.952 283.742ZM242.213 481.37L306.406 444.319L274.063 372.155L242.213 481.37Z" fill="white"/>
<path d="M160.634 612.793L118.08 588.042L205.467 288.981L248.059 313.694L160.634 612.793Z" fill="#69767E"/>
<path d="M248.059 313.694L205.467 288.981L257.36 259.029L299.953 283.742L248.059 313.694Z" fill="#839098"/>
</svg>
