<svg width="13" height="174" viewBox="0 0 13 174" fill="none" xmlns="http://www.w3.org/2000/svg">
<path d="M12.4768 167.554L7.52525 172.597C7.25173 172.898 6.87918 173.049 6.46891 173.049C6.05863 173.049 5.6908 172.898 5.41257 172.597L0.442123 167.554C-0.147352 166.955 -0.147352 165.98 0.442123 165.382C1.0316 164.783 1.98419 164.783 2.57366 165.382L4.95042 167.805L4.98997 2.50512C4.98997 1.65038 5.66433 0.961566 6.49902 0.961566C7.33372 0.961566 8.00809 1.65038 8.00809 2.50009L7.96853 167.8L10.3453 165.377C10.9348 164.778 11.8874 164.778 12.4768 165.377C13.0663 165.98 13.0663 166.95 12.4768 167.554Z" fill="url(#paint0_linear_111_64)"/>
<defs>
<linearGradient id="paint0_linear_111_64" x1="52.0168" y1="172.716" x2="52.0148" y2="1.00009" gradientUnits="userSpaceOnUse">
<stop stop-color="#14484B"/>
<stop offset="0.776554" stop-color="#14484B" stop-opacity="0"/>
</linearGradient>
</defs>
</svg>
