<svg width="115" height="13" viewBox="0 0 115 13" fill="none" xmlns="http://www.w3.org/2000/svg">
<path d="M109.136 0.442106L114.178 5.39369C114.48 5.66721 114.631 6.03975 114.631 6.45003C114.631 6.8603 114.48 7.22814 114.178 7.50637L109.136 12.4768C108.537 13.0663 107.562 13.0663 106.964 12.4768C106.365 11.8873 106.365 10.9347 106.964 10.3453L109.387 7.96851L1.54355 7.92898C0.688817 7.92898 0 7.25462 0 6.41992C0 5.58523 0.688817 4.91086 1.53853 4.91086L109.382 4.95041L106.958 2.57365C106.36 1.98417 106.36 1.03158 106.958 0.442106C107.562 -0.147369 108.532 -0.147369 109.136 0.442106Z" fill="url(#paint0_linear_111_75)"/>
<defs>
<linearGradient id="paint0_linear_111_75" x1="114.298" y1="-39.0983" x2="13.0435" y2="-39.0972" gradientUnits="userSpaceOnUse">
<stop stop-color="#5DFFE8"/>
<stop offset="1" stop-color="#45FFE5" stop-opacity="0"/>
</linearGradient>
</defs>
</svg>
