<svg width="257" height="250" viewBox="0 0 257 250" fill="none" xmlns="http://www.w3.org/2000/svg">
<g filter="url(#filter0_d_110_111)">
<path d="M34.09 95.7476C34.09 84.4364 34.1134 73.1206 34.076 61.8094C34.0667 58.4151 35.4642 55.7933 38.1004 53.7755C43.3728 49.7304 49.6455 48.0309 55.9041 46.4391C67.0145 43.6114 78.3492 42.0289 89.7353 40.8491C111.203 38.6253 132.751 37.6983 154.317 38.1524C180.006 38.6908 205.653 40.0392 230.884 45.4794C237.591 46.926 244.2 48.7285 250.267 52.0994C254.75 54.5901 256.956 58.1529 256.774 63.5323C256.479 72.1842 256.694 117.92 256.694 126.582C256.694 127.907 256.732 129.236 256.666 130.561C256.535 133.239 254.951 134.971 252.754 134.925C250.712 134.878 249.155 133.117 249.132 130.542C249.071 123.988 249.104 80.3633 249.104 73.8135C249.104 70.1804 249.104 70.1898 245.766 71.5147C236.727 75.1103 227.229 76.8192 217.698 78.411C217.395 78.4625 217.077 78.4625 216.768 78.4718C214.197 78.5655 212.599 77.4652 212.276 75.3819C211.968 73.3874 213.328 71.6926 215.773 71.2104C219.895 70.3911 224.05 69.7356 228.159 68.8601C233.875 67.6476 239.554 66.243 244.874 63.7383C246.383 63.0267 248.627 62.4461 248.664 60.6717C248.702 58.9863 246.467 58.4853 245.032 57.8158C236.829 53.9768 228.009 52.385 219.185 50.8447C216.198 50.3203 213.183 49.9271 210.187 49.4495C208.392 49.1639 207.448 49.7585 207.219 51.7061C206.359 59.0331 204.218 66.0277 201.624 72.9099C200.166 76.7817 201.928 80.5599 202.311 84.3755C202.344 84.7173 202.933 85.0357 203.302 85.3072C206.364 87.5498 207.789 90.5508 207.733 94.3571C207.663 99.2729 207.738 104.189 207.71 109.105C207.649 118.464 202.526 125.987 193.87 129.395C192.725 129.845 191.813 130.238 191.65 131.704C190.925 138.225 187.368 143.3 183.143 148.015C182.829 148.361 182.53 148.726 182.18 149.035C177.361 153.216 175.669 158.287 176.805 164.696C177.833 170.511 178.132 176.461 178.609 182.36C178.735 183.919 179.333 184.673 180.717 185.286C190.617 189.669 200.507 194.079 210.337 198.606C212.641 199.669 214.833 199.439 217.165 199.074C225.411 197.782 233.562 196.12 241.447 193.33C243.658 192.548 245.78 191.583 247.739 190.282C249.169 189.331 249.169 188.4 247.701 187.445C243.859 184.935 239.536 183.596 235.179 182.407C223.429 179.191 211.379 177.693 199.306 176.33C198.843 176.279 198.366 176.269 197.917 176.166C195.725 175.661 194.468 173.957 194.758 171.934C195.038 169.972 196.842 168.507 198.993 168.769C215.371 170.759 231.837 172.341 247.304 178.746C249.735 179.753 249.071 177.842 249.076 176.831C249.113 163.413 249.094 149.991 249.099 136.573C249.099 133.529 249.038 130.486 249.15 127.448C249.235 125.149 250.749 123.623 252.721 123.539C254.801 123.454 256.386 124.976 256.648 127.354C256.713 127.972 256.69 128.6 256.69 129.227C256.694 131.881 256.694 134.531 256.694 137.186C256.699 154.04 256.69 170.89 256.718 187.744C256.722 191.635 254.871 194.425 251.782 196.504C247.323 199.51 242.284 201.162 237.161 202.543C225.481 205.694 213.538 207.361 201.535 208.667C177.964 211.233 154.313 211.893 130.643 211.28C107.371 210.676 84.1497 209.154 61.2793 204.393C54.5626 202.993 47.9441 201.237 41.7509 198.152C36.5299 195.554 33.6507 191.785 34.034 185.549C34.4172 179.331 34.1181 173.072 34.1181 166.831C34.1181 166.129 34.09 165.422 34.1695 164.729C34.4266 162.453 35.927 160.988 37.9322 161.002C39.928 161.016 41.4144 162.5 41.6668 164.766C41.7369 165.384 41.7088 166.012 41.7088 166.639C41.7135 169.837 41.7088 173.039 41.7088 176.237C41.7088 179.462 41.6948 179.434 44.6582 178.24C54.1934 174.397 64.2193 172.538 74.3107 171.007C80.2328 170.108 86.1923 169.49 92.1378 168.75C92.68 168.685 93.2222 168.647 93.769 168.638C96.452 168.573 98.1113 169.794 98.2936 171.962C98.4805 174.2 97.2326 175.754 94.4702 176.059C86.5803 176.929 78.6857 177.744 70.8659 179.139C62.8919 180.558 54.9272 182.065 47.4019 185.226C45.9716 185.825 44.5787 186.555 43.2747 187.393C41.4845 188.545 41.4938 189.303 43.298 190.46C46.9485 192.81 51.0664 194.051 55.1843 195.221C61.9337 197.145 68.8327 198.353 75.7597 199.449C77.3676 199.702 78.8259 199.346 80.2842 198.69C90.2307 194.219 100.182 189.762 110.152 185.343C111.418 184.781 112.054 184.079 112.171 182.585C112.825 174.354 113.573 166.124 114.377 157.907C114.573 155.894 113.583 154.457 112.522 153.029C110.152 149.841 107.333 147.013 105.076 143.722C102.748 140.332 100.939 136.741 100.364 132.635C100.112 130.828 99.191 129.948 97.4896 129.175C89.0809 125.364 84.4302 118.805 84.117 109.465C83.9534 104.554 84.0983 99.6334 84.0703 94.7223C84.0469 90.3729 85.8184 87.0207 89.5577 84.8063C90.6327 84.1695 91.0768 83.4111 91.0627 82.1798C91.0207 77.1094 91.03 72.0391 91.0534 66.964C91.0581 65.8732 90.7355 65.0164 89.9036 64.2907C85.7997 60.6998 82.612 56.3973 80.2889 51.472C79.6953 50.2127 78.8213 49.7351 77.4985 49.9411C67.4912 51.4955 57.498 53.106 48.0002 56.828C46.4157 57.4507 44.8826 58.2653 43.4242 59.1548C41.4705 60.3487 41.4751 61.0135 43.4289 62.315C44.5881 63.0875 45.8408 63.757 47.1261 64.2907C56.2734 68.0736 65.9534 69.6935 75.6382 71.2619C77.2508 71.5241 78.896 71.6692 80.4619 72.0999C82.5559 72.6758 83.6122 74.4595 83.2149 76.351C82.8129 78.2471 81.1209 79.6142 79.055 79.3145C67.2575 77.6197 55.4928 75.7424 44.3357 71.2619C41.7135 70.2085 41.7042 70.1898 41.7042 72.9661C41.6995 91.6931 41.7042 147.107 41.6995 165.834C41.6995 166.77 41.7509 167.725 41.5873 168.633C41.2321 170.618 40.0636 171.925 37.9696 171.962C35.8709 172 34.6696 170.731 34.2583 168.75C34.0854 167.922 34.1181 167.042 34.1181 166.189C34.1087 154.953 34.1134 107.031 34.1134 95.7944C34.1087 95.7476 34.0994 95.7476 34.09 95.7476ZM146.105 90.9862C129.358 90.9862 112.615 90.9815 95.8677 90.9909C92.4463 90.9909 91.6937 91.7353 91.6797 95.0781C91.661 99.8347 91.6283 104.596 91.6891 109.353C91.7872 117.237 97.5971 123.141 105.422 123.22C113.134 123.3 120.841 123.234 128.554 123.239C132.078 123.239 135.06 121.947 137.607 119.526C143.1 114.315 149.008 114.306 154.565 119.433C157.239 121.9 160.333 123.295 164.063 123.262C171.542 123.197 179.015 123.29 186.494 123.215C193.454 123.145 198.843 118.595 200.049 111.689C200.951 106.511 200.315 101.258 200.418 96.0425C200.502 91.7681 199.656 90.9815 195.417 90.9768C178.973 90.9768 162.539 90.9768 146.105 90.9862ZM120.449 130.851C116.448 130.851 113.096 130.903 109.75 130.833C108.002 130.795 107.539 131.432 108.058 133.085C109.222 136.811 111.358 139.958 113.854 142.874C117.004 146.549 119.977 150.304 122.211 154.658C124.137 158.408 126.787 161.7 129.914 164.588C138.734 172.735 150.714 173.788 159.599 167.037C163.899 163.769 167.059 159.504 169.335 154.644C171.247 150.566 173.794 147.018 176.879 143.75C179.712 140.753 182.423 137.598 183.638 133.497C184.33 131.17 184.138 130.866 181.759 130.856C176.155 130.833 170.546 130.828 164.942 130.851C159.08 130.875 153.962 129.002 149.62 125.009C146.909 122.513 145.25 122.546 142.581 125.041C139.421 128 135.733 129.864 131.447 130.542C127.577 131.165 123.679 130.669 120.449 130.851ZM197.656 201.579C196.992 200.446 196.155 200.38 195.473 200.071C188.588 196.967 181.717 193.84 174.804 190.802C172.626 189.842 171.584 188.33 171.439 185.961C171.214 182.388 170.967 178.802 170.443 175.263C170.107 172.983 170.499 170.539 169.298 167.856C168.793 168.568 168.601 168.914 168.335 169.195C162.287 175.506 155.019 179.167 146.166 179.022C136.813 178.872 129.33 174.579 122.94 168.039C122.524 167.613 122.174 166.812 121.515 167.004C120.715 167.234 120.86 168.146 120.799 168.811C120.299 174.551 119.771 180.291 119.36 186.04C119.196 188.306 118.247 189.823 116.149 190.736C111.797 192.637 107.478 194.613 103.15 196.56C99.8688 198.035 96.5922 199.514 93.311 200.989C93.3577 201.19 93.4045 201.396 93.4512 201.598C128.096 204.627 162.75 204.664 197.656 201.579ZM122.996 66.5567C130.816 66.2805 141.029 64.8104 150.76 60.9152C157.374 58.2653 163.273 54.5995 167.017 48.1948C167.886 46.706 167.587 46.0974 165.853 46.0506C162.665 45.971 159.478 45.7088 156.29 45.6994C145.624 45.6667 134.962 45.6245 124.296 46.0318C112.47 46.486 100.682 47.2772 88.9127 48.4476C87.473 48.5928 87.3468 49.0422 88.0059 50.1705C90.156 53.8363 92.7174 57.1417 96.1482 59.7026C103.356 65.082 111.638 66.6644 122.996 66.5567ZM147.077 83.3924C155.953 83.3924 164.829 83.3924 173.71 83.3924C176.748 83.3924 179.782 83.3924 182.82 83.383C183.741 83.3783 184.531 83.28 184.47 82.0019C184.349 79.5112 183.302 78.2658 180.852 77.8445C180.161 77.7274 179.469 77.6104 178.786 77.4559C171.373 75.7939 164.647 72.9988 160.483 66.1073C159.767 64.9181 159.052 65.288 158.16 65.7374C146.199 71.7113 133.335 73.6121 120.173 74.2161C117.873 74.3238 115.162 72.9988 113.405 74.394C111.615 75.8126 111.367 78.6685 110.456 80.897C109.446 83.3596 109.488 83.3877 112.274 83.3924C123.875 83.3924 135.476 83.3877 147.077 83.3924ZM188.35 70.7984C189.831 70.7984 191.308 70.789 192.79 70.8031C193.818 70.8078 194.552 70.466 194.954 69.4126C197.343 63.1999 199.016 56.8046 199.941 50.2127C200.096 49.0984 199.871 48.1761 198.474 48.059C191.495 47.4738 184.526 46.7856 177.524 46.5702C176.627 46.5421 175.776 46.6451 175.43 47.6611C173.668 52.8438 170.359 56.9123 166.321 60.4704C166.031 60.7279 165.545 60.8637 166.045 61.5379C168.321 64.5951 170.976 67.0951 174.622 68.4622C179.062 70.1289 183.629 70.8827 188.35 70.7984ZM98.3497 76.6834C98.3497 78.2424 98.3356 79.8014 98.3543 81.3605C98.3637 82.2032 98.2375 83.1817 99.4574 83.3362C100.514 83.4673 101.477 83.3736 101.935 82.1423C102.477 80.6816 103.099 79.2537 103.673 77.8023C105.763 72.5072 105.749 72.54 100.453 70.6345C98.9853 70.1055 98.2422 70.2132 98.3356 72.0063C98.4104 73.5653 98.3497 75.1244 98.3497 76.6834Z" fill="white"/>
<path d="M75.2035 24.4489C75.0586 21.0125 75.3297 17.5995 75.6709 14.1865C76.1103 9.79964 78.3445 8.3951 82.3175 10.1555C85.2622 11.4617 88.2816 12.4027 91.5629 12.2857C92.8763 12.2388 93.2689 11.8503 92.6239 10.6002C91.7685 8.93819 90.9739 7.24339 90.198 5.53922C89.4361 3.86783 89.6371 2.30412 91.0347 1.06813C92.4182 -0.153808 93.9981 -0.23808 95.5686 0.735728C97.6392 2.01853 99.9482 2.25262 102.29 2.39307C109.254 2.81443 116.083 1.57377 122.959 0.773182C135.383 -0.678166 147.676 -0.453442 159.426 4.67778C162.011 5.80609 164.437 7.20594 166.638 8.95224C167.583 9.70132 168.429 9.97754 169.616 9.47659C184.12 3.35284 196.87 11.2088 203.255 22.7869C204.424 24.9077 205.387 27.1315 206.027 29.4724C206.724 32.0146 205.84 33.9061 203.732 34.6224C201.704 35.3059 199.787 34.2244 198.964 31.6916C197.254 26.434 194.463 21.9441 190.051 18.5545C185.723 15.2258 180.89 14.1115 175.524 15.2867C174.019 15.6144 173.495 16.1247 174.458 17.6182C175.169 18.7184 175.767 19.9497 176.131 21.2044C176.702 23.1895 175.916 24.7392 174.052 25.6287C172.327 26.4527 170.34 25.8909 169.471 24.065C164.362 13.3765 154.822 9.78559 144.109 8.22188C134.378 6.8033 124.707 7.95502 115.055 9.31741C111.124 9.87454 107.165 10.2069 103.187 10.0197C101.486 9.94009 100.626 10.0852 101.626 12.1312C103.038 15.0151 102.309 16.7942 99.3546 18.1332C94.76 20.2166 89.9924 20.3243 85.2061 18.9946C83.514 18.5265 82.7942 18.8027 82.6353 20.652C82.3689 23.77 82.3175 26.8694 82.6821 29.9827C82.8971 31.8274 82.3268 33.3864 80.6488 34.3696C79.3775 35.1186 78.1014 34.9782 76.9049 34.1682C75.7036 33.3583 75.2269 32.1457 75.2082 30.7506C75.1801 28.6578 75.2035 26.551 75.2035 24.4489Z" fill="white"/>
</g>
<defs>
<filter id="filter0_d_110_111" x="0" y="0" width="256.784" height="249.493" filterUnits="userSpaceOnUse" color-interpolation-filters="sRGB">
<feFlood flood-opacity="0" result="BackgroundImageFix"/>
<feColorMatrix in="SourceAlpha" type="matrix" values="0 0 0 0 0 0 0 0 0 0 0 0 0 0 0 0 0 0 127 0" result="hardAlpha"/>
<feOffset dx="-17" dy="21"/>
<feGaussianBlur stdDeviation="8.5"/>
<feComposite in2="hardAlpha" operator="out"/>
<feColorMatrix type="matrix" values="0 0 0 0 0 0 0 0 0 0 0 0 0 0 0 0 0 0 0.35 0"/>
<feBlend mode="normal" in2="BackgroundImageFix" result="effect1_dropShadow_110_111"/>
<feBlend mode="normal" in="SourceGraphic" in2="effect1_dropShadow_110_111" result="shape"/>
</filter>
</defs>
</svg>
