<svg width="1924" height="554" viewBox="0 0 1924 554" fill="none" xmlns="http://www.w3.org/2000/svg">
<path opacity="0.85" fill-rule="evenodd" clip-rule="evenodd" d="M-21.8662 405.561C-21.8662 405.561 34.1214 99.9984 175.432 58.1962C316.743 16.3941 492.919 285.958 554.876 287.276C616.856 288.594 660.026 152.436 721.451 143.858C782.875 135.281 848.256 235.208 896.054 235.462C943.851 235.694 953.476 178.077 992.459 177.106C1031.44 176.135 1041.04 233.127 1073.04 237.913C1105.04 242.699 1130.76 27.9544 1284.96 2.6604C1439.16 -22.6567 1445.52 294.42 1535.33 299.114C1571.68 301.009 1682.01 138.356 1826.74 120.899C1971.48 103.443 2057.87 455.64 2057.87 455.64V553.071C2057.87 553.071 1708.66 342.788 984.361 342.788C260.062 342.788 -21.8662 509.951 -21.8662 509.951V405.561Z" fill="url(#paint0_linear_301_34)"/>
<path d="M2056.76 455.918C2056.55 455.039 2034.73 366.973 1995.54 282.166C1959.49 204.18 1900.94 113.085 1826.91 122.032C1733.97 133.246 1656.63 206.515 1605.45 254.999C1576.05 282.86 1554.76 303.113 1541.37 302.304C1498.18 300.062 1472.8 237.821 1445.96 171.927C1411.14 86.4497 1371.62 -10.4028 1285.14 3.79333C1182.17 20.6945 1135.94 124.553 1108.32 186.632C1093.81 219.232 1084.28 240.803 1072.85 239.069C1057.75 236.803 1047.8 223.671 1037.27 209.775C1025.36 194.03 1012.98 177.684 992.482 178.262C974.621 178.701 963.007 191.487 950.699 205.012C936.563 220.55 921.942 236.642 896.354 236.642C896.262 236.642 896.146 236.642 896.053 236.642C874.237 236.526 849.065 216.226 822.437 194.747C789.307 168.019 755.043 140.367 721.636 145.037C692.439 149.107 666.782 183.348 641.981 216.457C615.444 251.855 588.029 288.478 555.778 288.478C555.477 288.478 555.177 288.478 554.876 288.478C531.879 287.993 494.955 252.71 448.222 208.064C370.903 134.171 264.989 32.9485 175.756 59.3523C103.227 80.762 53.6707 173.73 24.8903 247.948C-6.36565 328.523 -20.5939 405.006 -20.7327 405.769L-23 405.353C-22.8612 404.59 -8.60979 327.922 22.7155 247.138C51.7042 172.435 101.653 78.8199 175.108 57.0865C265.637 30.3127 367.757 127.905 449.818 206.33C494.354 248.895 532.805 285.634 554.922 286.097C555.2 286.097 555.477 286.097 555.778 286.097C586.849 286.097 613.94 249.959 640.13 215.001C665.232 181.522 691.166 146.887 721.312 142.679C755.714 137.893 790.371 165.846 823.894 192.874C850.222 214.099 875.07 234.144 896.077 234.26C896.169 234.26 896.262 234.26 896.354 234.26C920.947 234.26 935.198 218.561 948.987 203.394C961.619 189.498 973.557 176.366 992.412 175.88C1014.16 175.302 1026.84 192.088 1039.1 208.296C1049.33 221.798 1059 234.561 1073.18 236.688C1082.73 238.144 1092.61 216.11 1106.17 185.614C1133.98 123.119 1180.53 18.5443 1284.73 1.43502C1373.04 -13.0385 1412.92 84.7156 1448.06 170.979C1474.62 236.179 1499.73 297.749 1541.46 299.923C1541.65 299.923 1541.83 299.946 1542.04 299.946C1554.56 299.946 1576.35 279.299 1603.83 253.265C1655.22 204.573 1732.91 130.98 1826.6 119.674C1860.01 115.651 1893.03 130.888 1924.77 164.967C1950.03 192.111 1974.53 231.185 1997.65 281.149C2036.93 366.14 2058.79 454.392 2059 455.294L2056.76 455.918Z" fill="url(#paint1_radial_301_34)"/>
<defs>
<linearGradient id="paint0_linear_301_34" x1="1018.01" y1="373.071" x2="1018.01" y2="-192.929" gradientUnits="userSpaceOnUse">
<stop stop-color="#010E16"/>
<stop offset="0.9581" stop-color="#0C2B32"/>
</linearGradient>
<radialGradient id="paint1_radial_301_34" cx="0" cy="0" r="1" gradientUnits="userSpaceOnUse" gradientTransform="translate(1018 227.991) scale(753.521 753.796)">
<stop stop-color="#5DFFE8"/>
<stop offset="1" stop-color="#113739"/>
</radialGradient>
</defs>
</svg>
