<svg width="58" height="58" viewBox="0 0 58 58" fill="none" xmlns="http://www.w3.org/2000/svg">
<path d="M29.2156 55.4898C35.4928 55.4898 40.5815 43.5623 40.5815 28.8489C40.5815 14.1356 35.4928 2.20813 29.2156 2.20813C22.9383 2.20813 17.8496 14.1356 17.8496 28.8489C17.8496 43.5623 22.9383 55.4898 29.2156 55.4898Z" stroke="white" stroke-width="3.82943" stroke-miterlimit="10" stroke-linecap="round" stroke-linejoin="round"/>
<path d="M4.37793 19.9486H54.0513" stroke="white" stroke-width="3.82943" stroke-miterlimit="10" stroke-linecap="round" stroke-linejoin="round"/>
<path d="M46.3538 37.7493H4.37793" stroke="white" stroke-width="3.82943" stroke-miterlimit="10" stroke-linecap="round" stroke-linejoin="round"/>
<path d="M29.215 55.4898C43.9283 55.4898 55.8559 43.5623 55.8559 28.8489C55.8559 14.1356 43.9283 2.20813 29.215 2.20813C14.5017 2.20813 2.57422 14.1356 2.57422 28.8489C2.57422 43.5623 14.5017 55.4898 29.215 55.4898Z" stroke="white" stroke-width="3.82943" stroke-miterlimit="10" stroke-linecap="round" stroke-linejoin="round"/>
</svg>
