<svg width="53" height="53" viewBox="0 0 53 53" fill="none" xmlns="http://www.w3.org/2000/svg">
<path d="M36.04 35.6888C34.2123 37.6041 31.8518 38.9267 29.2641 39.4854C26.6763 40.0441 23.9805 39.8133 21.5254 38.8227C19.0703 37.8321 16.9691 36.1274 15.4937 33.9292C14.0183 31.7311 13.2367 29.1407 13.25 26.4933C13.25 22.9792 14.646 19.609 17.1308 17.1242C19.6157 14.6393 22.9859 13.2433 26.5 13.2433C30.0141 13.2433 33.3843 14.6393 35.8691 17.1242C38.354 19.609 39.75 22.9792 39.75 26.4933V30.4683C39.75 31.5226 40.1688 32.5336 40.9142 33.2791C41.6597 34.0245 42.6707 34.4433 43.725 34.4433C44.7792 34.4433 45.7903 34.0245 46.5357 33.2791C47.2812 32.5336 47.7 31.5226 47.7 30.4683V26.4933C47.6952 21.9463 46.2286 17.5213 43.5167 13.8715C40.8048 10.2217 36.9913 7.54056 32.6391 6.22383C28.287 4.90709 23.6267 5.02455 19.3464 6.55887C15.0661 8.09319 11.3925 10.9631 8.86788 14.7448C6.3433 18.5266 5.10151 23.0199 5.32583 27.5614C5.55016 32.1028 7.22871 36.4519 10.1137 39.9664C12.9987 43.481 16.9372 45.9749 21.3479 47.0799C25.7586 48.1849 30.4077 47.8425 34.609 46.1033C34.9339 45.9384 35.2893 45.8422 35.6531 45.8209C36.0168 45.7995 36.3811 45.8534 36.723 45.9791C37.065 46.1049 37.3774 46.2998 37.6406 46.5518C37.9039 46.8037 38.1124 47.1072 38.253 47.4433C38.3937 47.7794 38.4635 48.141 38.4582 48.5053C38.4528 48.8696 38.3724 49.2289 38.2219 49.5608C38.0714 49.8926 37.8541 50.1899 37.5835 50.4339C37.313 50.678 36.995 50.8637 36.6495 50.9793C31.3977 53.1568 25.5849 53.5875 20.0695 52.2079C14.5542 50.8284 9.62872 47.7116 6.02061 43.318C2.4125 38.9243 0.313051 33.4868 0.0323354 27.8085C-0.24838 22.1301 1.30452 16.512 4.46169 11.7839C7.61886 7.05586 12.2129 3.46848 17.5653 1.55164C22.9177 -0.365208 28.7446 -0.509885 34.1856 1.13897C39.6265 2.78783 44.3929 6.1428 47.7808 10.7084C51.1687 15.2739 52.9985 20.808 53 26.4933V30.4683C53.0059 32.4564 52.3729 34.3937 51.1942 35.9947C50.0156 37.5957 48.3537 38.7756 46.4536 39.3605C44.5535 39.9454 42.5158 39.9042 40.6409 39.2432C38.7659 38.5821 37.153 37.3361 36.04 35.6888ZM26.5 34.4433C28.6085 34.4433 30.6306 33.6057 32.1215 32.1148C33.6124 30.6239 34.45 28.6018 34.45 26.4933C34.45 24.3849 33.6124 22.3627 32.1215 20.8718C30.6306 19.3809 28.6085 18.5433 26.5 18.5433C24.3915 18.5433 22.3694 19.3809 20.8785 20.8718C19.3876 22.3627 18.55 24.3849 18.55 26.4933C18.55 28.6018 19.3876 30.6239 20.8785 32.1148C22.3694 33.6057 24.3915 34.4433 26.5 34.4433Z" fill="white"/>
</svg>
