<svg width="66" height="68" viewBox="0 0 66 68" fill="none" xmlns="http://www.w3.org/2000/svg">
<path d="M10.5298 47.4975C10.3444 47.4975 10.2144 47.4975 10.0843 47.4975C8.46732 47.4975 6.85036 47.4983 5.23411 47.4975C2.34873 47.4953 0.00377292 45.0595 0.00161696 42.0589C-0.000538988 38.9955 -0.000538988 35.9328 0.00161696 32.8695C0.00377292 29.8972 2.33723 27.451 5.20033 27.4189C5.7961 27.4121 6.39186 27.4181 7.02714 27.4181C7.02714 27.2224 7.02355 27.064 7.02786 26.9063C7.06811 25.3522 7.03433 23.7914 7.16656 22.2462C7.40659 19.4339 8.27616 16.7964 9.60135 14.3464C13.6509 6.85303 19.7077 2.06816 27.8436 0.495373C36.389 -1.15587 43.8968 1.36134 50.2863 7.4433C53.3197 10.3311 55.5483 13.8092 56.9044 17.8648C57.6043 19.9599 57.9895 22.114 57.9773 24.3383C57.9716 25.3447 57.9766 26.3512 57.9766 27.4181C58.2676 27.4181 58.5256 27.4211 58.7829 27.4174C59.7423 27.4039 60.6924 27.4151 61.6137 27.7753C63.6151 28.5583 65.0014 30.5951 65.0028 32.8089C65.005 35.9216 65.0071 39.0343 65.0021 42.1478C64.9978 45.0326 62.6406 47.4871 59.8717 47.4975C59.2968 47.4998 58.7218 47.508 58.1469 47.493C57.9191 47.4871 57.8386 47.5648 57.8091 47.8024C57.3363 51.6578 55.7883 54.9872 53.1976 57.7778C50.0456 61.1737 46.1591 63.0626 41.6913 63.7171C41.2773 63.7776 40.8605 63.8306 40.443 63.8531C40.208 63.8658 40.0879 63.9524 39.9931 64.1803C39.209 66.0744 37.8501 67.2863 35.8745 67.5284C34.5543 67.6905 33.1968 67.763 31.8802 67.376C29.7638 66.7543 27.8924 64.5479 28.1433 61.5353C28.3394 59.181 30.2697 57.0112 32.6169 56.7318C34.0268 56.5637 35.4685 56.474 36.8497 56.9649C38.3078 57.4834 39.3348 58.5183 39.9579 59.9805C40.0369 60.1658 40.1138 60.2569 40.3229 60.2345C45.4742 59.6951 49.7071 57.5029 52.5278 52.8323C53.8027 50.7216 54.4315 48.3807 54.4408 45.8911C54.4681 38.5704 54.4868 31.2488 54.461 23.9281C54.4502 20.8587 53.5267 18.0202 52.0262 15.4081C48.4825 9.23277 43.3032 5.33703 36.5019 4.05414C29.1336 2.6644 22.642 4.8028 17.1184 10.0278C14.1899 12.7975 12.1202 16.165 11.0674 20.1638C10.7088 21.5252 10.5277 22.9142 10.5284 24.3286C10.5313 31.8742 10.5298 39.4199 10.5298 46.9655C10.5298 47.1254 10.5298 47.2853 10.5298 47.4975ZM58.0017 31.0673C58.0017 35.356 58.0017 39.5925 58.0017 43.8723C58.5271 43.8723 59.0273 43.8745 59.5267 43.8715C60.8174 43.864 61.5131 43.1378 61.5152 41.7862C61.5188 39.6336 61.5174 37.481 61.5152 35.3284C61.5145 34.4826 61.5289 33.6353 61.4973 32.791C61.4628 31.8884 60.8016 31.1495 59.9385 31.0777C59.3104 31.0254 58.6737 31.0673 58.0017 31.0673ZM7.00559 31.0598C6.43857 31.0598 5.89096 31.0583 5.34406 31.0606C4.27902 31.065 3.49498 31.8466 3.49067 32.9554C3.47989 35.9672 3.4806 38.9791 3.49067 41.9909C3.49354 42.8942 4.04546 43.6817 4.86329 43.7998C5.5611 43.9007 6.28334 43.8207 7.00559 43.8207C7.00559 39.5805 7.00559 35.3426 7.00559 31.0598ZM34.2561 63.9696C34.2561 63.9659 34.2561 63.9621 34.2561 63.9584C34.591 63.9584 34.9266 63.9763 35.2601 63.9547C36.1605 63.8979 36.8727 63.1373 36.9144 62.2085C36.9546 61.3082 36.3143 60.4422 35.4354 60.3473C34.7024 60.2674 33.9521 60.2569 33.2184 60.3212C32.2173 60.4086 31.5949 61.2275 31.6366 62.2653C31.674 63.203 32.4214 63.9293 33.3966 63.9681C33.6812 63.9793 33.9686 63.9696 34.2561 63.9696Z" fill="white"/>
<path d="M18.9406 53.9689C21.0635 55.8913 18.5303 53.8996 22.8264 56.9218C23.591 57.3238 24.337 57.6651 25.0772 58.0536C25.5623 56.9202 26.028 55.8323 26.5023 54.7235C26.3312 54.6361 26.1832 54.5584 26.0337 54.4844C23.1706 53.0633 20.687 51.1379 18.743 48.5093C16.7761 45.8501 15.7103 42.8697 15.7836 39.4783C15.8181 37.91 15.7441 36.3387 15.8066 34.7726C15.844 33.8364 15.9532 32.8793 16.1975 31.9805C17.0211 28.9552 18.84 26.6629 21.2928 24.8951C21.9755 24.4027 22.7258 24.0112 23.4645 23.5614C23.4466 23.5053 23.425 23.4231 23.3941 23.3447C22.9874 22.3248 22.5784 21.3057 22.1523 20.2424C21.6967 20.4748 21.2554 20.6653 20.8465 20.9134C15.4121 24.2099 12.1983 28.9014 12.2859 35.6662C12.3039 37.0724 12.2838 38.4801 12.2895 39.887C12.2974 41.8431 12.5935 43.7469 13.2446 45.5879C14.4203 48.9128 16.3887 51.6579 18.9406 53.9689Z" fill="white"/>
<path d="M21.0273 12.8256C22.2347 12.8256 23.3112 12.8219 24.387 12.8339C24.4575 12.8346 24.5825 12.9504 24.5883 13.0206C24.7945 15.558 26.0636 17.5911 27.4916 19.527C30.1427 23.1201 33.4176 26.0169 37.0051 28.5461C40.1686 30.7756 43.5211 32.6174 47.1927 33.786C48.9735 34.3531 50.7881 34.7065 52.6789 34.7438C52.6789 35.9453 52.6789 37.1333 52.6789 38.3818C52.1255 38.3467 51.5721 38.3108 50.9634 38.272C50.9634 38.4819 50.9613 38.6762 50.9634 38.8705C50.9893 41.2039 50.8679 43.5208 50.2628 45.7848C49.1402 49.9868 46.934 53.4089 43.4995 55.947C43.3932 56.0255 43.284 56.0979 43.1323 56.2033C42.4877 55.1991 41.8531 54.2113 41.2027 53.1982C41.5268 52.9411 41.8438 52.7028 42.147 52.4465C44.9397 50.0929 46.5409 47.0213 47.1934 43.3789C47.5269 41.5177 47.4528 39.6356 47.4651 37.7579C47.4665 37.5353 47.3673 37.462 47.1848 37.4045C41.5772 35.6285 36.5452 32.7056 31.8905 29.0497C28.9835 26.7663 26.3346 24.1998 24.1844 21.1185C22.9109 19.2931 21.8588 17.3468 21.3709 15.1262C21.2099 14.3954 21.1459 13.6408 21.0273 12.8256Z" fill="white"/>
</svg>
