<?xml version="1.0" encoding="utf-8"?>
<!-- Generator: Adobe Illustrator 26.0.3, SVG Export Plug-In . SVG Version: 6.00 Build 0)  -->
<svg version="1.1" id="Capa_1" xmlns="http://www.w3.org/2000/svg" xmlns:xlink="http://www.w3.org/1999/xlink" x="0px" y="0px"
	 viewBox="0 0 94.9 94.9" style="enable-background:new 0 0 94.9 94.9;" xml:space="preserve">
<style type="text/css">
	.st0{fill:#010F16;}
	.st1{fill:#FFFFFF;}
</style>
<rect class="st0" width="94.9" height="94.9"/>
<g>
	<path class="st1" d="M54.2,47.5l31-31c0.6-0.6,0.6-1.8,0-2.4l-4.4-4.4c-0.3-0.3-0.7-0.5-1.2-0.5c-0.5,0-0.9,0.2-1.2,0.5l-30.9,31
		l-31-31C15.8,9,14.7,9,14,9.6l-4.4,4.4c-0.6,0.6-0.6,1.8,0,2.4l31,31l-31,30.9c-0.6,0.6-0.6,1.8,0,2.4l4.4,4.4
		c0.3,0.3,0.7,0.5,1.2,0.5s0.9-0.2,1.2-0.5l31-31l31,31c0.3,0.3,0.7,0.5,1.2,0.5s0.9-0.2,1.2-0.5l4.4-4.4c0.6-0.6,0.6-1.8,0-2.4
		L54.2,47.5z"/>
</g>
</svg>
