<svg width="11" height="37" viewBox="0 0 11 37" fill="none" xmlns="http://www.w3.org/2000/svg">
<path d="M0.210938 2.31641L0.685547 0.927734C2.20898 1.37305 3.39844 2.00586 4.25391 2.82617C5.12109 3.63477 5.73047 4.57813 6.08203 5.65625C6.43359 6.72266 6.60938 7.87109 6.60938 9.10156V13.0918C6.60938 14.0059 6.75 14.8027 7.03125 15.4824C7.3125 16.1621 7.75195 16.6895 8.34961 17.0645C8.94727 17.4277 9.7207 17.6094 10.6699 17.6094V18.9805C9.20508 18.9805 8.02148 18.7227 7.11914 18.207C6.2168 17.6914 5.55469 16.9883 5.13281 16.0977C4.72266 15.207 4.51758 14.2051 4.51758 13.0918V9.10156C4.51758 8.03516 4.37695 7.05078 4.0957 6.14844C3.81445 5.24609 3.35742 4.4668 2.72461 3.81055C2.10352 3.14258 1.26562 2.64453 0.210938 2.31641ZM0.685547 36.1016L0.175781 34.6777C1.20703 34.3379 2.03906 33.8457 2.67188 33.2012C3.31641 32.5566 3.78516 31.7891 4.07812 30.8984C4.37109 30.0078 4.51758 29.0293 4.51758 27.9629V23.9902C4.51758 22.877 4.72266 21.875 5.13281 20.9844C5.55469 20.0938 6.2168 19.3906 7.11914 18.875C8.02148 18.3594 9.20508 18.1016 10.6699 18.1016V19.4551C9.24023 19.4551 8.20312 19.8652 7.55859 20.6855C6.92578 21.5059 6.60938 22.6074 6.60938 23.9902V27.9629C6.60938 29.1934 6.43359 30.3418 6.08203 31.4082C5.73047 32.4746 5.12109 33.4062 4.25391 34.2031C3.39844 35.0117 2.20898 35.6445 0.685547 36.1016Z" fill="#1D7165"/>
</svg>
