<svg width="11" height="37" viewBox="0 0 11 37" fill="none" xmlns="http://www.w3.org/2000/svg">
<path d="M10.1973 0.927734L10.6719 2.31641C9.10156 2.80859 7.98828 3.66406 7.33203 4.88281C6.6875 6.10156 6.36523 7.50781 6.36523 9.10156V13.0918C6.36523 14.2051 6.1543 15.2129 5.73242 16.1152C5.32227 17.0176 4.66602 17.7324 3.76367 18.2598C2.86133 18.7871 1.67773 19.0508 0.212891 19.0508V17.6094C1.6543 17.6094 2.69141 17.2051 3.32422 16.3965C3.95703 15.5762 4.27344 14.4746 4.27344 13.0918V9.10156C4.27344 7.87109 4.44922 6.72266 4.80078 5.65625C5.16406 4.57813 5.77344 3.63477 6.62891 2.82617C7.49609 2.00586 8.68555 1.37305 10.1973 0.927734ZM10.707 34.6777L10.1973 36.1016C8.68555 35.6445 7.49609 35.0117 6.62891 34.2031C5.77344 33.4062 5.16406 32.4746 4.80078 31.4082C4.44922 30.3418 4.27344 29.1934 4.27344 27.9629V23.9902C4.27344 23.0645 4.13281 22.2676 3.85156 21.5996C3.57031 20.9199 3.13086 20.3926 2.5332 20.0176C1.94727 19.6426 1.17383 19.4551 0.212891 19.4551V18.0137C1.67773 18.0137 2.86133 18.2832 3.76367 18.8223C4.66602 19.3496 5.32227 20.0645 5.73242 20.9668C6.1543 21.8691 6.36523 22.877 6.36523 23.9902V27.9629C6.36523 29.0293 6.51172 30.0078 6.80469 30.8984C7.09766 31.7891 7.56055 32.5566 8.19336 33.2012C8.83789 33.8457 9.67578 34.3379 10.707 34.6777Z" fill="#1D7165"/>
</svg>
