<svg width="154" height="81" viewBox="0 0 154 81" fill="none" xmlns="http://www.w3.org/2000/svg">
<path d="M4.30127 76.8208V80.3852H0V49.1243H4.44602V61.2423H4.58664C5.33937 60.1331 6.394 59.1901 7.74642 58.4174C9.09884 57.6405 10.7035 57.2542 12.5564 57.2542C14.2231 57.2542 15.741 57.5574 17.11 58.1557C18.4789 58.758 19.6576 59.5972 20.6461 60.6731C21.6346 61.7491 22.3997 63.0078 22.9332 64.4494C23.4667 65.8909 23.7356 67.4363 23.7356 69.0814C23.7356 70.7265 23.4667 72.2802 22.9332 73.7342C22.3997 75.1923 21.6428 76.4594 20.6709 77.5353C19.6949 78.6113 18.5161 79.4588 17.1348 80.0736C15.7493 80.6926 14.1942 81 12.4654 81C10.8607 81 9.33458 80.6427 7.89118 79.9323C6.44363 79.2178 5.28146 78.1834 4.40053 76.8208H4.30127ZM19.1986 69.1022C19.1986 68.0594 19.0414 67.0499 18.7271 66.0695C18.4127 65.0933 17.9371 64.225 17.3085 63.4648C16.6757 62.7087 15.8982 62.1064 14.9676 61.666C14.037 61.2257 12.9576 61.0013 11.7292 61.0013C10.596 61.0013 9.56206 61.2215 8.63149 61.666C7.70093 62.1064 6.90685 62.7087 6.24511 63.4648C5.58338 64.2209 5.07054 65.0933 4.70658 66.0695C4.34263 67.0499 4.16479 68.0761 4.16479 69.1479C4.16479 70.2238 4.34677 71.2499 4.70658 72.2262C5.07054 73.2066 5.57924 74.0665 6.24511 74.806C6.90685 75.5496 7.70507 76.1395 8.63149 76.584C9.56206 77.0244 10.5919 77.2487 11.7292 77.2487C12.9576 77.2487 14.037 77.0202 14.9676 76.5632C15.8982 76.1063 16.6757 75.4956 17.3085 74.7395C17.9371 73.9834 18.4127 73.111 18.7271 72.1348C19.0414 71.1544 19.1986 70.1449 19.1986 69.1022Z" fill="white"/>
<path d="M42.2061 65.7995C42.2061 64.1212 41.7015 62.879 40.6924 62.069C39.6832 61.263 38.3432 60.8559 36.6723 60.8559C35.4109 60.8559 34.2198 61.101 33.1031 61.5912C31.9823 62.0814 31.0476 62.7087 30.2907 63.4689L27.925 60.6191C29.0293 59.5764 30.3776 58.7497 31.9699 58.1473C33.5622 57.545 35.2703 57.2458 37.1025 57.2458C38.7113 57.2458 40.1051 57.4743 41.2879 57.9355C42.4708 58.3966 43.4386 59.0197 44.1954 59.8132C44.9523 60.6067 45.5189 61.5414 45.8994 62.6173C46.2799 63.6933 46.466 64.8482 46.466 66.0861V75.9193C46.466 76.6795 46.4908 77.4813 46.5363 78.3163C46.5818 79.1555 46.6686 79.8451 46.7969 80.381H42.7768C42.5245 79.305 42.3963 78.2291 42.3963 77.149H42.2557C41.4368 78.3537 40.4029 79.2884 39.158 79.9531C37.9131 80.6178 36.4407 80.9501 34.7368 80.9501C33.8558 80.9501 32.9335 80.8296 31.9699 80.5928C31.0062 80.3561 30.1336 79.9697 29.3436 79.4297C28.5537 78.8938 27.9002 78.1792 27.3832 77.2902C26.8621 76.4053 26.6016 75.3128 26.6016 74.0125C26.6016 72.3009 27.0565 70.9508 27.9705 69.9496C28.8845 68.9526 30.0839 68.1924 31.5646 67.6689C33.0452 67.1455 34.7161 66.8048 36.5772 66.647C38.4383 66.4891 40.3119 66.4102 42.2061 66.4102V65.7995ZM41.1184 69.6463C40.0141 69.6463 38.8726 69.692 37.6897 69.7876C36.5069 69.8831 35.4357 70.0742 34.4762 70.3567C33.5125 70.6434 32.7185 71.0713 32.0898 71.6404C31.457 72.2095 31.1427 72.9698 31.1427 73.9211C31.1427 74.5858 31.2751 75.1383 31.5439 75.5828C31.8127 76.0273 32.1643 76.3887 32.6068 76.6754C33.0493 76.962 33.5374 77.1573 34.0709 77.2694C34.6044 77.3816 35.1586 77.4356 35.7252 77.4356C37.8055 77.4356 39.4061 76.8125 40.5269 75.5579C41.6436 74.3074 42.2061 72.733 42.2061 70.8345V69.6463H41.1184Z" fill="white"/>
<path d="M55.7716 57.869C55.8336 58.4381 55.8832 59.082 55.9122 59.7924C55.9453 60.5028 55.9618 61.0969 55.9618 61.5746H56.1024C56.3878 60.9722 56.7724 60.4114 57.2605 59.888C57.7485 59.3645 58.3068 58.9076 58.9396 58.5087C59.5683 58.1141 60.2631 57.8067 61.02 57.5823C61.7768 57.3622 62.5626 57.25 63.3857 57.25C64.8373 57.25 66.0822 57.4951 67.1203 57.9853C68.1584 58.4755 69.0269 59.136 69.7218 59.9586C70.4124 60.7811 70.9253 61.7491 71.2603 62.8541C71.5912 63.9633 71.7566 65.1514 71.7566 66.4185V80.381H67.3106V67.8891C67.3106 66.971 67.2403 66.1028 67.0996 65.2761C66.959 64.4535 66.6985 63.7265 66.318 63.0909C65.9375 62.4595 65.4205 61.9526 64.7588 61.5704C64.097 61.1883 63.245 61.0013 62.2069 61.0013C60.4409 61.0013 58.9975 61.6743 57.8809 63.0203C56.76 64.3663 56.2017 66.1651 56.2017 68.4125V80.381H51.7557V62.7129C51.7557 62.1105 51.7391 61.3336 51.706 60.3865C51.673 59.4351 51.6275 58.6001 51.5654 57.869H55.7716Z" fill="white"/>
<path d="M87.4275 80.3809H82.6051L73.4814 57.8689H78.399L84.9708 75.5869H85.0659L91.6874 57.8689H96.4147L87.4275 80.3809Z" fill="white"/>
<path d="M119.426 68.936C119.426 69.1894 119.426 69.4428 119.426 69.6962C119.426 69.9496 119.41 70.203 119.381 70.4564H101.555C101.584 71.3995 101.799 72.2885 102.192 73.1235C102.585 73.9585 103.115 74.6813 103.776 75.292C104.438 75.9068 105.203 76.3846 106.072 76.7294C106.936 77.0742 107.858 77.2487 108.839 77.2487C110.352 77.2487 111.659 76.9163 112.763 76.2516C113.868 75.587 114.732 74.781 115.365 73.8297L118.487 76.3472C117.288 77.9424 115.878 79.1181 114.257 79.87C112.631 80.6219 110.828 81 108.843 81C107.139 81 105.563 80.7133 104.115 80.1442C102.664 79.5751 101.419 78.7774 100.381 77.7472C99.3385 76.7169 98.5196 75.4748 97.9199 74.0166C97.3202 72.5626 97.0225 70.9466 97.0225 69.1728C97.0225 67.4321 97.3161 65.8244 97.8993 64.3496C98.4824 62.879 99.2972 61.6203 100.339 60.5734C101.382 59.5265 102.614 58.7123 104.037 58.1266C105.46 57.5408 106.99 57.2458 108.632 57.2458C110.274 57.2458 111.767 57.5159 113.111 58.0518C114.455 58.5918 115.592 59.3687 116.523 60.3782C117.453 61.3918 118.173 62.6215 118.678 64.0589C119.174 65.5087 119.426 67.1289 119.426 68.936ZM114.889 67.1289C114.856 66.244 114.707 65.4131 114.438 64.6363C114.17 63.8594 113.777 63.1865 113.256 62.6173C112.735 62.0482 112.089 61.5954 111.316 61.263C110.543 60.9307 109.637 60.7645 108.599 60.7645C107.652 60.7645 106.762 60.9307 105.927 61.263C105.091 61.5954 104.368 62.0482 103.751 62.6173C103.135 63.1865 102.631 63.8594 102.238 64.6363C101.845 65.4131 101.613 66.244 101.551 67.1289H114.889Z" fill="white"/>
<path d="M136.156 63.5687C135.651 62.7461 134.944 62.0731 134.03 61.5497C133.116 61.0262 132.09 60.7645 130.957 60.7645C130.453 60.7645 129.948 60.8185 129.444 60.9307C128.939 61.0429 128.488 61.2173 128.095 61.4541C127.702 61.6909 127.384 61.99 127.148 62.3556C126.912 62.7212 126.792 63.1698 126.792 63.7099C126.792 64.6612 127.218 65.3633 128.07 65.8244C128.922 66.2855 130.2 66.7051 131.9 67.0832C132.971 67.3366 133.964 67.6357 134.878 67.9846C135.792 68.3336 136.586 68.7698 137.264 69.2891C137.943 69.8125 138.472 70.4357 138.848 71.1668C139.225 71.8938 139.415 72.7496 139.415 73.73C139.415 75.0594 139.163 76.1852 138.658 77.1033C138.154 78.0214 137.484 78.7733 136.648 79.359C135.813 79.9448 134.857 80.3644 133.786 80.6178C132.715 80.8712 131.611 80.9958 130.477 80.9958C128.774 80.9958 127.111 80.6635 125.49 79.9988C123.868 79.3341 122.52 78.3205 121.445 76.9579L124.613 74.2493C125.213 75.1341 126.04 75.8819 127.094 76.4801C128.149 77.0825 129.311 77.3816 130.568 77.3816C131.135 77.3816 131.681 77.3276 132.202 77.2154C132.719 77.1074 133.195 76.9246 133.621 76.6712C134.047 76.4178 134.386 76.0855 134.638 75.6742C134.89 75.2629 135.014 74.7395 135.014 74.108C135.014 73.0612 134.518 72.2885 133.526 71.7816C132.533 71.2748 131.073 70.8012 129.15 70.3567C128.393 70.1656 127.628 69.9371 126.854 69.6671C126.081 69.3971 125.382 69.0274 124.749 68.5496C124.117 68.076 123.608 67.482 123.211 66.7674C122.818 66.0529 122.619 65.1764 122.619 64.1295C122.619 62.9247 122.863 61.8903 123.351 61.0179C123.839 60.1497 124.476 59.4352 125.266 58.8826C126.052 58.3301 126.954 57.9147 127.963 57.6488C128.972 57.3788 130.01 57.2458 131.085 57.2458C132.694 57.2458 134.245 57.5616 135.742 58.1972C137.24 58.8328 138.398 59.7467 139.216 60.9515L136.156 63.5687Z" fill="white"/>
<path d="M152.344 61.5247H147.939V73.219C147.939 74.5775 148.191 75.5454 148.696 76.1312C149.201 76.7169 150.003 77.0077 151.107 77.0077C151.517 77.0077 151.959 76.9662 152.431 76.8789C152.902 76.7917 153.328 76.6629 153.709 76.4884L153.849 80.1442C153.312 80.3353 152.72 80.4848 152.075 80.597C151.43 80.7092 150.76 80.7632 150.065 80.7632C147.952 80.7632 146.339 80.1774 145.218 79.0059C144.097 77.8344 143.539 76.0772 143.539 73.7342V61.5247V57.8648V53.5859H147.935V57.8648H152.34V61.5247H152.344Z" fill="white"/>
<path d="M107.656 8.91504L84.6772 40.1925L89.8843 40.2216L112.871 8.91504H107.656Z" fill="white"/>
<path d="M49.8701 8.93164V13.3975H76.5463V40.1925H80.9923V8.93164H49.8701Z" fill="#4495D1"/>
<path d="M45.4241 35.7267V0H40.978V40.1926H72.1002V35.7267H45.4241Z" fill="white"/>
</svg>
