<svg width="225" height="38" viewBox="0 0 225 38" fill="none" xmlns="http://www.w3.org/2000/svg">
<path d="M9.95703 8.22736H18.3535C20.6371 8.22736 22.6011 8.63614 24.2457 9.45371C25.8949 10.2713 27.1541 11.4553 28.0328 13.0059C28.9114 14.5565 29.3484 16.3936 29.3484 18.5174C29.3484 20.6647 28.9161 22.5113 28.0469 24.0618C27.1776 25.6124 25.9231 26.7965 24.2739 27.614C22.6246 28.4316 20.6512 28.8404 18.3488 28.8404H9.95703V8.22736ZM17.9682 24.5176C19.9981 24.5176 21.5063 24.0196 22.5025 23.0281C23.4986 22.032 23.9919 20.5331 23.9919 18.5221C23.9919 16.5158 23.4939 15.0169 22.5025 14.0302C21.5063 13.0482 19.9981 12.5548 17.9682 12.5548H15.337V24.5176H17.9682Z" fill="white"/>
<path d="M33.2764 28.8451V8.22736H38.6563V28.8498H33.2764V28.8451Z" fill="white"/>
<path d="M60.8716 17.2065V27.5295C59.8003 28.0369 58.5786 28.4269 57.216 28.6994C55.8487 28.9719 54.4579 29.1082 53.0342 29.1082C50.7929 29.1082 48.8477 28.6853 47.1984 27.8349C45.5492 26.9844 44.29 25.7675 43.4113 24.1793C42.5327 22.5912 42.0957 20.7023 42.0957 18.5221C42.0957 16.3983 42.5327 14.533 43.4113 12.9354C44.29 11.3379 45.5304 10.1068 47.1421 9.25167C48.749 8.39181 50.6379 7.96423 52.804 7.96423C54.3028 7.96423 55.7124 8.16158 57.0281 8.55157C58.3437 8.94155 59.4103 9.4772 60.2325 10.1585L58.5645 13.9597C57.6107 13.3348 56.6944 12.8884 55.8158 12.6159C54.9371 12.3434 54.0021 12.2071 53.006 12.2071C51.1547 12.2071 49.7733 12.724 48.8665 13.7577C47.9596 14.7914 47.5086 16.3795 47.5086 18.5268C47.5086 20.7305 47.9831 22.3609 48.9276 23.4275C49.872 24.4894 51.3192 25.0204 53.2691 25.0204C54.2042 25.0204 55.1298 24.9217 56.046 24.7291V20.8996H52.4187V17.2159H60.8716V17.2065Z" fill="white"/>
<path d="M65.8428 28.8451V8.22736H71.2227V28.8498H65.8428V28.8451Z" fill="white"/>
<path d="M81.0805 28.8451V12.583H74.9111V8.22266H92.6956V12.583H86.5262V28.8451H81.0805Z" fill="white"/>
<path d="M107.896 28.8451L106.054 24.574H96.929L95.0872 28.8451H89.6743L99.2972 8.22266H103.568L113.219 28.8451H107.896ZM98.6535 20.5425H104.329L101.491 13.9315L98.6535 20.5425Z" fill="white"/>
<path d="M115.907 28.8451V8.22736H121.287V24.4894H130.06V28.8498H115.907V28.8451Z" fill="white"/>
<path d="M133.776 8.22736H141.938C144.104 8.22736 145.786 8.75361 146.984 9.80611C148.182 10.8586 148.784 12.3528 148.784 14.2792C148.784 16.2104 148.178 17.714 146.97 18.7852C145.763 19.8565 144.085 20.3922 141.938 20.3922H136.177V28.8451H133.781V8.22736H133.776ZM141.703 18.4047C144.842 18.4047 146.411 17.0279 146.411 14.2792C146.411 11.5681 144.842 10.2149 141.703 10.2149H136.173V18.4047H141.703Z" fill="white"/>
<path d="M155.54 27.7926C154.126 26.9374 153.041 25.7158 152.279 24.137C151.518 22.5583 151.138 20.6976 151.138 18.5503C151.138 16.3842 151.514 14.5095 152.265 12.9213C153.017 11.3332 154.098 10.1115 155.512 9.26577C156.926 8.41531 158.599 7.99243 160.53 7.99243C162.461 7.99243 164.134 8.41531 165.548 9.26577C166.963 10.1162 168.043 11.3332 168.795 12.9213C169.547 14.5095 169.923 16.3795 169.923 18.5221C169.923 20.6647 169.542 22.5348 168.781 24.1229C168.02 25.7111 166.935 26.9374 165.52 27.7926C164.106 28.6524 162.443 29.08 160.535 29.08C158.618 29.08 156.955 28.6524 155.54 27.7926ZM165.633 24.8277C166.85 23.3571 167.461 21.2568 167.461 18.5268C167.461 15.7969 166.855 13.7013 165.647 12.24C164.44 10.7787 162.734 10.0457 160.53 10.0457C158.345 10.0457 156.645 10.7834 155.428 12.2541C154.211 13.7248 153.6 15.8204 153.6 18.5268C153.6 21.238 154.211 23.3336 155.428 24.8136C156.645 26.2937 158.345 27.0361 160.53 27.0361C162.715 27.0361 164.416 26.2984 165.633 24.8277Z" fill="white"/>
<path d="M172.963 28.8451V8.22736H175.359V28.8498H172.963V28.8451Z" fill="white"/>
<path d="M193.689 8.22736H195.94V28.8498H194.098L181.665 12.2635V28.8498H179.415V8.22736H181.256L193.689 24.8136V8.22736Z" fill="white"/>
<path d="M205.971 28.8451V10.276H198.801V8.22736H215.59V10.276H208.396V28.8498H205.971V28.8451Z" fill="white"/>
<path d="M0 37.2228V0H7.65882V2.77221H3.11521V34.4553H7.65882V37.2275H0V37.2228Z" fill="#00BBB4"/>
<path d="M217.336 37.2228V34.5399H222.012V2.68294H217.336V0H225V37.2228H217.336Z" fill="#00BBB4"/>
</svg>
