<?xml version="1.0" encoding="utf-8"?>
<!-- Generator: Adobe Illustrator 26.3.1, SVG Export Plug-In . SVG Version: 6.00 Build 0)  -->
<svg version="1.1" id="layer" xmlns="http://www.w3.org/2000/svg" xmlns:xlink="http://www.w3.org/1999/xlink" x="0px" y="0px"
	 viewBox="0 0 600 165.8" style="enable-background:new 0 0 600 165.8;" xml:space="preserve">
<style type="text/css">
	.st0{fill:#5DFFE8;}
	.st1{fill:#FFFFFF;}
	.st2{fill:#002D62;}
	.st3{fill:#003E7E;}
	.st4{fill:#A39161;}
</style>
<g>
	
		<rect x="23.5" y="28.7" transform="matrix(0.7071 -0.7071 0.7071 0.7071 -36.9047 81.8311)" class="st0" width="113.6" height="113.6"/>
	
		<rect x="26.3" y="31.5" transform="matrix(0.7071 -0.7071 0.7071 0.7071 -36.9599 81.843)" class="st1" width="108.1" height="108.1"/>
	<polygon class="st2" points="154.2,85.6 80.4,11.7 6.5,85.6 52.2,131.2 52.2,130.9 57,127.1 106.8,127.1 56.8,133.2 56.8,135.3 
		56.4,135.5 61.4,140.4 99.3,140.4 	"/>
	
		<rect x="28.1" y="33.3" transform="matrix(0.7071 -0.7071 0.7071 0.7071 -36.9791 81.7982)" class="st0" width="104.4" height="104.4"/>
	<path class="st3" d="M138.4,85.5l-13.2,13.2l-11.3-11.3l-4.7,4.8l16.1,16.1L148,85.6l-8.2-8.2l-4.9,4.8L138.4,85.5z M105.3,92.3
		l-4.7-4.8l-18.2,18.2l4.8,4.8L105.3,92.3z M80.4,116.5l1-0.4l3.7-3.7l-4.8-4.8l-4.8,4.7l3.8,3.8L80.4,116.5z M98.3,112.8l9.1-9.1
		l6.4,6.4l-7.4,7.4l4.8,4.8l12-12l-16-16L89,112.5l11.2,11.2l-2,1.9L87,114.4L74.3,127l15,15h1.9l3.8-3.8L83.8,127l3.1-3.1
		l11.2,11.2l11.1-11.1L98.3,112.8z M80.4,143.6l-13.2-13.2l11.3-11.3l-4.8-4.7l-16.1,16.1l22.7,22.7l8.2-8.2l-3.7-3.7h-2L80.4,143.6
		z M55.5,92.3l18.1,18.1l4.8-4.7L60.2,87.5L55.5,92.3z M48.7,85.6l4.8,4.8l4.8-4.8l-4.8-4.8L48.7,85.6z M53.5,94.3l-11.3,11.2l-2-2
		l11.2-11.2L38.8,79.6l-16,16l4.8,4.8l11.2-11.2l3.1,3.1l-11.2,11.2l11.1,11.1L53,103.4l9.1,9.1l-6.4,6.4l-7-7l-4.8,4.8l11.7,11.7
		l16-16L53.5,94.3z M22.3,85.6l13.2-13.2l11.3,11.3l4.8-4.8L35.5,62.8L12.8,85.6l8.2,8.2l4.8-4.8L22.3,85.6z M55.5,78.8l4.8,4.8
		l18.1-18.2l-4.8-4.8L55.5,78.8z M85.1,58.7l-4.8-4.8l-4.8,4.8l4.8,4.8L85.1,58.7z M53.5,76.8l18.2-18.2L60.5,47.3l2-2l11.2,11.3
		L86.3,44l-16-16l-4.8,4.8L76.7,44l-3.1,3.1L62.4,35.9L51.2,47.1l11.2,11.2l-9,9.1L46.9,61l7.1-7.1l-4.8-4.8L37.5,60.8L53.5,76.8z
		 M77,30.9l3.5-3.5l13.1,13.2L82.2,52l4.8,4.8l16.1-16.1L80.3,18l-8.2,8.2L77,30.9z M105.3,78.8L87.2,60.7l-4.8,4.8l18.1,18.1
		L105.3,78.8z M112,85.5l-4.8-4.8l-4.8,4.8l4.8,4.8L112,85.5z M118.5,65.6l2,2l-11.3,11.2l12.6,12.6l16-16l-4.8-4.8l-11.1,11.2
		l-3.1-3.1L130,67.5l-11.1-11.1l-11.2,11.2l-9.1-9l6.4-6.4l7.2,7.2l4.8-4.8l-11.8-11.9l-16,15.9l18,18.2L118.5,65.6z"/>
	<polygon class="st4" points="56.8,66.5 106.8,60.4 57,60.4 52.2,64.2 52.2,70.9 56.8,68.6 	"/>
	<polygon class="st4" points="81.4,15.7 79.5,15.3 78.3,43.5 82.4,44 	"/>
	<polygon class="st4" points="70.4,52.5 92.9,48.6 70.6,48.6 66.8,51.4 66.8,58.1 70.4,55.8 	"/>
	<polygon class="st4" points="56.8,133.2 106.8,127.1 57,127.1 52.2,130.9 52.2,131.2 56.4,135.5 56.8,135.3 	"/>
	<polygon class="st4" points="56.8,93.2 106.8,87.1 57,87.1 52.2,90.9 52.2,97.6 56.8,95.3 	"/>
	<polygon class="st4" points="56.8,79.8 106.8,73.7 57,73.7 52.2,77.6 52.2,84.2 56.8,81.9 	"/>
	<polygon class="st4" points="56.8,106.5 106.8,100.4 57,100.4 52.2,104.3 52.2,110.9 56.8,108.6 	"/>
	<polygon class="st4" points="57,113.7 52.2,117.6 52.2,124.3 56.8,121.9 56.8,119.8 106.8,113.7 	"/>
	<polygon class="st0" points="290.3,89.9 293.9,89.9 297.6,105.4 297.6,105.4 301.7,89.9 305.3,89.9 309.3,105.4 309.3,105.4 
		313.1,89.9 316.7,89.9 311.1,110.2 307.5,110.2 303.5,94.7 303.4,94.7 299.3,110.2 295.6,110.2 	"/>
	<path class="st0" d="M320.2,100c0,3.9,1.8,7.7,6.2,7.7c4.4,0,6.2-3.8,6.2-7.7c0-3.9-1.8-7.7-6.2-7.7S320.2,96.2,320.2,100 M336,100
		c0,5.8-3.6,10.6-9.7,10.6s-9.7-4.8-9.7-10.6c0-5.8,3.6-10.6,9.7-10.6C332.4,89.5,336,94.3,336,100"/>
	<polygon class="st0" points="356.3,89.9 359.8,89.9 359.8,107.1 370.1,107.1 370.1,110.2 356.3,110.2 	"/>
	<path class="st0" d="M375.4,107.3h3.5c5.5,0,6.7-3.2,6.7-7.2s-1.2-7.2-6.7-7.2h-3.5V107.3z M371.9,89.9h8.4c6.2,0,8.9,4.5,8.9,10.1
		s-2.7,10.1-8.9,10.1h-8.4V89.9z"/>
	<polygon class="st0" points="394.9,89.9 411.2,89.9 411.2,93 404.8,93 404.8,110.2 401.3,110.2 401.3,93 394.9,93 	"/>
	<path class="st0" d="M437.4,102.1h6.2l-3-8.7h-0.1L437.4,102.1z M438.7,89.9h3.7l7.8,20.2h-3.8l-1.9-5.4h-8.1l-1.9,5.4h-3.6
		L438.7,89.9z"/>
	<path class="st0" d="M455.3,107.2h3.5c5.5,0,6.7-3.2,6.7-7.2s-1.2-7.2-6.7-7.2h-3.5V107.2z M451.8,89.9h8.4c6.2,0,8.9,4.5,8.9,10.1
		s-2.7,10.1-8.9,10.1h-8.4V89.9z"/>
	<polygon class="st0" points="471.3,89.9 485.9,89.9 485.9,93 474.9,93 474.9,98.3 485.1,98.3 485.1,101.2 474.9,101.2 474.9,107.1 
		486.1,107.1 486.1,110.2 471.3,110.2 	"/>
	<path class="st0" d="M507.6,96.4c-0.4-2.4-2.6-4.2-5-4c-4.3,0-6.2,3.8-6.2,7.7c0,3.9,1.8,7.7,6.2,7.7c3.1,0,4.9-2.3,5.1-5.3h3.5
		c0,4.6-3.8,8.2-8.4,8.2c-0.1,0-0.2,0-0.3,0c-6.1,0-9.7-4.8-9.7-10.6s3.6-10.6,9.7-10.6c4.6,0,8.2,2.6,8.6,6.9L507.6,96.4z"/>
	<polygon class="st0" points="513.3,89.9 527.9,89.9 527.9,93 516.9,93 516.9,98.3 527.1,98.3 527.1,101.2 516.9,101.2 516.9,107.1 
		528.1,107.1 528.1,110.2 513.3,110.2 	"/>
	<polygon class="st0" points="529.9,89.9 533.6,89.9 542.8,104.8 542.9,104.8 542.9,89.9 546.3,89.9 546.3,110.2 542.5,110.2 
		533.3,95.3 533.2,95.3 533.2,110.2 529.9,110.2 	"/>
	<polygon class="st0" points="548,89.9 564.4,89.9 564.4,93 558,93 558,110.2 554.4,110.2 554.4,93 548,93 	"/>
	<polygon class="st0" points="584.2,89.9 598.8,89.9 598.8,93 587.7,93 587.7,98.3 597.9,98.3 597.9,101.2 587.7,101.2 587.7,107.1 
		599,107.1 599,110.2 584.2,110.2 	"/>
	<path class="st0" d="M425.1,101.9c2.4-0.9,3.9-3.2,3.7-5.7c0-2.5-1.1-6.2-6.9-6.2H413v20.1h3.5V92.8h5.2c1.9,0,3.5,0.7,3.5,3.3
		c0.1,1.8-1.3,3.3-3.1,3.4c-0.2,0-0.3,0-0.5,0h-2.5l-1.7,2.9h3.9l3.9,7.8h4.1L425.1,101.9z"/>
	<path class="st0" d="M578.3,101.9c2.4-0.9,3.9-3.2,3.7-5.7c0-2.5-1.1-6.2-6.9-6.2h-8.9v20.2h3.5V92.8h5.2c1.9,0,3.5,0.7,3.5,3.3
		c0.1,1.8-1.3,3.3-3.1,3.4c-0.2,0-0.3,0-0.5,0h-2.5l-1.7,2.9h3.9l3.9,7.8h4.1L578.3,101.9z"/>
	<path class="st0" d="M350.3,101.9c2.4-0.9,3.9-3.2,3.7-5.7c0-2.5-1.1-6.2-6.9-6.2h-8.9v20.2h3.5V92.8h5.2c1.9,0,3.5,0.7,3.5,3.3
		c0.1,1.8-1.3,3.3-3.1,3.4c-0.2,0-0.3,0-0.5,0h-2.5l-1.7,2.9h3.9l3.9,7.8h4L350.3,101.9z"/>
	<path class="st0" d="M206.4,107.2h3.5c5.6,0,6.7-3.2,6.7-7.2s-1.2-7.2-6.7-7.2h-3.5V107.2z M202.9,89.9h8.4c6.2,0,8.9,4.5,8.9,10.1
		s-2.7,10.1-8.9,10.1h-8.4V89.9z"/>
	<path class="st0" d="M222.4,89.9h3.5v11.8c0,2.7,0.2,5.9,4.8,5.9s4.8-3.1,4.8-5.9V89.9h3.5v12.9c0,5.2-3.3,7.8-8.2,7.8
		s-8.3-2.6-8.3-7.8L222.4,89.9z"/>
	<path class="st0" d="M264.7,102.1h6.2l-3-8.7h-0.1L264.7,102.1z M265.9,89.9h3.7l7.8,20.2h-3.8l-1.9-5.3h-8.1l-1.9,5.4H258
		L265.9,89.9z"/>
	<rect x="279" y="89.9" class="st0" width="3.5" height="20.2"/>
	<path class="st0" d="M251,107.3h-6.2V92.8h5.8c1.9,0,3,0.7,3,2.8c0.1,1.5-1.1,2.8-2.6,2.8c-0.1,0-0.3,0-0.4,0h-3.1l-1.5,2.5h5.1
		c2.2,0,3.4,1.1,3.4,3.1c0.1,1.7-1.1,3.1-2.8,3.2C251.5,107.3,251.3,107.3,251,107.3 M254.3,99.3L254.3,99.3c1.8-0.7,3-2.4,2.9-4.3
		c0-3.4-2.4-5-6-5h-9.8v20.2h9.3c5.2,0,7.4-2.5,7.4-5.6c0-2.7-1.3-4.7-3.8-5.2"/>
	<rect x="530.6" y="61" class="st0" width="3.2" height="2.5"/>
	<path class="st0" d="M510.1,64h-8.4l1.7,2.9h5.3c5.5,0,6.7,3.2,6.7,7.2v4h-15.9v3.1h19.4v-7C518.9,68.5,516.2,64,510.1,64"/>
	<rect x="457.6" y="82.6" class="st0" width="3.2" height="2.5"/>
	<rect x="462.3" y="82.6" class="st0" width="3.2" height="2.5"/>
	<rect x="494.1" y="82.6" class="st0" width="3.2" height="2.5"/>
	<path class="st0" d="M497.3,64h-3.6v14.1h-10.2V64h-8.4c-6.2,0-8.9,4.5-8.9,10.1v4h-6.7c-3.1,0-4.9-2.2-5.1-5.1v-9H451v9
		c0.1,4.6,3.8,8.2,8.4,8.2c0.1,0,0.2,0,0.2,0h10.3v-7.1c0-4.1,1.2-7.2,6.7-7.2h3.5v14.3h17.3L497.3,64z"/>
	<rect x="209.5" y="82.6" class="st0" width="3.2" height="2.5"/>
	<rect x="214.2" y="82.6" class="st0" width="3.2" height="2.5"/>
	<path class="st0" d="M273.1,78.1h-10.3c0.8-1.6,1.3-3.3,1.2-5.1c0-5-3.1-9.1-8.3-9.1c-4.9,0-7.9,3.7-8.2,8.2l0,0
		c-0.2,3.5-1.5,5.9-5.7,5.9h-6.2V63.9h-8.4c-6.2,0-8.9,4.5-8.9,10.1v4h-6.7c-3.1,0-4.9-2.2-5.1-5.1v-9h-3.4v9c0,4.6,3.8,8.2,8.4,8.2
		c0.1,0,0.2,0,0.3,0h10.3V74c0-4.1,1.2-7.2,6.7-7.2h3.5v14.3h10.1c2.3,0.1,4.5-0.7,6.2-2.3c1.7-1.8,2.6-4.2,2.7-6.6
		c0-0.1,0-0.2,0-0.2l0,0c0.3-2.6,1.7-5,4.7-5c3.4,0,4.8,3,4.8,6s-1.4,6-4.8,6c-1.2,0-2.3-0.4-3.1-1.2l-2.9,1.7
		c1.5,1.7,3.7,2.7,6,2.7c1.4,0,2.7-0.3,3.9-1h17V61h-3.5L273.1,78.1z"/>
	<path class="st0" d="M556.2,68.7h-6.6l7.8-7.8H553l-10.4,10.6H556c1.8-0.2,3.4,1.1,3.5,2.9c0,0.2,0,0.3,0,0.5
		c0,2.7-1.6,3.2-3.5,3.2h-22.2V64.8h-3.2v15.7c0,1.4-0.1,2.1-1.2,2.1h-2.6l1.5,2.5h1.5c2.8,0,4-1.4,4.2-4h22.2
		c5.8,0,6.9-3.7,6.9-6.2S562,68.8,556.2,68.7"/>
	<path class="st0" d="M373.1,80.5c0,1.4-0.1,2.1-1.3,2.1h-2.6l1.5,2.6h1.5c3,0,4.2-1.6,4.2-4.6V64h-3.2L373.1,80.5z"/>
	<rect x="418" y="61" class="st0" width="3.2" height="2.5"/>
	<rect x="413.3" y="61" class="st0" width="3.2" height="2.5"/>
	<path class="st0" d="M430,78.1h-8.7V65h-3.2v13.1H409v-3.5c0-5.8-3.6-10.6-9.7-10.6c-3.6-0.1-6.9,1.9-8.5,5.2l2.9,1.8
		c0.7-2.4,3-4.1,5.5-4c4.3,0,6.2,3.8,6.2,7.7v3.5H382V61h-3.6v20.2h55V61h-3.5L430,78.1z"/>
	<rect x="435.7" y="61" class="st0" width="3.5" height="20.2"/>
	<path class="st0" d="M364.5,69.7c-1-0.3-7.9-2.1-8.2-2.2V66c0-2,2.1-2.6,3.7-2.6c2.5,0,4.2,1,4.4,3.6h3.5c0-4.2-3.5-6.5-7.8-6.5
		c-3.6,0-7.4,1.9-7.4,5.9v3.5c2.8,0.8,9.1,2.3,10.5,2.8c1.1,0.3,1.8,1.4,1.7,2.5c0,1.5-1.2,3.1-4.3,3.1h-12.8
		c-3.1,0-4.9-2.4-5.1-5.3v-9h-3.5v9c0.1,4.6,3.8,8.2,8.4,8.2c0.1,0,0.2,0,0.2,0h12.6c4,0,8-1.8,8-6.3
		C368.4,72.4,366.8,70.3,364.5,69.7"/>
	<rect x="351.3" y="82.6" class="st0" width="3.2" height="2.5"/>
	<rect x="356" y="82.6" class="st0" width="3.2" height="2.5"/>
	<rect x="398.3" y="82.6" class="st0" width="3.2" height="2.5"/>
	<path class="st0" d="M318.2,78.1h-23.4v-3.5c0-3.9,1.8-7.7,6.2-7.7c2.6,0,4.8,1.6,5.5,4.1l3-1.7c-1.6-3.3-4.9-5.3-8.5-5.2
		c-6.1,0-9.7,4.8-9.7,10.6v3.5h-8.8V61H279v20.2h42.8V61h-3.6V78.1z"/>
	<rect x="323.9" y="61" class="st0" width="3.5" height="20.2"/>
	<path class="st0" d="M591.8,64c-4.9,0-7.9,3.7-8.3,8.2l0,0c-0.2,3.5-1.5,5.9-5.7,5.9H571V64h-3.3v16.5c0,1.4-0.1,2.2-1.3,2.2h-2.6
		l1.5,2.5h1.5c2.8,0,4-1.4,4.2-4h7.1c2.3,0.1,4.5-0.7,6.2-2.3c1.7-1.8,2.6-4.2,2.7-6.6c0-0.1,0-0.2,0-0.2l0,0c0.3-2.6,1.7-5,4.7-5
		c3.4,0,4.8,3,4.8,6s-1.4,6-4.8,6c-1.2,0-2.3-0.4-3.1-1.2l-2.9,1.7c1.5,1.7,3.7,2.7,6,2.7c5.2,0,8.3-4.1,8.3-9.1S596.9,64,591.8,64"
		/>
</g>
</svg>
