<svg width="714" height="619" viewBox="0 0 714 619" fill="none" xmlns="http://www.w3.org/2000/svg">
<circle opacity="0.3" cx="404.5" cy="309.5" r="309.5" fill="#5DFFE8" fill-opacity="0.34"/>
<circle opacity="0.3" cx="151" cy="428" r="130" fill="#5DFFE8" fill-opacity="0.34"/>
<circle opacity="0.3" cx="151" cy="428" r="149" stroke="#5DFFE8" stroke-opacity="0.34" stroke-width="4"/>
<g filter="url(#filter0_d_311_34)">
<path d="M460.975 282.248C443.288 282.248 426.74 282.248 410.192 282.248C393.644 282.248 377.12 282.248 359.527 282.248C362.115 290.914 367.552 293.407 374.627 294.143C380.586 294.76 387.613 295.401 387.4 303.402C387.29 307.5 383.792 310.049 377.5 310.5C370.045 311.022 359.527 309.5 353.5 306C345.239 301.203 340.5 288 338.5 282.248C280.5 278.5 236.924 268.193 212.233 259.242C202.879 255.847 193.809 251.906 186.283 245.282C175.148 235.453 175.267 222.229 186.473 212.542C194.379 205.681 203.923 201.763 213.681 198.439C235.856 190.937 258.743 186.687 281.891 183.601C288.135 182.77 294.949 182.2 296.374 189.726C298.012 198.392 290.248 199.745 284.076 200.79C266.151 203.781 248.131 206.274 230.657 211.426C222.727 213.777 214.821 216.459 207.271 219.783C202.855 221.73 196.673 225.51 197.015 229.755C197.356 234 203.092 236.592 207.342 238.468C227.024 247.181 247.964 251.621 269.047 254.826C353.117 267.599 437.447 267.908 521.873 258.815C528.236 258.126 534.765 257.865 536.189 265.32C537.661 273.036 530.079 276.267 525.5 277.5C512.5 281 497 282.248 485 282.248C482 289.748 470.5 303.426 463 307.5C457.151 310.678 450.68 311.711 447 312.02C433.182 313.16 424.5 312.02 410.69 312.02C405.61 311.545 401.36 309.575 401.336 303.426C401.336 297.276 405.586 295.163 410.667 294.879C420.116 294.332 429.636 293.81 439.086 294.237C451.5 293 455.634 290.724 460.975 282.248Z" fill="white"/>
<path d="M414.038 230.538C389.371 230.562 367.409 227.974 346.327 220.543C315.178 209.527 305.942 191.412 314.537 159.716C327.048 113.634 370.045 83.1492 417.077 86.9954C463.825 90.8415 501.883 128.448 506.655 175.481C508.673 195.495 500.553 209.028 479.993 218.216C458.293 227.903 435.24 230.823 414.038 230.538ZM408.032 212.613C429.589 213.349 450.672 210.785 470.757 202.689C487.685 195.875 491.674 187.969 488.089 170.305C480.112 131.084 448.511 104.683 409.409 104.588C369.997 104.517 338.539 130.324 330.206 169.593C326.217 188.396 330.42 196.326 348.748 203.377C367.813 210.714 387.709 213.159 408.032 212.613Z" fill="white"/>
<path d="M537.377 184.051C563.065 188.159 590.487 191.696 616.081 203.021C618.597 204.137 621.066 205.395 623.441 206.82C646.09 220.424 645.877 239.227 622.8 251.787C604.186 261.901 583.768 266.53 563.184 270.424C557.13 271.564 550.411 271.397 549.414 263.373C548.559 256.393 554.233 254.113 560.003 253.045C577.097 249.887 594.072 246.207 609.932 238.824C614.371 236.758 620.853 235.167 620.782 229.232C620.71 223.439 614.49 221.54 609.908 219.569C587.211 209.882 563.089 205.728 538.896 202.071C537.329 201.834 535.715 201.929 534.172 201.62C528.26 200.504 521.47 199.555 522.158 191.506C522.871 183.22 529.779 183.956 537.377 184.051Z" fill="white"/>
<path d="M256.875 88.2182C260.828 88.3166 262.627 90.6617 263.254 94.3515C264.612 102.256 269.108 107.045 277.625 108.094C281.239 108.537 284.276 110.292 284.175 114.309C284.073 118.278 281.205 119.705 277.422 120.262C269.159 121.492 264.408 126.314 263.237 134.284C262.677 138.023 260.794 140.532 256.756 140.434C253.091 140.352 251.208 137.711 250.817 134.513C249.749 125.937 244.692 121.41 236.107 120.115C232.663 119.59 230.287 117.885 230.22 114.277C230.152 110.62 232.731 108.685 236.005 108.307C245.32 107.274 249.952 102.256 251.072 93.466C251.445 90.6289 253.396 88.5462 256.875 88.2182Z" fill="white"/>
<path d="M590.761 89.9588C587.464 89.7048 585.282 87.8764 584.823 84.3041C583.674 75.2971 578.884 70.0825 570.108 68.8636C566.68 68.3895 564.482 66.4425 564.416 62.8363C564.334 59.1455 566.811 57.0292 570.01 56.6398C578.95 55.5394 583.576 50.3417 584.855 41.4025C585.298 38.2873 587.054 36.2387 590.236 36.0186C593.91 35.7647 596.092 38.1349 596.453 41.4194C597.503 51.1036 602.752 55.7764 611.84 56.9615C614.694 57.334 616.712 59.5518 616.63 62.9041C616.548 66.1716 614.711 68.271 611.692 68.6942C602.588 69.981 597.585 75.1278 596.469 84.5919C596.108 87.6055 594.042 89.5694 590.761 89.9588Z" fill="white"/>
<path d="M280.403 322C283.431 322.311 285.247 323.92 285.66 326.898C286.709 334.435 291.183 338.627 299.053 339.629C302.169 340.024 304.015 341.817 304 344.795C303.985 347.476 302.095 349.311 299.467 349.622C291.242 350.596 286.65 354.802 285.527 362.663C285.158 365.261 283.386 366.898 280.536 366.997C277.244 367.095 275.413 365.035 275.088 362.297C274.143 354.604 269.787 350.61 261.813 349.678C258.948 349.34 256.807 347.547 257.014 344.385C257.206 341.28 259.376 340.01 262.344 339.544C269.432 338.429 273.877 334.802 274.807 327.674C275.221 324.654 276.741 322.325 280.403 322Z" fill="white"/>
<path d="M541.143 318C543.947 318.07 545.482 319.591 545.761 321.867C546.54 328.127 549.937 331.576 556.137 332.482C558.533 332.83 560.057 334.235 559.998 336.755C559.929 339.322 558.079 340.576 555.846 340.843C549.751 341.563 546.54 344.873 545.808 350.923C545.54 353.153 544.249 354.977 541.655 355C539.119 355.023 537.805 353.455 537.433 351.074C536.525 345.221 533.42 341.679 527.313 340.925C524.824 340.611 522.847 339.229 523.009 336.372C523.149 333.887 524.847 332.749 527.243 332.412C533.187 331.576 536.584 328.15 537.386 322.227C537.712 319.8 539.015 318.418 541.143 318Z" fill="white"/>
<path d="M418.667 370.139C418.335 377.214 418.287 384.313 417.622 391.364C417.147 396.469 414.655 400.671 408.79 400.529C403.615 400.434 401.074 396.73 400.599 392.005C399.104 377.475 399.222 362.898 400.504 348.368C400.932 343.62 403.543 340.035 408.719 339.892C414.56 339.726 417.337 343.691 417.67 348.89C418.121 355.942 417.788 363.04 417.788 370.115C418.073 370.139 418.382 370.139 418.667 370.139Z" fill="white"/>
<path d="M370.685 354.897C370.685 348.225 370.472 341.53 370.757 334.859C370.97 329.683 373.321 325.362 378.995 325.101C384.717 324.816 387.756 328.9 387.874 334.099C388.231 348.249 388.207 362.399 387.922 376.549C387.827 381.772 384.883 385.856 379.161 385.714C373.463 385.571 370.947 381.393 370.733 376.169C370.472 369.047 370.685 361.972 370.685 354.897Z" fill="white"/>
<path d="M430.04 354.754C430.04 348.083 429.827 341.388 430.112 334.716C430.325 329.517 432.818 325.267 438.469 325.077C444.167 324.887 447.134 329.018 447.253 334.218C447.562 348.344 447.585 362.518 447.253 376.644C447.134 381.844 444.119 385.88 438.397 385.642C432.699 385.405 430.301 381.179 430.088 375.956C429.827 368.928 430.04 361.829 430.04 354.754Z" fill="white"/>
<path d="M369.214 131.891C373.155 132.08 375.482 133.41 377.049 135.927C379.304 139.512 378.426 143.12 375.767 145.685C364.679 156.368 359.337 169.474 358.008 184.597C357.58 189.441 354.66 192.598 349.318 192.361C344.499 192.147 342.694 189.108 341.982 184.669C339.584 169.972 351.431 142.005 363.634 134.265C365.581 133.03 367.908 132.437 369.214 131.891Z" fill="white"/>
<path d="M173.864 445.96C165.622 445.96 157.911 445.96 150.199 445.96C142.488 445.96 134.788 445.96 126.59 445.96C127.796 449.978 130.329 451.134 133.626 451.475C136.403 451.761 139.678 452.059 139.578 455.769C139.527 457.669 137.897 458.851 134.965 459.06C131.491 459.302 126.59 458.597 123.781 456.974C119.932 454.749 117.724 448.627 116.792 445.96C89.7641 444.222 69.4583 439.442 57.9523 435.292C53.5933 433.717 49.3671 431.89 45.8599 428.818C40.6712 424.26 40.7265 418.128 45.9485 413.636C49.6326 410.455 54.0801 408.638 58.6272 407.097C68.9604 403.618 79.6256 401.647 90.4125 400.216C93.3221 399.831 96.4974 399.567 97.1612 403.057C97.9245 407.075 94.3068 407.702 91.4303 408.187C83.0774 409.574 74.6802 410.73 66.5375 413.119C62.8423 414.209 59.1582 415.453 55.64 416.994C53.5822 417.897 50.7017 419.65 50.8606 421.618C51.0196 423.587 53.6929 424.789 55.6732 425.658C64.8448 429.699 74.6028 431.758 84.4271 433.244C123.603 439.167 162.9 439.31 202.242 435.093C205.207 434.774 208.249 434.653 208.913 438.11C209.599 441.688 206.066 443.186 203.932 443.758C197.874 445.381 190.651 445.96 185.059 445.96C183.661 449.437 178.302 455.78 174.807 457.669C172.082 459.143 169.066 459.622 167.352 459.765C160.913 460.294 156.867 459.765 150.432 459.765C148.064 459.545 146.084 458.631 146.073 455.78C146.073 452.928 148.053 451.949 150.421 451.816C154.824 451.563 159.26 451.321 163.664 451.519C169.449 450.945 171.375 449.89 173.864 445.96Z" fill="white"/>
<path d="M151.744 421.991C140.26 422.002 130.036 420.797 120.221 417.337C105.719 412.208 101.42 403.772 105.421 389.014C111.246 367.556 131.263 353.361 153.158 355.152C174.921 356.943 192.639 374.454 194.861 396.354C195.8 405.674 192.02 411.975 182.448 416.254C172.346 420.764 161.614 422.124 151.744 421.991ZM148.947 413.645C158.983 413.987 168.798 412.793 178.149 409.024C186.03 405.851 187.886 402.169 186.217 393.944C182.504 375.681 167.792 363.388 149.588 363.344C131.24 363.311 116.595 375.328 112.716 393.613C110.859 402.368 112.815 406.061 121.348 409.344C130.224 412.76 139.486 413.899 148.947 413.645Z" fill="white"/>
<path d="M209.106 400.027C221.064 401.964 233.828 403.632 245.741 408.973C246.912 409.499 248.062 410.093 249.167 410.765C259.71 417.18 259.61 426.048 248.868 431.971C240.204 436.74 230.7 438.924 221.119 440.76C218.301 441.297 215.173 441.219 214.709 437.435C214.311 434.143 216.953 433.068 219.638 432.564C227.595 431.075 235.496 429.34 242.879 425.857C244.945 424.883 247.962 424.133 247.929 421.334C247.896 418.602 245 417.706 242.868 416.777C232.303 412.209 221.075 410.249 209.814 408.525C209.084 408.413 208.333 408.458 207.614 408.312C204.863 407.786 201.702 407.338 202.023 403.543C202.354 399.635 205.57 399.982 209.106 400.027Z" fill="white"/>
<path d="M154 486.967C153.844 490.234 153.822 493.512 153.509 496.767C153.286 499.124 152.115 501.064 149.36 500.998C146.928 500.955 145.735 499.245 145.512 497.063C144.809 490.355 144.865 483.624 145.467 476.916C145.668 474.723 146.895 473.068 149.326 473.002C152.07 472.926 153.375 474.756 153.532 477.157C153.743 480.412 153.587 483.69 153.587 486.956C153.721 486.967 153.866 486.967 154 486.967Z" fill="white"/>
<path d="M132.038 479.767C132.038 476.686 131.94 473.594 132.07 470.513C132.168 468.123 133.24 466.127 135.829 466.006C138.439 465.875 139.825 467.761 139.879 470.162C140.042 476.697 140.031 483.231 139.901 489.766C139.858 492.178 138.515 494.064 135.904 493.998C133.305 493.933 132.157 492.003 132.059 489.591C131.94 486.301 132.038 483.034 132.038 479.767Z" fill="white"/>
<path d="M159.042 479.719C159.042 476.636 158.933 473.541 159.079 470.458C159.188 468.055 160.468 466.091 163.368 466.003C166.292 465.915 167.816 467.824 167.877 470.228C168.035 476.757 168.047 483.308 167.877 489.837C167.816 492.24 166.268 494.105 163.331 493.995C160.407 493.886 159.176 491.932 159.067 489.518C158.933 486.27 159.042 482.989 159.042 479.719Z" fill="white"/>
<path d="M130.77 376C132.597 376.088 133.676 376.703 134.402 377.868C135.448 379.528 135.041 381.199 133.808 382.386C128.667 387.332 126.191 393.399 125.574 400.4C125.376 402.642 124.022 404.104 121.546 403.994C119.311 403.895 118.475 402.488 118.144 400.433C117.033 393.63 122.525 380.682 128.183 377.099C129.086 376.528 130.164 376.253 130.77 376Z" fill="white"/>
</g>
<defs>
<filter id="filter0_d_311_34" x="8" y="36" width="632.269" height="503" filterUnits="userSpaceOnUse" color-interpolation-filters="sRGB">
<feFlood flood-opacity="0" result="BackgroundImageFix"/>
<feColorMatrix in="SourceAlpha" type="matrix" values="0 0 0 0 0 0 0 0 0 0 0 0 0 0 0 0 0 0 127 0" result="hardAlpha"/>
<feOffset dx="-17" dy="21"/>
<feGaussianBlur stdDeviation="8.5"/>
<feComposite in2="hardAlpha" operator="out"/>
<feColorMatrix type="matrix" values="0 0 0 0 0 0 0 0 0 0 0 0 0 0 0 0 0 0 0.35 0"/>
<feBlend mode="normal" in2="BackgroundImageFix" result="effect1_dropShadow_311_34"/>
<feBlend mode="normal" in="SourceGraphic" in2="effect1_dropShadow_311_34" result="shape"/>
</filter>
</defs>
</svg>
