<svg width="41" height="42" viewBox="0 0 41 42" fill="none" xmlns="http://www.w3.org/2000/svg">
<path fill-rule="evenodd" clip-rule="evenodd" d="M20.3196 41.3109L20.3378 41.311H20.3315L20.3196 41.3109ZM20.4635 41.311H20.4572L20.4754 41.3109L20.4635 41.311ZM20.2573 41.3106L20.2769 41.3107H20.2656L20.2573 41.3106ZM20.5294 41.3107H20.518L20.5377 41.3106L20.5294 41.3107ZM20.1972 41.3101L20.2103 41.3102L20.1998 41.3101H20.1972ZM20.5952 41.3101L20.5847 41.3102L20.5978 41.3101H20.5952ZM20.661 41.3094L20.6564 41.3095L20.6741 41.3093L20.661 41.3094ZM20.1208 41.3093L20.1386 41.3095L20.134 41.3094L20.1208 41.3093ZM20.7924 41.3073L20.7779 41.3076L20.7981 41.3072L20.7924 41.3073ZM19.9969 41.3072L20.0171 41.3076L20.0026 41.3073L19.9969 41.3072ZM19.9222 41.3057L19.9401 41.3061L19.937 41.306L19.9222 41.3057ZM20.858 41.306L20.8548 41.3061L20.8728 41.3057L20.858 41.306ZM19.8567 41.304L19.8813 41.3046L19.8714 41.3044L19.8567 41.304ZM20.9236 41.3044L20.9136 41.3046L20.9383 41.304L20.9236 41.3044ZM20.9892 41.3026L20.9732 41.3031L20.9983 41.3024L20.9892 41.3026ZM19.7966 41.3024L19.8218 41.3031L19.8058 41.3026L19.7966 41.3024ZM19.7393 41.3007L19.7572 41.3012L19.7403 41.3007L19.7248 41.3002L19.7393 41.3007ZM21.0547 41.3007L21.0378 41.3012L21.0557 41.3007L21.0701 41.3002L21.0547 41.3007ZM21.1201 41.2985L21.1112 41.2988L21.1387 41.2979L21.1201 41.2985ZM19.6563 41.2979L19.6838 41.2988L19.6749 41.2985L19.6563 41.2979ZM19.5966 41.2956L19.6255 41.2967L19.6095 41.2961L19.5966 41.2956ZM21.1855 41.2961L21.1695 41.2967L21.1983 41.2956L21.1855 41.2961ZM19.5381 41.2932L19.5663 41.2944L19.5442 41.2936L19.5381 41.2932ZM21.2508 41.2936L21.2287 41.2944L21.2569 41.2932L21.2508 41.2936ZM19.456 41.2897L19.4863 41.291L19.4789 41.2908L19.456 41.2897ZM21.3161 41.2908L21.3087 41.291L21.339 41.2897L21.3161 41.2908ZM19.3971 41.2869L19.4285 41.2884L19.4137 41.2877L19.3971 41.2869ZM21.3813 41.2877L21.3665 41.2884L21.3978 41.2869L21.3813 41.2877ZM19.3391 41.284L19.3708 41.2856L19.3485 41.2846L19.3391 41.284ZM21.4464 41.2846L21.4242 41.2856L21.4558 41.284L21.4464 41.2846ZM21.5116 41.2811L21.4828 41.2826L21.5084 41.2813L21.5385 41.2796L21.5116 41.2811ZM19.2866 41.2813L19.3122 41.2826L19.2834 41.2811L19.2565 41.2796L19.2866 41.2813ZM19.1412 41.2729L19.1735 41.2748L19.1533 41.2737L19.1412 41.2729ZM21.6417 41.2737L21.6215 41.2748L21.6538 41.2729L21.6417 41.2737ZM19.1154 41.2713L19.0883 41.2697L19.0611 41.2679L19.1154 41.2713ZM21.7067 41.2697L21.6796 41.2713L21.7339 41.2679L21.7067 41.2697ZM21.7715 41.2654L21.7618 41.2661L21.7926 41.264L21.7715 41.2654ZM19.0023 41.264L19.0332 41.2661L19.0234 41.2654L19.0023 41.264ZM18.9449 41.26L18.9752 41.2622L18.9586 41.2611L18.9449 41.26ZM21.8364 41.2611L21.8198 41.2622L21.8501 41.26L21.8364 41.2611ZM18.8876 41.256L18.9154 41.2579L18.8938 41.2564L18.8876 41.256ZM21.9012 41.2564L21.8796 41.2579L21.9074 41.256L21.9012 41.2564ZM18.8105 41.2501L18.8349 41.252L18.829 41.2516L18.8105 41.2501ZM21.9659 41.2516L21.96 41.252L21.9844 41.2501L21.9659 41.2516ZM22.0306 41.2466L22.0189 41.2474L22.0437 41.2454L22.0306 41.2466ZM18.7513 41.2454L18.776 41.2474L18.7644 41.2466L18.7513 41.2454ZM18.6935 41.2407L18.7145 41.2425L18.6997 41.2413L18.6935 41.2407ZM22.0953 41.2413L22.0804 41.2425L22.1015 41.2407L22.0953 41.2413ZM18.6299 41.2354L18.6362 41.236L18.6352 41.2359L18.6299 41.2354ZM22.1598 41.2359L22.1588 41.236L22.1651 41.2354L22.1598 41.2359ZM22.2243 41.2302L22.2186 41.2307L22.233 41.2294L22.2243 41.2302ZM18.562 41.2294L18.5764 41.2307L18.5706 41.2302L18.562 41.2294ZM18.5022 41.224L18.513 41.225L18.5063 41.2244L18.5022 41.224ZM22.2887 41.2244L22.282 41.225L22.2928 41.224L22.2887 41.2244ZM17.2104 41.0631C7.46429 39.5312 0 31.0872 0 20.9136C0 9.65594 9.13983 0.516113 20.3975 0.516113C31.6551 0.516113 40.795 9.65594 40.795 20.9136C40.795 31.0872 33.3307 39.5312 23.5846 41.0631V26.8097H28.3374L29.2417 20.9136H23.5846V17.0874C23.5846 15.4743 24.3748 13.902 26.9087 13.902H29.4807V8.88227C29.4807 8.88227 27.1465 8.48388 24.9148 8.48388C20.2556 8.48388 17.2104 11.3077 17.2104 16.4198V20.9136H12.0313V26.8097H17.2104V41.0631Z" fill="white"/>
</svg>
