<?xml version="1.0" encoding="utf-8"?>
<!-- Generator: Adobe Illustrator 26.3.1, SVG Export Plug-In . SVG Version: 6.00 Build 0)  -->
<svg version="1.1" id="Group_6" xmlns="http://www.w3.org/2000/svg" xmlns:xlink="http://www.w3.org/1999/xlink" x="0px" y="0px"
	 viewBox="0 0 396.9 165.9" style="enable-background:new 0 0 396.9 165.9;" xml:space="preserve">
<style type="text/css">
	.st0{clip-path:url(#SVGID_00000034075182628332736530000000219965905612815533_);}
	.st1{fill:#5DFFE8;}
</style>
<g>
	<defs>
		<rect id="SVGID_1_" width="396.9" height="165.9"/>
	</defs>
	<clipPath id="SVGID_00000180334984568991429920000014811492104779652540_">
		<use xlink:href="#SVGID_1_"  style="overflow:visible;"/>
	</clipPath>
	<g id="Group_5" style="clip-path:url(#SVGID_00000180334984568991429920000014811492104779652540_);">
		<path id="Path_29" class="st1" d="M275.4,80.1c-0.2-0.1-6.3-2-7.9-4.5c0,0,5.4-6.2,8.3,4.5C275.9,80.2,275.6,80.2,275.4,80.1
			 M274.8,66.1c-5.2-1-9.9,6.7-9.9,6.7s-0.8-0.5-0.9-0.4s-3.8,4.4-4.3,5.1c-5.5,7.2-11.1,6.4-11.1,6.4c-10.3,0.1-13.6-8.7-13.9-9.1
			c-2.3-4.8-2.6-4.5-3.2-4.8c-0.8-0.5-3.9-0.2-8.3,3.5c-4.5,3.7-8,13.6-8.1,13.7c-5.4,17.2-7.9,16.8-9.9,16.7s-3.6-2.3-5.3-5.4
			c-1.7-3.1-2.6-11-2.5-14.3s0.3-4.5,0-4.4s-1,1.2-1.2,2.1c-0.9,4.5-0.1,10.5-0.1,11c0.3,5.7,4.1,16.3,9.4,16.4
			c5.2,0,7.4-7.5,7.9-8.7c1.1-2.8,2.6-9.4,5.8-16c1.7-3.9,5.6-6.4,9.9-6.3c0.6,0.2,6.4,13.2,16.4,13.7c10,0.6,13.4-7.3,14.2-8.8
			c0.5-0.8,1.1-1.5,1.9-2c0.2-0.2,0.8,0.3,0.8,0.3c1.7,3,13.5,9.3,15.8,7.1c2-2.1,3.5-4.8,4.1-7.7C282.2,79.8,279.9,67.1,274.8,66.1
			"/>
		<path id="Path_30" class="st1" d="M170.2,47.8l-0.2-0.5l3,0l1.3-0.1c-0.2-0.6-0.7-1.2-1.3-1.5c-0.6-0.3-8.6-5.1-10.6-5.7
			c-0.1,0-1.5,8.7-1.5,8.7s2,0.1,2.5,0.8c1.8,2.6,3.8,5.1,5.9,7.4c1.6,1.5,7.8,7.7,20.7,12.7c4.8,1.3,6.3,4.2,6.3,4.2
			s-5.3,4.2-9.8,7.1c-1.4,0.9-22.3,13.8-31.1,17.6c-0.3,0.1-8.6,3.8-10.7,0.4c-1.8-2.9-2.1-5.9,1.4-14.8c0,0,1-2.5,1-2.5l0.7-2.7
			c0,0-2.1,2.3-5,10.5c-1.5,3.7-3.6,13.6,0.2,16.9c3.8,3.3,7.6,2.2,14.4-0.8c8-3.5,35.4-19.6,39.5-24.8c1.3-1.8,2-4,2.1-6.2
			c0.1-0.7,0.7-6.8-2.1-9.5c-1.9-1.8-3.1-2.6-6.9-4.4s-14.1-6.8-18.1-11.4C171.7,49.3,170.2,47.8,170.2,47.8"/>
		<path id="Path_31" class="st1" d="M159,70.9l4-7.6l8.1,5.6l-4,7.8L159,70.9z"/>
		<path id="Path_32" class="st1" d="M82.9,114.9l4-7.6l8.1,5.6l-4,7.8L82.9,114.9z"/>
		<path id="Path_33" class="st1" d="M95.9,113.3l4-7.6l8.1,5.6l-4,7.8L95.9,113.3z"/>
		<path id="Path_34" class="st1" d="M199.4,59.1l4-7.6l8.1,5.6l-4,7.8L199.4,59.1z"/>
		<path id="Path_35" class="st1" d="M212.5,57.4l4-7.6l8.1,5.6l-4,7.8L212.5,57.4z"/>
		<path id="Path_36" class="st1" d="M140.8,30.3l-0.2-0.7l4.3,0.2c0-0.6-0.2-1.2-0.7-1.6c-0.6-0.6-8.9-8-8.9-8l-2.7,8.7
			c0,0,1.9,1,2,1.5c0.8,2.4,1.7,4.6,2.8,6.9c0.9,1.5,6,10.1,6.9,11.5c0.7,1,1,2.3,1,3.5c-0.1,0.2-0.2,0.4-0.3,0.6
			c-3.7,2.2-7.8,3.6-12.1,4.1l-3.9,0.1l-3.7,6.9c1.6,0.5,3.1,1.1,4.6,1.8c3,1.4,6,2.5,9.2,3.4c3.1,0.9,7.8,1.9,8.6,2.5
			c1,0.4,1.8,1.3,2,2.4c0,0-12.1,9.1-39.1,14.9c-2.4,0.4-38.3,7.6-70.3-3.9c-0.5-0.2-15.6-5.1-26.4-13.7c-1-1-9.5-8.3-9.5-8.3
			L0,58.5l2.1,4.5c0,0,12.9,18.4,13.5,19.1s12.1,10.2,40.3,16.4c12.4,2.7,36.8,1.6,48-0.2s38.3-9,46.8-18.5
			c0.5-0.6,4.8-8.3,4.5-10.5c0.1-2.4-1.4-4.5-3.6-5.2c-1.5-0.4-9-2.4-9.8-2.6c0.2,0.2,7.5-4,7.3-11.7c0.2-6.1-1.3-7.7-1.7-8.6
			s-6.3-9.8-6.3-9.8L140.8,30.3z"/>
		<path id="Path_37" class="st1" d="M93,47.4l-4.4,7.1v0.2c0,0,11,0.1,12.4,0.6c1.1,0.4,0,1.1,0,1.1s-9.2,3.8-11.9,4.7
			c-0.3,0.1-0.6,0.4-0.7,0.7c0,0,10.3-0.7,12.8-1.8c3.2-2.3,7.1-8.4,7.4-9.1s0.3-1,0.1-1.2s-1.6-2.5-8-2.6S93,47.4,93,47.4"/>
		<path id="Path_38" class="st1" d="M155.4,2.2c0,0-39,12.5-60.4,19.4c-21.3,6.9-52.4,19.2-52.4,19.2l-4.5,7.5
			c0,0,53.3-19,55.7-19.9s58-19.5,58-19.5L155.4,2.2z"/>
		<path id="Path_39" class="st1" d="M185.8,9.7c0,0-3.3-2.9-3.8-3.2c-0.5-0.3-0.8-0.8-0.8-1.4c3.2-2.2,4.6-0.8,5,0.2
			C187,7.1,185.8,9.7,185.8,9.7 M187.4,10.7c3.6-8.1,0.8-9.8,0-10.3c-1.7-1.1-3.8,0.3-5.7,1.8c-2.1,1.7-3.3,3.5-3,6.1
			c0.3,2.4,4.3,4.9,5,5.3c0,0,0.1,0,0.1,0.1l0.1,0.1c-1.7,2.3-8.7,8.9-15.7,13.6c-4.5,3-16.5,11.2-16.5,11.2s2.7-1,3.1-1.3
			c1.7-0.8,9.4-5.2,16-8.9S185,14.6,185,14.6s0.4,0.3,0.4,0.2c1.4,0.6,2.8,3.5,2.8,3.5s0,0.3,0.4-0.3s0.8-3.9,0.8-4.8
			S187.4,10.7,187.4,10.7"/>
		<path id="Path_40" class="st1" d="M232.9,11.9c0,0-3.5-2.9-4-3.2c-0.5-0.3-0.8-0.8-0.8-1.3c3.3-2.2,4.7-0.8,5.2,0.2
			C234.2,9.2,232.9,11.9,232.9,11.9 M234.6,12.8c3.7-8,0.8-9.8,0.1-10.3c-1.7-1.1-3.9,0.3-5.9,1.8c-2.2,1.7-3.4,3.5-3.1,6.1
			c0.3,2.4,4.5,4.9,5.1,5.3c0,0,0.1,0,0.1,0.1l0.1,0.1c-1.8,2.3-9,8.9-16.2,13.6c-4.6,2.9-17,11.2-17,11.2s2.8-1,3.2-1.3
			c1.7-0.8,9.7-5.1,16.5-8.9s14.7-13.7,14.7-13.7s0.4,0.3,0.4,0.2c1.4,0.6,2.9,3.5,2.9,3.5s0,0.3,0.4-0.3s0.8-3.9,0.8-4.8
			S234.6,12.8,234.6,12.8"/>
		<path id="Path_41" class="st1" d="M372.6,31.2c0,0-2.8-2.3-3.2-2.6c-0.4-0.2-0.6-0.6-0.7-1.1c2.7-1.8,3.8-0.7,4.1,0.1
			C373.5,29.1,372.6,31.2,372.6,31.2 M373.9,32c3-6.4,0.6-7.8,0-8.2c-1.4-0.9-3.1,0.2-4.7,1.4c-1.8,1.3-2.7,2.8-2.5,4.9
			c0.2,1.9,3.6,4,4.1,4.3c0,0,0,0,0.1,0l0.1,0c-1.4,1.9-7.2,7.1-13,10.8c-3.7,2.4-13.6,9-13.6,9s2.3-0.8,2.6-1
			c1.4-0.6,7.8-4.1,13.2-7.1s11.7-11,11.7-11s0.3,0.2,0.4,0.2c1.1,0.5,2.3,2.8,2.3,2.8s0,0.3,0.4-0.2c0.4-1.2,0.6-2.5,0.7-3.8
			C375.6,33.3,373.9,32,373.9,32"/>
		<path id="Path_42" class="st1" d="M255.9,19.2v1c-1-0.8-2.2-1.3-3.4-1.7c0,0-0.5-0.2-0.5-0.3c0.1-1.3,0.3-2.5,0.7-3.8
			c0.3-0.3,0.8-0.5,1.2-0.7c0.2,0,4.4,1.6,6.3,9c0,0,0.9,3.4,0.9,3.4l0.2-2c0,0,0.9-8.2,1.1-8.9c0.2-1,1.1-2.9,2.4-2.9
			s3.7,2.1,3.7,2.1l-1.2,3c0,0-1.9-1.6-2.6-1.7c-1.6-0.1-1.9,2.4-2.3,6.7s-0.7,5.2-1,5.9c-0.2,0.4-0.4,0.8-0.6,1.1
			C259.3,22.5,255.9,19.1,255.9,19.2"/>
		<path id="Path_43" class="st1" d="M324.9,38.9v1c-1-0.8-2.2-1.3-3.4-1.7c0,0-0.5-0.2-0.5-0.3c0.1-1.3,0.3-2.5,0.7-3.8
			c0.3-0.3,0.8-0.5,1.2-0.7c0.2,0,4.4,1.6,6.3,9c0,0,0.9,3.4,0.9,3.4l0.3-2c0,0,0.9-8.2,1.1-8.9c0.2-1,1-2.9,2.4-2.9
			c1.3,0,3.7,2.1,3.7,2.1l-1.2,3c0,0-1.9-1.6-2.6-1.7c-1.6-0.1-1.9,2.4-2.3,6.7c-0.4,4.3-0.7,5.2-1,5.9c-0.2,0.4-0.4,0.8-0.6,1.1
			C328.4,42.3,325,38.8,324.9,38.9"/>
		<path id="Path_44" class="st1" d="M258.3,51c-0.4,0.1-0.8,0.4-1.1,0.7c-2,2.6-3.4,5.7-4.1,8.9c-1.4,5.6,1.8,6.6,1.8,6.6
			s2.1,0.9,3.9-3.5c0.3-0.7,0.6-1.5,0.7-2.3c0,0,0-0.6-0.5-0.2c-0.9,0.8-0.8,1.8-1.1,2.2c-0.6,0.7-0.7,0.6-0.9,0.7s-3.2,0-2.3-4.5
			c0.7-2.2,1.6-4.4,2.7-6.5C257.4,53,258.3,51,258.3,51"/>
		<path id="Path_45" class="st1" d="M115.8,64.7c-0.4,0.1-0.8,0.4-1.1,0.7c-2,2.6-3.4,5.7-4.1,8.9c-1.4,5.6,1.8,6.6,1.8,6.6
			s2.1,0.9,3.9-3.5c0.3-0.7,0.6-1.5,0.7-2.3c0,0,0-0.6-0.5-0.2c-0.9,0.8-0.8,1.8-1.1,2.2c-0.6,0.7-0.7,0.6-0.9,0.7s-3.2,0-2.3-4.5
			c0.7-2.2,1.6-4.4,2.7-6.5C114.8,66.7,115.8,64.7,115.8,64.7"/>
		<path id="Path_46" class="st1" d="M286,28.5c0,0-19.8,6.7-28.6,9.7s-25.3,9.9-25.3,9.9l-1.6,4.1c0,0,48.4-18.3,52.3-19
			C282.7,33.1,286,28.5,286,28.5"/>
		<path id="Path_47" class="st1" d="M396.9,71.2L396.9,71.2C396.9,71.2,396.9,71.2,396.9,71.2"/>
		<path id="Path_48" class="st1" d="M394.1,71.1c-8.4-1.4-16.5-4.1-24.1-8c-10.9-5.5-16.6-4-16.7-4c-10.6,2.6-10.8,14-10.7,15.5
			c0.1,1.5,2,8.3,2,8.3s-0.9-0.3-1-0.3c-7.9-3.1-12.9-11.4-13.6-12.6c-6.6-10.7-20.3-24.5-21.6-25.9s-13.1-12.1-13.1-12.1l7.1-3.6
			c21.7-9,42.9-14.8,53.7-16.2c7.6-1,6.6,4,6.2,4.5s-3.9,6.5-4.5,7.2c-0.5,0.7-5.1,9.7-6.1,12.4c-1.5,4.3-0.9,5.4-0.9,5.4
			s1.5-2.8,1.5-2.9c2.1-4.9,6.3-11.9,9.8-17.8c2.2-3.7,5-7.1,5.3-12.9c0.3-6-16.3-2.5-16.6-2.4c-33.4,7.6-57,19.7-57,19.7l-2.6,4.6
			l-1.8,5.6c0,0,7.2,8.5,7.3,8.5c10.1,11.8,23.1,31.8,23.2,32.1c0.3,0.9,0.9,1.8,0.3,2.4c-1.1,1.2-8.3,3.4-8.3,3.4l-0.7-1.1
			C300,62,291.4,78,291.1,79c-3.3,6.4,0.1,9.1,0.1,9.3c4.4,5.8,16,1.9,16.4,2.4c0.4,0.8,0.8,1.6,1,2.5c-15.2,16-31.2,19.8-33.9,20
			c-16,1.1-15.1-11.8-14.5-16.3c0.5-4.1,3.7-13.6,3.7-13.6l-1.5,1.4c0,0-0.2,0.4-0.7,1.3c-3.6,6.5-4.5,15.4-4.5,16.7
			c-0.3,22.6,18.5,22.2,33.3,12.3c15.2-10.2,17.4-13.8,19.3-16.6c1.5-2.2,2.3-9.1,2.3-9.1l5.8-2.5c2.5-2.2,4-5.2,4.3-8.4
			c0.7-5.8-1.1-8.9-1.1-8.9l0.1-0.8c3.3,5.3,7,10.3,10.9,15.2c6.9,8.4,14.5,7.7,14.5,7.7l0.5,5.4l0.6-0.2c0,0,0.3,0,0.8-1.4
			c0.4-1.4,0.7-2.9,0.7-4.3c0,0,1.9-0.5,2-0.4c7.3-1.2,26.4-10.6,33.9-11.9c2.6-0.3,5.3-0.3,7.9,0.1l3.7-7.5
			C396,71.3,395,71.2,394.1,71.1 M295.2,82.2c-0.1-0.1-0.3-0.5-0.1-0.7c0.8-1.6,2.5-2.4,4.2-2c0.1,0,3.7,1.3,4.9,3.8
			C304.2,83.4,297.4,84,295.2,82.2 M365.2,79c-5.3,1.7-10.6,3.1-16,4.2c0,0-3.5-11.1-3.4-11.9c0.8-1.9,2.2-3.3,4.1-4
			c2.3-0.8,7.3-1.1,12.5,1.4c5,2.4,12.9,5.7,13.6,5.9c0.7,0.2,1.2,0.3,1.2,0.3S366.4,78.5,365.2,79"/>
		<path id="Path_49" class="st1" d="M16.8,146.4c-1.1-0.6-2.4-0.9-3.7-0.9c-1,0-2,0.2-2.9,0.6c-1,0.4-1.8,1-2.5,1.8
			C7,148.8,6.3,149.9,6,151c-0.5,1.4-0.7,2.8-0.7,4.3c0,1.2,0.2,2.4,0.5,3.5c0.3,1,0.8,1.9,1.5,2.8c0.6,0.8,1.5,1.4,2.4,1.8
			c1,0.4,2.1,0.7,3.2,0.6c0.3,0,0.6,0,0.9,0c0.4,0,0.7-0.1,1-0.1c0.3,0,0.6-0.1,0.9-0.2c0.2,0,0.4-0.1,0.6-0.2
			c0.1-0.3,0.1-0.6,0.1-0.9c0-0.4,0-0.8,0-1.2c0-1.7,0-2.9-0.1-3.7s-0.1-1.3-0.1-1.6c0.3,0,0.6,0.1,0.8,0.1c0.3,0,0.9,0.1,1.5,0.1
			c0.8,0,1.3,0,1.7-0.1c0.3,0,0.6-0.1,0.9-0.1c-0.1,0.3-0.1,0.5-0.1,0.8c0,0.4-0.1,0.8-0.1,1.3s0,1,0,1.6s0,1.1,0,1.6v1
			c0,0.5,0,1,0,1.5c0,0.3,0,0.6,0.1,1c-1.4,0.4-2.8,0.7-4.2,0.9c-1.4,0.2-2.8,0.3-4.2,0.3c-1.7,0-3.3-0.2-5-0.7
			c-1.4-0.4-2.8-1.1-3.9-2.1c-1.1-0.9-2-2-2.6-3.3c-0.6-1.4-0.9-2.8-0.9-4.3c0-1.8,0.3-3.6,1-5.2c0.6-1.4,1.5-2.7,2.7-3.7
			c1.2-1,2.6-1.8,4.1-2.2c1.7-0.5,3.4-0.8,5.1-0.8c1.4,0,2.8,0.1,4.1,0.5c1.2,0.3,2.3,0.8,3.4,1.4c-0.2,0.5-0.3,1.1-0.5,1.6
			s-0.3,1.1-0.4,1.6h-0.4C18.7,147.7,17.8,146.9,16.8,146.4"/>
		<path id="Path_50" class="st1" d="M43.9,150.4c-0.3-1-0.8-1.9-1.4-2.7c-0.6-0.7-1.3-1.3-2.2-1.7c-0.9-0.4-1.8-0.6-2.8-0.6
			c-1,0-2,0.3-2.9,0.8c-0.9,0.5-1.6,1.2-2.1,2.1c-0.6,0.9-1.1,2-1.3,3.1c-0.3,1.2-0.5,2.5-0.5,3.8c0,1.4,0.2,2.8,0.5,4.2
			c0.3,1,0.8,1.9,1.4,2.8c0.6,0.7,1.3,1.2,2.1,1.5c0.8,0.3,1.6,0.5,2.5,0.5c1.9,0,3.8-0.9,4.9-2.4c0.7-0.9,1.2-2,1.5-3.1
			c0.4-1.4,0.6-2.9,0.6-4.4C44.5,152.8,44.3,151.6,43.9,150.4 M26.6,150.4c0.6-1.3,1.4-2.6,2.4-3.6c1.1-1,2.4-1.9,3.8-2.4
			c1.6-0.6,3.3-0.9,4.9-0.9c1.6,0,3.2,0.2,4.7,0.7c1.4,0.4,2.7,1.1,3.7,2.1c1.1,1,1.9,2.1,2.5,3.5c0.6,1.6,1,3.2,0.9,4.9
			c0,1.5-0.3,3-0.9,4.4c-0.6,1.3-1.4,2.5-2.5,3.6c-1.1,1-2.4,1.8-3.8,2.4c-1.5,0.6-3.2,0.9-4.8,0.8c-1.6,0-3.1-0.2-4.6-0.6
			c-1.4-0.4-2.7-1-3.8-2c-1.1-1-2-2.1-2.5-3.5c-0.7-1.6-1-3.3-0.9-5C25.7,153.2,26,151.8,26.6,150.4"/>
		<path id="Path_51" class="st1" d="M66.1,151.7c1-2.7,1.9-5.3,2.8-7.7c0.5,0.1,0.9,0.1,1.4,0.1c0.5,0,0.9-0.1,1.4-0.1
			c-0.5,1.2-1.2,2.7-1.9,4.4c-0.7,1.7-1.5,3.6-2.3,5.5s-1.6,3.9-2.3,5.9c-0.8,2-1.5,3.9-2.1,5.6c-0.4,0-0.9,0-1.4,0s-1,0-1.4,0
			c-0.3-0.8-0.7-1.8-1.1-3c-0.5-1.2-0.9-2.4-1.4-3.8c-0.5-1.3-1-2.7-1.6-4.1s-1.1-2.8-1.6-4.1s-1-2.5-1.5-3.6s-0.9-2.1-1.2-2.9
			c0.5,0,0.9,0.1,1.4,0.1s0.9,0,1.4,0s0.9,0,1.4,0s0.9-0.1,1.4-0.1c0.3,1.2,0.7,2.4,1.2,3.7s0.9,2.6,1.4,4s1,2.7,1.5,4.1
			s1,2.7,1.5,4C64,157,65,154.3,66.1,151.7"/>
		<path id="Path_52" class="st1" d="M76,148c0-1.4-0.1-2.7-0.2-4.1l2.8,0.1c0.9,0,1.8,0.1,2.8,0c1.5,0,2.9,0,4.1,0
			c1.2,0,2,0,2.4-0.1c-0.1,0.4-0.1,0.9-0.1,1.3c0,0.3,0,0.5,0,0.8c0,0.2,0,0.4,0.1,0.6c-0.6-0.1-1.3-0.1-2-0.1
			c-0.7,0-1.4-0.1-2.1-0.1s-1.3-0.1-1.8-0.1s-0.9,0-1.2,0c-0.1,1.1-0.1,2.3-0.1,3.4s0,2.3,0,3.4c1.3,0,2.6-0.1,3.7-0.1
			c1.1-0.1,2.2-0.1,3.4-0.2c-0.1,0.4-0.1,0.6-0.1,0.8c0,0.2,0,0.4,0,0.6c0,0.2,0,0.3,0,0.5c0,0.2,0.1,0.4,0.1,0.8
			c-2.4-0.2-4.7-0.3-7.1-0.3c0,0.7,0,1.3,0,2s0,1.3,0,2c0,1.4,0,2.7,0.1,3.9c1.2,0,2.4,0,3.6-0.1s2.4-0.2,3.6-0.3
			c0,0.2-0.1,0.4-0.1,0.6s0,0.4,0,0.8s0,0.6,0,0.8c0,0.2,0.1,0.3,0.1,0.5c-0.6,0-1.3,0-2.1,0s-2,0-3.4,0h-5c-0.5,0-0.8,0-1.1,0
			s-0.4,0-0.6,0c0.1-1.3,0.1-2.6,0.2-4s0.1-2.9,0.1-4.6v-4.2C76,150.9,76,149.3,76,148"/>
		<path id="Path_53" class="st1" d="M102.8,147.6c-0.2-0.5-0.5-0.9-0.9-1.2c-0.4-0.3-1-0.5-1.5-0.5c-0.7-0.1-1.5-0.1-2.2-0.1
			c-0.1,2.8-0.1,5.7-0.1,8.5c0.1,0,0.2,0,0.4,0c0.1,0,0.2,0,0.3,0c1.2,0.1,2.3-0.3,3.2-1.1c0.8-0.9,1.2-2.1,1.1-3.4
			C103.1,149.1,103,148.3,102.8,147.6 M98.2,155.6v1.3c0,1.7,0,3.3,0,4.6s0.1,2.7,0.2,4c-0.4,0-0.8-0.1-1.2-0.1h-2.8
			c-0.4,0-0.8,0-1.2,0.1c0.1-1.3,0.2-2.6,0.2-4c0.1-1.4,0.1-2.9,0.1-4.6v-4.2c0-1.7,0-3.3-0.1-4.6c0-1.4-0.1-2.7-0.2-4.1
			c0.4,0,0.7,0.1,1.2,0.1s0.9,0,1.4,0c0.6,0,1.2,0,1.9-0.1c0.7,0,1.6-0.1,2.7-0.1c0.8,0,1.5,0,2,0.1c0.5,0,1,0.1,1.5,0.2
			c0.4,0.1,0.7,0.2,1.1,0.3c0.3,0.1,0.6,0.3,0.9,0.5c1.3,0.9,2.1,2.5,2,4.1c0.1,1.4-0.4,2.7-1.3,3.7c-1,1-2.2,1.7-3.6,2
			c1,1.8,2.1,3.5,3.2,5.3s2.3,3.5,3.4,5.2c-0.5,0-0.9-0.1-1.4-0.1h-2.8c-0.5,0-0.9,0-1.4,0.1l-5.6-9.9L98.2,155.6z"/>
		<path id="Path_54" class="st1" d="M114.4,146.5c-0.1-1-0.1-1.8-0.1-2.6c0.9,0.2,1.9,0.2,2.8,0c2.3,2.5,4.5,5,6.7,7.4
			s4.5,4.9,6.9,7.4v-5.7c0-1,0-2,0-3s0-1.9,0-2.7s0-1.5-0.1-2.2c0-0.4-0.1-0.8-0.1-1.2c0.9,0.2,1.9,0.2,2.8,0
			c-0.1,1.9-0.2,3.6-0.2,5.1s-0.1,3-0.1,4.3s-0.1,2.7-0.1,4c0,1.3,0,2.7,0,4.2v3.7c-0.4,0-0.8,0-1.3,0s-0.9,0-1.2,0
			c-4.3-5-8.9-10-13.7-15.1c0,0.6,0,1.2,0,1.8s0,1.2,0,1.9v3.6c0,1.3,0,2.3,0,3.2s0,1.6,0.1,2.2s0,1.1,0.1,1.5c0,0.4,0,0.7,0,0.9
			c-0.2,0-0.5,0-0.7,0h-0.7c-0.5,0-1,0-1.4,0c0.1-0.6,0.2-1.2,0.2-1.8c0.1-1,0.1-2.3,0.2-3.7s0.1-3.1,0.2-4.8s0.1-3.4,0.1-4.9
			C114.5,148.7,114.5,147.5,114.4,146.5"/>
		<path id="Path_55" class="st1" d="M141.9,158.4c-0.2,2.3-0.3,4.7-0.5,7c-0.3,0-0.5,0-0.8-0.1h-1.5c-0.2,0-0.5,0-0.7,0.1
			c0.7-3.6,1.3-7.1,1.8-10.7c0.5-3.5,1-7.1,1.4-10.8c0.2,0,0.4,0.1,0.6,0.1c0.2,0,0.4,0,0.6,0c0.2,0,0.4,0,0.6,0
			c0.2,0,0.4-0.1,0.7-0.1c0.6,1.3,1.2,2.5,1.8,3.8s1.2,2.6,1.8,3.9s1.2,2.5,1.8,3.8s1.2,2.4,1.8,3.5c1.3-2.3,2.5-4.8,3.7-7.3
			c1.2-2.6,2.4-5.1,3.6-7.6c0.9,0.2,1.8,0.2,2.7,0c0.2,1.8,0.4,3.7,0.7,5.8s0.5,4.1,0.7,6s0.5,3.8,0.7,5.5s0.4,3.1,0.6,4.1
			c-0.4,0-0.8-0.1-1.3-0.1h-2.5c-0.4,0-0.9,0-1.3,0.1c-0.1-2.2-0.3-4.5-0.5-7s-0.5-5-0.7-7.4h-0.1c-1.2,2.5-2.4,4.9-3.5,7.3
			c-1.1,2.4-2.3,4.8-3.4,7.2c-0.1,0-0.2,0-0.3,0c-0.1,0-0.2,0-0.3,0c-0.2,0-0.4,0-0.6,0.1c-1.1-2.3-2.3-4.7-3.4-7
			c-1.1-2.3-2.3-4.7-3.5-7.1h-0.1C142.3,153.7,142.1,156.1,141.9,158.4"/>
		<path id="Path_56" class="st1" d="M169.2,148c0-1.4-0.1-2.7-0.2-4.1c0.9,0,1.9,0.1,2.8,0.1c0.9,0,1.9,0.1,2.8,0c1.5,0,2.9,0,4.1,0
			s2,0,2.4-0.1c-0.1,0.4-0.1,0.9-0.1,1.3c0,0.3,0,0.6,0,0.8c0,0.2,0.1,0.4,0.1,0.6c-0.6-0.1-1.3-0.1-2-0.1c-0.7,0-1.4-0.1-2.1-0.1
			s-1.3-0.1-1.8-0.1s-0.9,0-1.2,0c-0.1,1.1-0.1,2.3-0.1,3.4s0,2.3,0,3.4c1.4,0,2.6-0.1,3.7-0.1c1.1-0.1,2.2-0.1,3.4-0.2
			c-0.1,0.4-0.1,0.6-0.1,0.8c0,0.2,0,0.4,0,0.6c0,0.2,0,0.3,0,0.5c0,0.2,0.1,0.4,0.1,0.8c-2.4-0.2-4.7-0.3-7.1-0.3c0,0.7,0,1.3,0,2
			s0,1.3,0,2c0,1.4,0,2.7,0.1,3.9c1.2,0,2.4,0,3.6-0.1s2.4-0.2,3.6-0.3c0,0.2-0.1,0.4-0.1,0.6c0,0.3-0.1,0.5,0,0.8
			c0,0.3,0,0.5,0,0.8c0,0.2,0,0.3,0.1,0.5c-0.6,0-1.3,0-2.1,0s-2,0-3.4,0h-5c-0.5,0-0.8,0-1.1,0s-0.4,0-0.6,0c0.1-1.3,0.1-2.6,0.2-4
			s0.1-2.9,0.1-4.6v-4.2C169.3,150.9,169.2,149.3,169.2,148"/>
		<path id="Path_57" class="st1" d="M187,146.5c0-1-0.1-1.8-0.1-2.6c0.5,0.1,0.9,0.1,1.4,0.1c0.5,0,0.9-0.1,1.4-0.1
			c2.3,2.5,4.5,5,6.7,7.4s4.5,4.9,6.8,7.4v-5.7c0-1,0-2,0-3s0-1.9,0-2.7s0-1.5-0.1-2.2c0-0.4,0-0.8-0.1-1.2c0.5,0.1,0.9,0.1,1.4,0.1
			c0.5,0,0.9-0.1,1.4-0.1c-0.1,1.9-0.2,3.6-0.2,5.1s-0.1,3-0.2,4.3s-0.1,2.7-0.1,4c0,1.3,0,2.7,0,4.2v3.7c-0.4,0-0.8,0-1.3,0
			c-0.5,0-0.9,0-1.2,0c-4.3-5-8.9-10-13.7-15.1c0,0.6,0,1.2,0,1.8s0,1.2,0,1.9v3.6c0,1.3,0,2.3,0,3.2s0,1.6,0,2.2
			c0,0.6,0,1.1,0.1,1.5c0,0.4,0,0.7,0.1,0.9c-0.2,0-0.5,0-0.7,0h-0.7c-0.5,0-1,0-1.4,0c0.1-0.6,0.1-1.2,0.2-1.8
			c0.1-1,0.1-2.3,0.2-3.7c0.1-1.5,0.1-3.1,0.2-4.8c0-1.7,0.1-3.4,0.1-4.9C187.1,148.7,187,147.5,187,146.5"/>
		<path id="Path_58" class="st1" d="M216.4,147.3c0-0.4,0-0.7-0.1-1.1c-0.3,0-0.7,0-1.2,0s-1,0.1-1.5,0.1s-1.1,0.1-1.6,0.1l-1.5,0.2
			c0-0.2,0.1-0.5,0.1-0.7c0-0.2,0-0.5,0-0.7c0-0.2,0-0.5,0-0.7c0-0.2-0.1-0.4-0.1-0.7c0.7,0,1.4,0,1.9,0.1s1.2,0,1.8,0s1.2,0,1.9,0
			s1.5,0,2.5,0c1,0,1.8,0,2.5,0c0.7,0,1.3,0,1.9,0s1.2,0,1.7,0s1.1,0,1.8-0.1c0,0.2-0.1,0.5-0.1,0.7c0,0.2,0,0.5-0.1,0.7
			c0,0.2,0,0.5,0.1,0.7c0,0.2,0.1,0.4,0.1,0.7c-0.4-0.1-0.9-0.1-1.4-0.2c-0.5-0.1-1-0.1-1.5-0.1s-1-0.1-1.5-0.1s-0.8,0-1.2,0
			c0,0.1,0,0.3,0,0.4s0,0.4,0,0.7v9.5c0,1.7,0,3.3,0.1,4.6s0.1,2.7,0.2,4c-0.4,0-0.8-0.1-1.1-0.1h-2.8c-0.4,0-0.8,0-1.1,0.1
			c0.1-1.3,0.1-2.6,0.2-4s0.1-2.9,0.1-4.6V149C216.4,148.4,216.4,147.8,216.4,147.3"/>
		<path id="Path_59" class="st1" d="M258.5,150.4c-0.3-1-0.8-1.9-1.4-2.7c-0.6-0.7-1.3-1.3-2.2-1.7c-0.9-0.4-1.8-0.6-2.8-0.6
			c-1,0-2,0.3-2.9,0.8c-0.9,0.5-1.6,1.2-2.1,2.1c-0.6,0.9-1.1,2-1.3,3.1c-0.3,1.2-0.5,2.5-0.5,3.8c0,1.4,0.1,2.8,0.5,4.2
			c0.3,1,0.8,2,1.4,2.8c0.6,0.7,1.3,1.2,2.1,1.5c0.8,0.3,1.6,0.5,2.5,0.5c0.9,0,1.9-0.2,2.7-0.6c0.9-0.4,1.6-1,2.2-1.8
			c0.7-0.9,1.2-2,1.5-3.1c0.4-1.4,0.6-2.9,0.6-4.4C259,152.8,258.8,151.6,258.5,150.4 M241.1,150.4c0.6-1.3,1.4-2.6,2.4-3.6
			c1.1-1,2.4-1.9,3.8-2.4c1.6-0.6,3.3-0.9,4.9-0.9c1.6,0,3.1,0.2,4.7,0.7c1.4,0.4,2.7,1.1,3.8,2.1c1.1,1,1.9,2.1,2.5,3.5
			c0.6,1.6,1,3.2,0.9,4.9c0,1.5-0.3,3-0.9,4.4c-0.6,1.3-1.4,2.5-2.5,3.6c-1.1,1-2.4,1.8-3.8,2.4c-1.5,0.6-3.2,0.9-4.8,0.8
			c-1.6,0-3.1-0.2-4.6-0.6c-1.4-0.4-2.7-1-3.8-2c-1.1-1-2-2.1-2.5-3.5c-0.7-1.6-1-3.3-1-5C240.3,153.2,240.5,151.8,241.1,150.4"/>
		<path id="Path_60" class="st1" d="M269.2,148c0-1.4-0.1-2.7-0.2-4.1l2.8,0.1c0.9,0,1.8,0,2.8,0c1.5,0,2.9,0,4.1,0
			c1.2,0,2,0,2.4-0.1c-0.1,0.4-0.1,0.9-0.1,1.3c0,0.3,0,0.6,0,0.8c0,0.2,0.1,0.4,0.1,0.6c-0.6-0.1-1.3-0.1-2-0.1
			c-0.7,0-1.4-0.1-2.1-0.1s-1.3-0.1-1.8-0.1s-0.9,0-1.2,0c-0.1,1.1-0.1,2.3-0.1,3.4s0,2.3,0,3.4c1.3,0,2.6-0.1,3.7-0.1
			c1.1-0.1,2.2-0.1,3.4-0.2c-0.1,0.4-0.1,0.6-0.1,0.8c0,0.2,0,0.4,0,0.6c0,0.2,0,0.3,0,0.5c0,0.2,0.1,0.4,0.1,0.8
			c-2.4-0.2-4.7-0.3-7.1-0.3v1.6c0,1.7,0,3.3,0.1,4.6s0.1,2.6,0.2,4c-0.4,0-0.8-0.1-1.2-0.1h-2.8c-0.4,0-0.8,0-1.1,0.1
			c0.1-1.3,0.1-2.6,0.2-4s0.1-2.9,0.1-4.6v-4.2C269.3,150.9,269.3,149.3,269.2,148"/>
		<path id="Path_61" class="st1" d="M301.7,159.1v1.9c0,0.6,0,1.2,0,1.7c0,0.5,0,0.8,0,1c0.3,0,0.7,0,1.1,0.1c0.4,0,1,0,1.6,0
			c2.1,0.1,4.2-0.8,5.6-2.4c1.4-1.6,2.1-4,2.1-7.3c0-1.2-0.2-2.3-0.5-3.5c-0.3-1-0.8-1.9-1.5-2.6c-0.6-0.7-1.4-1.3-2.2-1.7
			c-0.9-0.4-1.9-0.6-2.9-0.6c-0.8,0-1.4,0-1.8,0.1c-0.5,0-0.9,0.1-1.4,0.1c0,0.2,0,0.5,0,1s0,1.1,0,1.7l0,1.9L301.7,159.1z M297,148
			c0-1.3-0.1-2.7-0.2-4.1c0.4,0,0.7,0.1,1.2,0.1s0.9,0,1.4,0c0.7,0,1.5,0,2.3,0c0.9-0.1,2-0.1,3.3-0.1c1.6,0,3.3,0.2,4.9,0.5
			c1.4,0.3,2.7,0.9,3.8,1.6c1.1,0.8,1.9,1.9,2.5,3.1c0.6,1.6,0.9,3.2,0.9,4.9c0,1.6-0.3,3.2-0.9,4.7c-0.5,1.3-1.3,2.5-2.3,3.6
			c-1,1-2.2,1.8-3.4,2.3c-1.3,0.5-2.7,0.8-4.2,0.8c-1.6,0-2.9,0-4,0c-1.1,0-2.1,0-2.9,0H298c-0.4,0-0.8,0-1.2,0.1
			c0.1-1.3,0.1-2.6,0.2-4s0.1-2.9,0.1-4.6v-4.2C297.1,150.9,297.1,149.3,297,148"/>
		<path id="Path_62" class="st1" d="M328.8,165.4c-1.1-0.3-2.1-0.7-3-1.4c-0.9-0.7-1.6-1.5-2-2.5c-0.5-1.2-0.8-2.5-0.7-3.8v-4.1
			c0-0.6,0-1.1,0-1.6c0-0.5,0-1.1,0-1.6c0-1.7,0-3.1,0-4.1c0-1-0.1-1.8-0.1-2.3c0.4,0,0.8,0.1,1.3,0.1s0.9,0,1.3,0s0.8,0,1.3,0
			s0.9,0,1.3-0.1c-0.2,2-0.3,3.9-0.4,5.7s-0.1,3.5-0.1,5.3c0,1.5,0.1,3.1,0.4,4.6c0.2,1,0.6,1.9,1.2,2.7c0.5,0.6,1.2,1.1,1.9,1.3
			c0.9,0.2,1.8,0.3,2.7,0.3c1.1,0.1,2.1-0.3,2.9-0.9c0.7-0.7,1.3-1.5,1.6-2.5c0.4-1.2,0.6-2.4,0.7-3.6c0.1-1.3,0.1-2.8,0.1-4.2
			c0-1.4,0-2.9-0.1-4.3s-0.1-2.9-0.2-4.3c0.3,0,0.6,0.1,0.8,0.1s0.5,0,0.8,0c0.3,0,0.5,0,0.8,0c0.3,0,0.5,0,0.8-0.1
			c0,0.5-0.1,1.1-0.1,1.9c0,0.8-0.1,1.7-0.1,2.7s-0.1,2.1-0.1,3.4c0,1.2-0.1,2.5-0.1,3.9c0,3.6-0.8,6.2-2.3,7.8s-3.9,2.4-6.9,2.4
			C331.3,165.9,330,165.7,328.8,165.4"/>
		<path id="Path_63" class="st1" d="M357.8,156.2c-0.8-0.8-1.8-1.2-2.9-1.1c-0.3,0-0.5,0-0.8,0c-0.2,0-0.4,0-0.6,0
			c0,0.4,0,0.9,0,1.4s0,1,0,1.7c0,0.5,0,1,0,1.5s0,1,0,1.5s0,1,0,1.4s0,0.8,0,1c0.3,0,0.6,0,0.8,0c0.2,0,0.5,0,0.9,0
			c0.5,0,0.9-0.1,1.3-0.3c0.4-0.2,0.8-0.5,1.1-0.8c0.3-0.4,0.6-0.8,0.8-1.3c0.2-0.6,0.3-1.2,0.3-1.8
			C358.9,158.3,358.5,157.1,357.8,156.2 M358.4,148c-0.1-0.4-0.3-0.8-0.6-1.1c-0.3-0.3-0.6-0.6-1-0.8c-0.5-0.2-1-0.3-1.6-0.3
			c-0.5,0-0.8,0-1,0s-0.4,0-0.6,0.1c0,0.8-0.1,1.6-0.1,2.4s0,1.5,0,2c0,0.6,0,1.1,0,1.6s0,1,0,1.6h1.4c0.4,0,0.9-0.1,1.3-0.3
			c0.4-0.2,0.8-0.4,1.1-0.7c0.4-0.4,0.6-0.8,0.8-1.2c0.2-0.6,0.3-1.1,0.3-1.7C358.6,148.9,358.5,148.4,358.4,148 M348.9,148
			c-0.1-1.3-0.1-2.7-0.2-4c0.4,0,0.7,0.1,1.2,0.1s0.9,0,1.4,0c0.9,0,1.8,0,2.8,0c1-0.1,1.9-0.1,2.8-0.1c0.9,0,1.7,0.1,2.6,0.3
			c0.7,0.2,1.4,0.4,2,0.9c0.6,0.4,1,0.9,1.3,1.5c0.3,0.7,0.5,1.4,0.5,2.2c0,0.8-0.2,1.5-0.5,2.2c-0.3,0.6-0.8,1.1-1.3,1.5
			c-0.5,0.4-1.1,0.7-1.7,1c-0.5,0.2-1.1,0.4-1.6,0.5v0.1c0.6,0,1.1,0.2,1.7,0.3c0.7,0.2,1.3,0.5,1.8,0.9c0.6,0.4,1.1,1,1.5,1.6
			c0.4,0.7,0.6,1.5,0.6,2.4c0,1-0.2,2-0.6,2.9c-0.4,0.8-0.9,1.4-1.6,1.9c-0.7,0.5-1.5,0.9-2.3,1c-0.9,0.2-1.8,0.3-2.7,0.3
			c-0.8,0-1.6,0-2.3,0s-1.5,0-2.3,0h-1.7c-0.6,0-1.1,0-1.4,0.1c0.1-1.3,0.2-2.6,0.2-4s0.1-2.9,0.1-4.6v-4.2
			C349,150.9,348.9,149.3,348.9,148"/>
		<path id="Path_64" class="st1" d="M375,149.8c-0.5,1.3-1.1,2.5-1.5,3.7s-0.9,2.5-1.4,3.7h5.7c-0.5-1.3-0.9-2.5-1.4-3.7
			S375.5,151.1,375,149.8 M386.1,165.4c-0.5,0-1,0-1.4,0H382c-0.4,0-0.9,0-1.3,0c-0.3-1-0.7-2.1-1-3.1c-0.4-1.1-0.7-2.1-1.1-3.2
			c-0.7,0-1.3,0-2,0s-1.3,0-2,0c-0.5,0-1.1,0-1.6,0s-1.1,0-1.6,0c-0.4,1.1-0.8,2.1-1.2,3.2s-0.7,2.1-1,3.1c-0.2,0-0.5-0.1-0.7,0
			h-1.5c-0.3,0-0.5,0-0.8,0c0.3-0.5,0.6-1.3,1-2.3c0.4-1,0.9-2,1.4-3.3c0.5-1.2,1-2.5,1.6-3.9s1.1-2.8,1.7-4.2s1.1-2.8,1.7-4.2
			c0.6-1.4,1.1-2.7,1.5-3.8c0.2,0,0.4,0.1,0.6,0.1c0.2,0,0.4,0.1,0.6,0.1c0.2,0,0.4,0,0.6-0.1c0.2,0,0.4-0.1,0.6-0.1
			c0.7,1.8,1.4,3.7,2.1,5.7s1.5,4,2.3,6s1.5,3.8,2.2,5.6S385.5,164.2,386.1,165.4"/>
		<path id="Path_65" class="st1" d="M391,148c0-1.4-0.1-2.7-0.2-4.1c0.4,0,0.7,0.1,1.2,0.1s0.9,0,1.4,0s1,0,1.4,0s0.8,0,1.2-0.1
			c-0.1,1.4-0.1,2.7-0.2,4.1s0,2.9,0,4.6v4.2c0,1.7,0,3.3,0,4.6s0.1,2.7,0.2,4c-0.4,0-0.8-0.1-1.2-0.1h-2.8c-0.4,0-0.8,0-1.2,0.1
			c0.1-1.3,0.2-2.6,0.2-4s0.1-2.9,0.1-4.6v-4.2C391,150.9,391,149.3,391,148"/>
	</g>
</g>
</svg>
