<svg width="253" height="250" viewBox="0 0 253 250" fill="none" xmlns="http://www.w3.org/2000/svg">
<g filter="url(#filter0_d_110_121)">
<path d="M77.4749 105.67C77.4749 77.6289 77.5134 49.5879 77.4493 21.5469C77.4365 15.162 79.0659 9.55762 83.922 5.14962C87.925 1.52214 92.7298 0.0378831 98.0414 0.0314855C128.198 0.0186901 158.355 -0.0452866 188.512 0.0570761C200.694 0.10186 208.873 8.2461 208.886 20.4145C208.957 77.4561 208.957 134.504 208.873 191.546C208.854 203.746 200.758 211.852 188.519 211.903C158.362 212.038 128.205 212.025 98.0479 211.91C85.436 211.865 77.5199 203.605 77.4942 190.746C77.4365 162.392 77.4749 134.031 77.4749 105.67ZM87.399 105.932C87.399 133.973 87.3925 162.021 87.4054 190.062C87.4118 198.379 91.017 201.993 99.2859 201.993C128.481 202 157.675 202 186.87 201.993C195.402 201.993 199.007 198.43 199.007 189.985C199.014 165.885 199.007 141.791 199.007 117.691C199.007 85.4916 199.02 53.2857 199.001 21.0862C198.994 13.8824 195.094 10.0438 187.89 9.99266C186.498 9.97987 185.087 10.1462 183.727 9.96067C180.923 9.57681 179.685 10.6132 178.813 13.409C176.285 21.4893 172.937 23.6837 164.494 23.6773C149.952 23.6645 135.402 23.4726 120.866 23.7605C114.419 23.8884 110.102 21.1694 108.459 15.3859C107.087 10.5557 104.521 9.73036 100.043 9.8903C90.8181 10.2294 87.4054 13.345 87.4118 22.4489C87.399 50.2724 87.399 78.1023 87.399 105.932Z" fill="white"/>
<path d="M237.645 102.132C238.485 100.616 239.146 99.432 239.967 97.9541C243.803 100.008 247.511 101.831 251.045 103.949C252.925 105.075 252.887 106.949 251.033 108.062C247.504 110.18 243.79 112.003 239.96 114.057C239.139 112.56 238.485 111.376 237.683 109.918C239.845 108.67 241.917 107.48 244.509 105.99C242.071 104.614 240.012 103.456 237.645 102.132Z" fill="white"/>
<path d="M41.8527 105.99C44.4187 107.429 46.4138 108.555 48.7104 109.847C47.9919 111.191 47.3247 112.445 46.4779 114.025C42.6674 112.01 38.9724 110.193 35.4249 108.114C33.4747 106.975 33.5389 104.96 35.5404 103.802C39.0173 101.786 42.6225 100.001 46.4715 97.9541C47.2734 99.4448 47.9406 100.692 48.7232 102.151C46.5293 103.379 44.5149 104.499 41.8527 105.99Z" fill="white"/>
<path d="M229.107 92.1897C228.324 93.6612 227.631 94.9535 226.836 96.4569C223.025 94.4417 219.189 92.7847 215.828 90.4367C214.602 89.5794 214.525 87.0907 213.929 85.3442C214.23 85.1202 214.538 84.8899 214.84 84.666C219.548 87.1483 224.257 89.6306 229.107 92.1897Z" fill="white"/>
<path d="M226.842 115.535C227.644 117.032 228.292 118.235 229.119 119.764C224.314 122.329 219.606 124.837 214.807 127.396C213.807 123.897 214.346 121.607 217.765 120.231C220.793 119.009 223.602 117.237 226.842 115.535Z" fill="white"/>
<path d="M57.3062 92.2158C62.1174 89.6631 66.7875 87.1936 71.5731 84.6602C72.7406 88.2876 71.881 90.4884 68.4362 91.8831C65.4147 93.1051 62.6178 94.8772 59.5771 96.4767C58.7624 94.9476 58.076 93.6553 57.3062 92.2158Z" fill="white"/>
<path d="M71.426 127.256C66.7623 124.78 62.105 122.311 57.313 119.764C58.0892 118.312 58.7756 117.02 59.5839 115.503C63.4008 117.531 67.237 119.188 70.5856 121.536C71.8045 122.394 71.875 124.889 72.4652 126.635C72.1188 126.84 72.4652 128.5 71.426 127.256Z" fill="white"/>
<path d="M106.297 104.339C106.297 98.7923 106.342 93.2456 106.278 87.7052C106.246 85.0629 107.285 83.3931 109.729 82.184C119.102 77.5393 128.41 72.7602 137.686 67.93C139.905 66.7784 141.824 66.7784 144.024 67.9428C154.872 73.6943 165.745 79.3882 176.663 85.0054C179.031 86.2273 180.147 87.8523 180.134 90.5329C180.07 101.838 180.089 113.142 180.128 124.447C180.134 126.974 179.108 128.593 176.817 129.744C167.272 134.523 157.829 139.514 148.226 144.165C146.757 144.875 144.325 144.862 142.869 144.126C131.617 138.471 120.513 132.514 109.319 126.744C107.112 125.605 106.265 123.974 106.284 121.619C106.323 115.855 106.297 110.097 106.297 104.339ZM114.053 92.5354C113.873 93.3479 113.713 93.7318 113.713 94.1156C113.694 102.311 113.617 110.506 113.79 118.696C113.809 119.732 114.919 121.152 115.907 121.69C123.676 125.912 131.534 129.968 139.373 134.05C140.053 134.402 140.842 134.562 141.894 134.914C141.894 125.861 141.958 117.243 141.798 108.638C141.779 107.711 140.605 106.476 139.649 105.951C133.766 102.733 127.788 99.6752 121.841 96.566C119.333 95.2608 116.805 93.9621 114.053 92.5354Z" fill="white"/>
<path d="M96.3607 77.0208C95.5845 75.5621 94.9558 74.3785 94.0962 72.7535C102.712 68.1792 111.205 63.6752 120.013 58.9985C120.795 60.4124 121.482 61.6536 122.361 63.2402C113.623 67.8657 105.13 72.3697 96.3607 77.0208Z" fill="white"/>
<path d="M94.0898 139.251C94.9623 137.6 95.591 136.417 96.3608 134.977C105.079 139.59 113.508 144.055 122.284 148.7C121.565 150.127 120.937 151.387 120.115 153.018C111.398 148.406 102.898 143.915 94.0898 139.251Z" fill="white"/>
<path d="M192.336 72.7022C191.483 74.308 190.854 75.5043 190.071 76.9886C181.353 72.3759 172.854 67.8719 164.104 63.24C164.854 61.7877 165.47 60.5914 166.317 58.96C174.958 63.5279 183.451 68.0191 192.336 72.7022Z" fill="white"/>
<path d="M190.026 135.035C190.828 136.5 191.476 137.671 192.349 139.264C183.656 143.87 175.15 148.387 166.374 153.038C165.572 151.567 164.931 150.39 164.065 148.797C172.751 144.197 181.257 139.686 190.026 135.035Z" fill="white"/>
<path d="M133.266 154.004C139.944 160.165 146.507 160.434 153.012 154.113C154.013 155.936 154.712 157.203 155.559 158.738C151.806 160.721 148.316 162.718 144.672 164.394C143.716 164.835 142.145 164.579 141.112 164.093C137.847 162.551 134.71 160.753 131.053 158.802C131.65 157.491 132.266 156.173 133.266 154.004Z" fill="white"/>
<path d="M152.902 58.0074C146.494 51.3666 140.239 52.3198 133.959 57.0605C133.811 57.1757 133.555 57.1565 133.061 57.2524C132.407 56.0625 131.714 54.7957 130.886 53.2859C134.607 51.2962 138.097 49.3065 141.715 47.5856C142.6 47.1633 144.063 47.2913 144.993 47.7327C148.438 49.3705 151.773 51.245 155.552 53.2411C154.737 54.6998 154.012 56.0049 152.902 58.0074Z" fill="white"/>
</g>
<defs>
<filter id="filter0_d_110_121" x="0" y="0" width="252.439" height="250" filterUnits="userSpaceOnUse" color-interpolation-filters="sRGB">
<feFlood flood-opacity="0" result="BackgroundImageFix"/>
<feColorMatrix in="SourceAlpha" type="matrix" values="0 0 0 0 0 0 0 0 0 0 0 0 0 0 0 0 0 0 127 0" result="hardAlpha"/>
<feOffset dx="-17" dy="21"/>
<feGaussianBlur stdDeviation="8.5"/>
<feComposite in2="hardAlpha" operator="out"/>
<feColorMatrix type="matrix" values="0 0 0 0 0 0 0 0 0 0 0 0 0 0 0 0 0 0 0.35 0"/>
<feBlend mode="normal" in2="BackgroundImageFix" result="effect1_dropShadow_110_121"/>
<feBlend mode="normal" in="SourceGraphic" in2="effect1_dropShadow_110_121" result="shape"/>
</filter>
</defs>
</svg>
