<svg width="300" height="260" viewBox="0 0 300 260" fill="none" xmlns="http://www.w3.org/2000/svg">
<g filter="url(#filter0_d_114_3524)">
<path d="M196.573 141.472C186.411 141.472 176.904 141.472 167.397 141.472C157.89 141.472 148.397 141.472 138.289 141.472C139.776 146.451 142.9 147.883 146.964 148.306C150.388 148.661 154.426 149.029 154.303 153.626C154.153 158.618 149.802 158.591 146.187 158.85C141.904 159.15 137.785 158.277 135.261 154.567C126.123 141.104 112.619 138.376 97.547 137.326C82.6385 136.289 67.8528 133.398 53.6673 128.255C48.2932 126.305 43.0827 124.041 38.7589 120.235C32.3617 114.588 32.4299 106.991 38.868 101.426C43.4101 97.4837 48.8933 95.2331 54.4994 93.3235C67.2391 89.0133 80.3879 86.5717 93.6869 84.7985C97.2742 84.3211 101.189 83.9938 102.007 88.3176C102.948 93.2962 98.4881 94.0737 94.9418 94.6739C84.6436 96.3925 74.2909 97.8247 64.2519 100.785C59.6962 102.135 55.1541 103.676 50.8166 105.586C48.2795 106.704 44.6377 107.686 44.9241 111.315C45.1696 114.37 48.4159 115.243 50.8575 116.32C62.165 121.326 74.1954 123.877 86.3077 125.718C134.607 133.057 183.056 133.234 231.559 128.01C235.215 127.614 238.966 127.464 239.784 131.747C240.63 136.18 237.015 137.912 233.387 137.79C217.865 137.271 205.944 143.628 196.846 155.931C195.591 157.622 193.599 158.427 191.485 158.604C183.547 159.259 175.608 159.3 167.684 158.577C164.765 158.304 162.323 157.172 162.309 153.639C162.309 150.107 164.751 148.893 167.67 148.729C173.099 148.415 178.568 148.115 183.997 148.361C189.617 148.579 193.504 146.342 196.573 141.472Z" fill="white"/>
<path d="M169.607 111.765C155.435 111.778 142.818 110.291 130.706 106.022C112.81 99.6932 107.504 89.2859 112.442 71.0766C119.63 44.6015 144.332 27.0878 171.353 29.2975C198.21 31.5071 220.075 53.1128 222.816 80.1335C223.976 91.632 219.311 99.4068 207.499 104.685C195.032 110.251 181.787 111.928 169.607 111.765ZM166.156 101.466C178.541 101.889 190.653 100.416 202.193 95.7649C211.918 91.8502 214.21 87.3081 212.15 77.16C207.567 54.6268 189.412 39.4592 166.947 39.4047C144.305 39.3637 126.232 54.1904 121.444 76.7508C119.153 87.5536 121.567 92.1094 132.097 96.1604C143.05 100.375 154.48 101.78 166.156 101.466Z" fill="white"/>
<path d="M240.466 85.0574C255.225 87.4171 270.979 89.4494 285.683 95.9557C287.129 96.5967 288.547 97.3197 289.911 98.1381C302.924 105.954 302.801 116.757 289.543 123.972C278.849 129.783 267.119 132.443 255.293 134.679C251.815 135.334 247.955 135.239 247.382 130.628C246.891 126.618 250.151 125.309 253.465 124.695C263.286 122.881 273.038 120.767 282.15 116.525C284.701 115.338 288.424 114.424 288.383 111.014C288.342 107.686 284.769 106.595 282.136 105.463C269.097 99.8976 255.238 97.5106 241.339 95.4101C240.439 95.2737 239.512 95.3282 238.625 95.1509C235.229 94.5098 231.328 93.9642 231.723 89.3403C232.132 84.58 236.102 85.0028 240.466 85.0574Z" fill="white"/>
<path d="M79.3145 30C81.5857 30.0565 82.6189 31.4038 82.9796 33.5237C83.7594 38.0649 86.3426 40.816 91.2359 41.419C93.3122 41.6734 95.0571 42.6815 94.9986 44.9898C94.9401 47.2698 93.2927 48.0895 91.119 48.4098C86.3718 49.1164 83.6425 51.8864 82.9699 56.4653C82.6482 58.6134 81.5662 60.0549 79.2462 59.9984C77.1407 59.9513 76.0587 58.4344 75.8345 56.5972C75.2204 51.6697 72.3156 49.0693 67.3832 48.325C65.4044 48.0235 64.0397 47.0437 64.0008 44.9709C63.9618 42.8699 65.4434 41.7582 67.3247 41.5415C72.6762 40.9479 75.3374 38.0649 75.9807 33.0149C76.1952 31.385 77.3162 30.1884 79.3145 30Z" fill="white"/>
<path d="M271.137 31C269.242 30.8541 267.989 29.8036 267.725 27.7513C267.065 22.5767 264.313 19.5808 259.271 18.8805C257.302 18.6082 256.039 17.4896 256.001 15.4178C255.954 13.2974 257.377 12.0816 259.215 11.8578C264.351 11.2256 267.009 8.2395 267.744 3.1038C267.998 1.31408 269.007 0.137151 270.835 0.0107036C272.946 -0.135197 274.199 1.22654 274.407 3.11352C275.01 8.6772 278.026 11.3618 283.247 12.0426C284.887 12.2566 286.046 13.5308 285.999 15.4567C285.951 17.334 284.896 18.5401 283.162 18.7833C277.931 19.5225 275.057 22.4794 274.416 27.9166C274.209 29.648 273.021 30.7763 271.137 31Z" fill="white"/>
<path d="M78.9425 195C80.7459 195.186 81.8279 196.152 82.0742 197.939C82.6988 202.461 85.3642 204.976 90.053 205.577C91.9091 205.814 93.0087 206.89 92.9999 208.677C92.9912 210.286 91.8651 211.387 90.2993 211.573C85.3994 212.157 82.6636 214.681 81.995 219.398C81.7751 220.956 80.7195 221.939 79.0217 221.998C77.06 222.057 75.9692 220.821 75.7756 219.178C75.2126 214.563 72.6175 212.166 67.8672 211.607C66.1606 211.404 64.8851 210.328 65.0082 208.431C65.1226 206.568 66.4157 205.806 68.1839 205.526C72.4064 204.857 75.0543 202.681 75.6085 198.404C75.8548 196.592 76.7609 195.195 78.9425 195Z" fill="white"/>
<path d="M246.711 162C248.984 162.056 250.229 163.29 250.455 165.136C251.087 170.211 253.841 173.007 258.868 173.742C260.81 174.024 262.046 175.164 261.999 177.207C261.942 179.288 260.443 180.305 258.632 180.522C253.69 181.105 251.087 183.789 250.493 188.695C250.276 190.503 249.229 191.981 247.126 192C245.07 192.019 244.004 190.747 243.702 188.817C242.967 184.071 240.448 181.199 235.497 180.587C233.479 180.333 231.876 179.213 232.008 176.896C232.121 174.881 233.498 173.958 235.441 173.685C240.26 173.007 243.014 170.23 243.665 165.427C243.929 163.459 244.985 162.339 246.711 162Z" fill="white"/>
<path d="M172.266 191.967C172.076 196.032 172.048 200.11 171.666 204.161C171.394 207.094 169.961 209.508 166.592 209.426C163.619 209.372 162.159 207.244 161.886 204.529C161.027 196.182 161.095 187.807 161.832 179.459C162.077 176.731 163.578 174.672 166.551 174.59C169.907 174.494 171.503 176.772 171.694 179.759C171.953 183.81 171.762 187.889 171.762 191.953C171.925 191.967 172.103 191.967 172.266 191.967Z" fill="white"/>
<path d="M144.7 183.21C144.7 179.377 144.577 175.531 144.741 171.698C144.864 168.725 146.214 166.242 149.474 166.092C152.761 165.928 154.507 168.274 154.575 171.262C154.78 179.391 154.766 187.52 154.603 195.65C154.548 198.651 152.857 200.997 149.57 200.915C146.296 200.833 144.85 198.432 144.727 195.432C144.577 191.34 144.7 187.275 144.7 183.21Z" fill="white"/>
<path d="M178.8 183.128C178.8 179.295 178.677 175.449 178.841 171.616C178.964 168.629 180.396 166.187 183.642 166.078C186.916 165.969 188.621 168.343 188.689 171.33C188.867 179.445 188.88 187.589 188.689 195.704C188.621 198.691 186.889 201.01 183.601 200.874C180.328 200.737 178.95 198.31 178.828 195.309C178.677 191.271 178.8 187.193 178.8 183.128Z" fill="white"/>
<path d="M143.855 55.0903C146.119 55.1995 147.456 55.9633 148.356 57.4091C149.652 59.4688 149.147 61.542 147.619 63.0151C141.25 69.1531 138.181 76.6824 137.417 85.371C137.171 88.1535 135.493 89.9677 132.425 89.8313C129.656 89.7085 128.619 87.9626 128.21 85.4119C126.832 76.9688 133.638 60.9009 140.649 56.4543C141.768 55.745 143.105 55.4041 143.855 55.0903Z" fill="white"/>
</g>
<defs>
<filter id="filter0_d_114_3524" x="0" y="0" width="299.579" height="260" filterUnits="userSpaceOnUse" color-interpolation-filters="sRGB">
<feFlood flood-opacity="0" result="BackgroundImageFix"/>
<feColorMatrix in="SourceAlpha" type="matrix" values="0 0 0 0 0 0 0 0 0 0 0 0 0 0 0 0 0 0 127 0" result="hardAlpha"/>
<feOffset dx="-17" dy="21"/>
<feGaussianBlur stdDeviation="8.5"/>
<feComposite in2="hardAlpha" operator="out"/>
<feColorMatrix type="matrix" values="0 0 0 0 0 0 0 0 0 0 0 0 0 0 0 0 0 0 0.35 0"/>
<feBlend mode="normal" in2="BackgroundImageFix" result="effect1_dropShadow_114_3524"/>
<feBlend mode="normal" in="SourceGraphic" in2="effect1_dropShadow_114_3524" result="shape"/>
</filter>
</defs>
</svg>
