<svg width="43" height="42" viewBox="0 0 43 42" fill="none" xmlns="http://www.w3.org/2000/svg">
<path fill-rule="evenodd" clip-rule="evenodd" d="M21.4939 0C32.894 0 42.1495 9.25546 42.1495 20.6556C42.1495 32.0556 32.894 41.3111 21.4939 41.3111C10.0938 41.3111 0.838379 32.0556 0.838379 20.6556C0.838379 9.25546 10.0938 0 21.4939 0ZM21.4939 7.74583C17.9879 7.74583 17.5482 7.76068 16.1713 7.82353C14.7972 7.88623 13.8587 8.10448 13.0375 8.42359C12.1886 8.75352 11.4686 9.19495 10.7509 9.91265C10.0332 10.6304 9.59182 11.3503 9.26189 12.1992C8.94278 13.0203 8.72461 13.9588 8.66183 15.3329C8.59906 16.7099 8.58421 17.1495 8.58421 20.6556C8.58421 24.1616 8.59906 24.6012 8.66183 25.9782C8.72461 27.3523 8.94278 28.2908 9.26189 29.1119C9.59182 29.9608 10.0332 30.6808 10.7509 31.3985C11.4686 32.1162 12.1886 32.5577 13.0375 32.8876C13.8587 33.2066 14.7972 33.4249 16.1713 33.4876C17.5482 33.5504 17.9879 33.5653 21.4939 33.5653C25 33.5653 25.4396 33.5504 26.8166 33.4876C28.1907 33.4249 29.1291 33.2066 29.9503 32.8876C30.7992 32.5577 31.5191 32.1162 32.2369 31.3985C32.9546 30.6808 33.3961 29.9608 33.726 29.1119C34.045 28.2908 34.2633 27.3523 34.326 25.9782C34.3888 24.6012 34.4037 24.1616 34.4037 20.6556C34.4037 17.1495 34.3888 16.7099 34.326 15.3329C34.2633 13.9588 34.045 13.0203 33.726 12.1992C33.3961 11.3503 32.9546 10.6304 32.2369 9.91265C31.5191 9.19495 30.7992 8.75352 29.9503 8.42359C29.1291 8.10448 28.1907 7.88623 26.8166 7.82353C25.4396 7.76068 25 7.74583 21.4939 7.74583ZM21.4939 10.0719C24.941 10.0719 25.3493 10.0851 26.7106 10.1472C27.9693 10.2047 28.6528 10.4149 29.1077 10.5917C29.7103 10.8259 30.1404 11.1057 30.5921 11.5574C31.0439 12.0091 31.3236 12.4392 31.5578 13.0418C31.7346 13.4967 31.9449 14.1802 32.0023 15.4389C32.0644 16.8002 32.0776 17.2085 32.0776 20.6556C32.0776 24.1026 32.0644 24.5109 32.0023 25.8722C31.9449 27.1309 31.7346 27.8144 31.5578 28.2693C31.3236 28.8719 31.0439 29.302 30.5921 29.7537C30.1404 30.2055 29.7103 30.4853 29.1077 30.7194C28.6528 30.8962 27.9693 31.1065 26.7106 31.1639C25.3495 31.226 24.9412 31.2392 21.4939 31.2392C18.0466 31.2392 17.6384 31.226 16.2773 31.1639C15.0186 31.1065 14.3351 30.8962 13.8802 30.7194C13.2775 30.4853 12.8475 30.2055 12.3957 29.7537C11.944 29.302 11.6642 28.8719 11.4301 28.2693C11.2533 27.8144 11.0429 27.1309 10.9855 25.8722C10.9234 24.5109 10.9103 24.1026 10.9103 20.6556C10.9103 17.2085 10.9234 16.8002 10.9855 15.4389C11.0429 14.1802 11.2533 13.4967 11.4301 13.0418C11.6642 12.4392 11.944 12.0091 12.3957 11.5574C12.8475 11.1057 13.2775 10.8259 13.8802 10.5917C14.3351 10.4149 15.0186 10.2047 16.2773 10.1472C17.6386 10.0851 18.0469 10.0719 21.4939 10.0719ZM21.4939 14.0263C17.8327 14.0263 14.8646 16.9943 14.8646 20.6556C14.8646 24.3168 17.8327 27.2849 21.4939 27.2849C25.1552 27.2849 28.1232 24.3168 28.1232 20.6556C28.1232 16.9943 25.1552 14.0263 21.4939 14.0263ZM21.4939 24.9588C19.1173 24.9588 17.1907 23.0322 17.1907 20.6556C17.1907 18.279 19.1173 16.3523 21.4939 16.3523C23.8705 16.3523 25.7971 18.279 25.7971 20.6556C25.7971 23.0322 23.8705 24.9588 21.4939 24.9588ZM29.9344 13.7643C29.9344 14.6199 29.2407 15.3134 28.3851 15.3134C27.5296 15.3134 26.8361 14.6199 26.8361 13.7643C26.8361 12.9088 27.5296 12.2152 28.3851 12.2152C29.2407 12.2152 29.9344 12.9088 29.9344 13.7643Z" fill="white"/>
</svg>
