<svg width="379" height="374" viewBox="0 0 379 374" fill="none" xmlns="http://www.w3.org/2000/svg">
<g filter="url(#filter0_d_221_1666)">
<path d="M102.664 167.891C102.664 123.604 102.724 79.3162 102.623 35.0286C102.603 24.9444 105.176 16.093 112.846 9.13105C119.168 3.40186 126.757 1.05763 135.146 1.04753C182.776 1.02732 230.405 0.926278 278.034 1.08795C297.275 1.15868 310.192 14.0216 310.213 33.2401C310.324 123.331 310.324 213.432 310.193 303.523C310.162 322.792 297.376 335.594 278.044 335.675C230.415 335.887 182.786 335.867 135.156 335.685C115.237 335.614 102.735 322.569 102.694 302.26C102.603 257.477 102.664 212.684 102.664 167.891ZM118.338 168.306C118.338 212.593 118.327 256.891 118.348 301.178C118.358 314.314 124.052 320.023 137.112 320.023C183.221 320.033 229.331 320.033 275.441 320.023C288.916 320.023 294.61 314.395 294.61 301.057C294.62 262.994 294.61 224.941 294.61 186.877C294.61 136.022 294.63 85.1565 294.6 34.3011C294.59 22.9235 288.429 16.8609 277.052 16.7801C274.853 16.7599 272.624 17.0226 270.476 16.7296C266.048 16.1233 264.093 17.7602 262.715 22.1758C258.723 34.9377 253.434 38.4035 240.101 38.3934C217.132 38.3732 194.153 38.07 171.195 38.5247C161.012 38.7268 154.194 34.4325 151.6 25.2981C149.432 17.6693 145.379 16.3658 138.307 16.6184C123.738 17.1539 118.348 22.0748 118.358 36.4533C118.338 80.3974 118.338 124.351 118.338 168.306Z" fill="white"/>
<path d="M355.633 162.303C356.961 159.909 358.004 158.039 359.301 155.705C365.36 158.949 371.216 161.828 376.799 165.173C379.767 166.951 379.706 169.912 376.778 171.67C371.206 175.015 365.34 177.894 359.291 181.138C357.994 178.774 356.961 176.904 355.694 174.6C359.108 172.63 362.381 170.751 366.474 168.396C362.624 166.224 359.372 164.395 355.633 162.303Z" fill="white"/>
<path d="M46.4025 168.396C50.4552 170.67 53.6062 172.448 57.2333 174.489C56.0986 176.611 55.0449 178.592 53.7075 181.087C47.6892 177.905 41.8533 175.035 36.2505 171.751C33.1704 169.952 33.2717 166.77 36.4328 164.941C41.9242 161.758 47.6183 158.939 53.6974 155.705C54.9638 158.06 56.0175 160.03 57.2536 162.334C53.7885 164.274 50.6072 166.042 46.4025 168.396Z" fill="white"/>
<path d="M342.149 146.601C340.913 148.925 339.819 150.966 338.562 153.341C332.544 150.158 326.485 147.541 321.176 143.832C319.241 142.478 319.12 138.548 318.177 135.789C318.653 135.436 319.14 135.072 319.616 134.718C327.053 138.639 334.489 142.559 342.149 146.601Z" fill="white"/>
<path d="M338.572 183.472C339.838 185.837 340.861 187.736 342.168 190.151C334.58 194.203 327.143 198.164 319.564 202.206C317.984 196.679 318.835 193.061 324.235 190.889C329.017 188.959 333.455 186.16 338.572 183.472Z" fill="white"/>
<path d="M70.8091 146.642C78.4079 142.61 85.7838 138.71 93.3421 134.709C95.1861 140.438 93.8284 143.914 88.3877 146.117C83.6156 148.047 79.1982 150.845 74.3957 153.372C73.109 150.957 72.0249 148.916 70.8091 146.642Z" fill="white"/>
<path d="M93.1102 201.984C85.7444 198.074 78.3887 194.173 70.8203 190.152C72.0463 187.858 73.1304 185.817 74.407 183.422C80.4354 186.625 86.4941 189.243 91.7829 192.951C93.708 194.305 93.8194 198.246 94.7515 201.004C94.2044 201.327 94.7515 203.949 93.1102 201.984Z" fill="white"/>
<path d="M148.185 165.79C148.185 157.029 148.256 148.269 148.155 139.518C148.104 135.345 149.746 132.708 153.606 130.798C168.408 123.462 183.11 115.914 197.76 108.285C201.266 106.467 204.295 106.467 207.77 108.306C224.903 117.389 242.076 126.382 259.321 135.254C263.059 137.184 264.822 139.75 264.802 143.984C264.701 161.839 264.731 179.693 264.792 197.548C264.802 201.539 263.181 204.095 259.564 205.914C244.488 213.462 229.574 221.344 214.407 228.689C212.086 229.811 208.246 229.791 205.947 228.629C188.175 219.696 170.637 210.289 152.957 201.175C149.472 199.377 148.135 196.8 148.165 193.082C148.226 183.977 148.185 174.883 148.185 165.79ZM160.435 147.147C160.151 148.43 159.898 149.036 159.898 149.643C159.867 162.586 159.746 175.53 160.019 188.464C160.05 190.101 161.802 192.344 163.363 193.193C175.632 199.862 188.044 206.268 200.425 212.714C201.499 213.27 202.745 213.523 204.406 214.078C204.406 199.781 204.508 186.17 204.255 172.58C204.224 171.115 202.37 169.164 200.86 168.336C191.57 163.253 182.127 158.423 172.735 153.513C168.773 151.451 164.781 149.4 160.435 147.147Z" fill="white"/>
<path d="M132.492 122.643C131.266 120.339 130.273 118.47 128.915 115.904C142.522 108.679 155.936 101.566 169.847 94.1792C171.083 96.4123 172.168 98.3725 173.556 100.878C159.756 108.184 146.342 115.297 132.492 122.643Z" fill="white"/>
<path d="M128.905 220.928C130.283 218.322 131.276 216.452 132.492 214.179C146.261 221.464 159.574 228.517 173.434 235.853C172.3 238.106 171.307 240.096 170.01 242.673C156.241 235.388 142.816 228.295 128.905 220.928Z" fill="white"/>
<path d="M284.073 115.823C282.726 118.359 281.733 120.248 280.497 122.592C266.728 115.307 253.303 108.194 239.483 100.878C240.669 98.5844 241.641 96.6949 242.979 94.1183C256.626 101.333 270.041 108.426 284.073 115.823Z" fill="white"/>
<path d="M280.426 214.271C281.693 216.584 282.716 218.434 284.094 220.949C270.365 228.225 256.931 235.358 243.07 242.704C241.804 240.38 240.791 238.521 239.423 236.005C253.141 228.74 266.576 221.616 280.426 214.271Z" fill="white"/>
<path d="M190.78 244.229C201.327 253.96 211.692 254.384 221.965 244.401C223.546 247.281 224.65 249.282 225.988 251.707C220.06 254.839 214.549 257.992 208.794 260.639C207.284 261.336 204.802 260.932 203.171 260.164C198.014 257.729 193.059 254.89 187.284 251.808C188.226 249.736 189.199 247.655 190.78 244.229Z" fill="white"/>
<path d="M221.793 92.6139C211.672 82.1256 201.793 83.6311 191.874 91.1185C191.641 91.3004 191.236 91.27 190.456 91.4216C189.422 89.5422 188.328 87.5415 187.021 85.1569C192.897 82.0144 198.409 78.8719 204.123 76.1539C205.522 75.487 207.832 75.6891 209.301 76.3863C214.741 78.973 220.01 81.9336 225.978 85.0861C224.691 87.39 223.546 89.4512 221.793 92.6139Z" fill="white"/>
</g>
<defs>
<filter id="filter0_d_221_1666" x="0" y="0.997803" width="379" height="372.83" filterUnits="userSpaceOnUse" color-interpolation-filters="sRGB">
<feFlood flood-opacity="0" result="BackgroundImageFix"/>
<feColorMatrix in="SourceAlpha" type="matrix" values="0 0 0 0 0 0 0 0 0 0 0 0 0 0 0 0 0 0 127 0" result="hardAlpha"/>
<feOffset dx="-17" dy="21"/>
<feGaussianBlur stdDeviation="8.5"/>
<feComposite in2="hardAlpha" operator="out"/>
<feColorMatrix type="matrix" values="0 0 0 0 0 0 0 0 0 0 0 0 0 0 0 0 0 0 0.35 0"/>
<feBlend mode="normal" in2="BackgroundImageFix" result="effect1_dropShadow_221_1666"/>
<feBlend mode="normal" in="SourceGraphic" in2="effect1_dropShadow_221_1666" result="shape"/>
</filter>
</defs>
</svg>
