<svg width="740" height="677" viewBox="0 0 740 677" fill="none" xmlns="http://www.w3.org/2000/svg">
<g opacity="0.17">
<path d="M352.526 535.7C453.759 535.7 535.825 453.65 535.825 352.437C535.825 251.224 453.759 169.174 352.526 169.174C251.292 169.174 169.227 251.224 169.227 352.437C169.227 453.65 251.292 535.7 352.526 535.7Z" stroke="#5DFFE8" stroke-width="8.3476" stroke-miterlimit="10"/>
<path d="M352.526 613.092C496.51 613.092 613.232 496.393 613.232 352.437C613.232 208.481 496.51 91.7822 352.526 91.7822C208.542 91.7822 91.8193 208.481 91.8193 352.437C91.8193 496.393 208.542 613.092 352.526 613.092Z" stroke="#5DFFE8" stroke-width="0.7761" stroke-miterlimit="10"/>
<path d="M79.5027 430.23C72.4674 405.506 68.7114 379.41 68.7114 352.437C68.7114 195.709 195.785 68.6601 352.545 68.6601" stroke="#5DFFE8" stroke-width="0.2609" stroke-miterlimit="10"/>
<path d="M636.359 352.437C636.359 509.165 509.285 636.214 352.526 636.214" stroke="#5DFFE8" stroke-width="0.2609" stroke-miterlimit="10"/>
<path d="M190.638 663.359C78.5303 604.895 2 487.606 2 352.437C2.01907 158.9 158.95 2 352.526 2" stroke="#5DFFE8" stroke-width="3.1304" stroke-miterlimit="10"/>
<path d="M703.052 352.437C703.052 490.866 622.784 610.538 506.235 667.495" stroke="#5DFFE8" stroke-width="3.1304" stroke-miterlimit="10"/>
<path d="M97.6914 178.858C165.375 79.621 288.083 25.1034 413.269 50.2654C580.191 83.8146 688.294 246.281 654.758 413.169C640.706 483.032 604.061 542.582 553.956 585.776" stroke="#5DFFE8" stroke-width="0.9177" stroke-miterlimit="10"/>
<path d="M501.659 639.779C457.026 662.978 406.311 676.092 352.526 676.092C209.208 676.092 87.6629 582.974 45.0698 453.962" stroke="#5DFFE8" stroke-width="0.9636" stroke-miterlimit="10"/>
</g>
<path d="M576.856 312.471L576.696 369.136L519.486 336.046L519.646 279.381L551.716 258.068L593.138 288.194L576.856 312.471Z" fill="#69767E"/>
<path d="M519.646 279.381L519.486 336.046L457.099 372.344L457.259 315.679L519.646 279.381Z" fill="#839098"/>
<path d="M632.944 297.771L632.784 354.436L618.695 385.334L618.855 328.669L632.944 297.771Z" fill="#94A1A9"/>
<path d="M574.774 354.382L574.614 410.993L549.371 425.694L549.531 369.083L574.774 354.382Z" fill="#839098"/>
<path d="M739.999 347.593L739.839 404.258L695.17 430.292L695.331 373.627L739.999 347.593Z" fill="#839098"/>
<path d="M695.331 373.627L695.171 430.292L574.614 410.994L574.774 354.382L695.331 373.627Z" fill="#69767E"/>
<path d="M585.981 437.241L585.821 493.906L381.424 375.711L381.584 319.047L585.981 437.241Z" fill="#69767E"/>
<path d="M626.595 413.613L626.435 470.278L585.822 493.906L585.982 437.241L626.595 413.613Z" fill="#839098"/>
<path d="M412.162 480.542L412.002 537.153L311.191 416.606L311.352 359.942L412.162 480.542Z" fill="#69767E"/>
<path d="M439.754 522.398L439.594 579.063L162.67 503.047L162.831 446.435L439.754 522.398Z" fill="#69767E"/>
<path d="M484.424 496.365L484.264 553.03L439.595 579.064L439.755 522.399L484.424 496.365Z" fill="#839098"/>
<path d="M695.332 373.627L574.775 354.383L549.532 369.083L626.594 413.613L585.982 437.242L381.585 319.047C381.585 319.047 431.211 288.797 482.048 259.952C500.338 249.574 532.629 241.401 553.597 243.006C593.274 246.042 632.945 267.483 632.945 297.771C632.945 311.033 618.856 328.67 618.856 328.67L740 347.593L695.332 373.627ZM514.47 348.77L576.856 312.472C576.856 312.472 593.137 291.96 568.66 279.382C560.301 274.182 539.736 267.483 519.646 279.382C495.228 293.844 457.26 315.679 457.26 315.679L514.47 348.77ZM311.353 359.942L412.164 480.542L204.032 422.434L162.832 446.436L439.755 522.399L484.424 496.365L352.553 335.94L311.353 359.942Z" fill="white"/>
<path d="M462.66 241.591L424.542 219.455L380.099 172.801L418.217 194.938L462.66 241.591Z" fill="#69767E"/>
<path d="M462.761 99.1153C462.795 98.7412 462.829 98.3672 462.863 97.9931C462.897 97.6871 462.931 97.3811 462.965 97.041C463.033 95.9529 463.101 94.8988 463.101 93.8106C463.067 85.6837 460.517 80.2431 455.96 77.6248L417.842 55.4882C422.365 58.1065 424.949 63.5471 424.983 71.6741C424.983 72.7282 424.915 73.8163 424.847 74.9044C424.813 75.2105 424.779 75.5165 424.745 75.8565C424.677 76.5366 424.575 77.2507 424.473 77.9308C424.371 78.5429 424.269 79.1209 424.167 79.733C424.031 80.4471 423.895 81.1272 423.725 81.8412C423.657 82.1813 423.555 82.5213 423.487 82.8614C423.215 83.9155 422.909 84.9356 422.535 85.9897C422.501 86.1258 422.433 86.2618 422.399 86.4318C422.059 87.4179 421.685 88.404 421.277 89.3561C421.209 89.5261 421.141 89.6962 421.073 89.8662C420.631 90.8863 420.154 91.9064 419.644 92.9265C419.542 93.1306 419.44 93.3346 419.338 93.5386C418.794 94.5587 418.25 95.5789 417.672 96.599C417.604 96.735 417.502 96.837 417.434 96.973C416.89 97.8571 416.346 98.7412 415.768 99.6253C415.598 99.8974 415.394 100.169 415.224 100.441C414.68 101.258 414.102 102.04 413.49 102.822C413.32 103.06 413.15 103.298 412.98 103.536C412.504 104.182 411.96 104.794 411.449 105.406C411.075 105.848 410.735 106.29 410.361 106.698C410.225 106.868 410.055 107.038 409.885 107.208C408.899 108.296 407.879 109.384 406.859 110.439C406.451 110.847 406.043 111.255 405.601 111.663C404.921 112.309 404.241 112.955 403.527 113.601C403.051 114.009 402.608 114.417 402.098 114.825C401.35 115.437 400.602 116.049 399.854 116.661C399.378 117.035 398.902 117.409 398.426 117.783C397.576 118.43 396.692 119.042 395.808 119.654C395.366 119.96 394.958 120.266 394.516 120.538C393.189 121.422 391.829 122.272 390.435 123.054L349.291 146.789L387.409 168.925L428.553 145.191C429.948 144.375 431.308 143.524 432.634 142.674C433.076 142.402 433.484 142.096 433.892 141.79C434.776 141.178 435.66 140.566 436.51 139.92C436.986 139.546 437.462 139.172 437.938 138.798C438.721 138.186 439.469 137.574 440.217 136.962C440.693 136.554 441.169 136.146 441.645 135.738C442.359 135.091 443.039 134.479 443.719 133.799C443.991 133.561 444.263 133.323 444.501 133.085C444.671 132.915 444.807 132.745 444.977 132.609C446.031 131.555 447.051 130.467 448.004 129.379C448.14 129.243 448.276 129.107 448.378 128.971C448.412 128.937 448.446 128.903 448.48 128.869C448.854 128.427 449.194 127.985 449.568 127.543C450.044 126.965 450.52 126.42 450.962 125.842C450.996 125.774 451.03 125.74 451.098 125.672C451.268 125.434 451.438 125.196 451.608 124.958C452.05 124.38 452.492 123.802 452.9 123.19C453.036 122.986 453.172 122.782 453.308 122.578C453.512 122.306 453.682 122.034 453.852 121.762C454.056 121.456 454.294 121.15 454.498 120.81C454.872 120.232 455.212 119.654 455.552 119.11C455.62 118.974 455.722 118.872 455.79 118.736C455.824 118.702 455.858 118.634 455.892 118.6C456.3 117.885 456.709 117.171 457.083 116.457C457.219 116.185 457.355 115.947 457.491 115.675C457.593 115.471 457.695 115.267 457.797 115.063C457.899 114.825 458.035 114.621 458.137 114.383C458.477 113.703 458.783 112.989 459.089 112.309C459.123 112.207 459.157 112.105 459.225 112.003C459.293 111.833 459.361 111.663 459.429 111.527C459.599 111.085 459.803 110.643 459.973 110.201C460.177 109.657 460.347 109.146 460.551 108.602C460.585 108.466 460.653 108.33 460.687 108.16C460.721 108.092 460.721 108.024 460.755 107.956C461.027 107.14 461.265 106.358 461.503 105.542C461.537 105.372 461.571 105.202 461.639 105.032C461.741 104.692 461.809 104.352 461.877 104.012C461.979 103.57 462.115 103.162 462.183 102.72C462.251 102.448 462.285 102.176 462.319 101.87C462.421 101.258 462.523 100.679 462.625 100.067C462.625 99.7613 462.693 99.4553 462.761 99.1153Z" fill="#69767E"/>
<path d="M462.15 164.063L509.994 214.253L462.66 241.558L418.217 194.904L387.478 212.62L387.682 284.811L346.265 308.716L345.619 86.3636L432.703 36.1057C474.698 11.8949 505.777 25.0884 505.913 69.0895C506.015 102.141 488.605 138.118 462.15 164.063ZM428.52 145.224C449.093 133.357 463.136 112.921 463.102 93.8104C463.034 74.7002 448.923 70.5517 428.35 82.4191L387.206 106.154L387.376 168.959L428.52 145.224Z" fill="white"/>
<path d="M346.265 308.75L308.147 286.613L307.5 64.2614L345.653 86.398L346.265 308.75Z" fill="#69767E"/>
<path d="M437.734 33.4197C438.619 32.9776 439.503 32.5016 440.387 32.0935C440.829 31.8895 441.237 31.6855 441.645 31.4815C442.529 31.0734 443.447 30.6654 444.331 30.2913C444.671 30.1553 445.011 29.9853 445.351 29.8493C445.759 29.6792 446.167 29.5092 446.609 29.3732C447.766 28.8971 448.922 28.4551 450.078 28.047C450.588 27.877 451.064 27.707 451.574 27.537C452.662 27.197 453.716 26.8569 454.736 26.5509C455.212 26.4149 455.688 26.2788 456.164 26.1428C456.743 26.0068 457.287 25.8708 457.865 25.7348C458.511 25.5988 459.157 25.4287 459.803 25.2927C460.347 25.1907 460.891 25.0887 461.435 24.9867C462.081 24.8847 462.727 24.7487 463.373 24.6807C463.747 24.6126 464.121 24.5786 464.529 24.5446C465.244 24.4766 465.958 24.3746 466.672 24.3406C467.046 24.3066 467.386 24.2726 467.76 24.2726C468.712 24.2046 469.664 24.1706 470.616 24.2046C470.65 24.2046 470.684 24.2046 470.718 24.2046C471.636 24.2046 472.52 24.2726 473.404 24.3406C474.697 24.4426 475.921 24.5786 477.145 24.7827C477.349 24.8167 477.587 24.8847 477.791 24.9187C478.743 25.0887 479.661 25.3267 480.579 25.5648C480.953 25.6668 481.327 25.7688 481.667 25.9048C482.381 26.1428 483.096 26.3809 483.81 26.6529C484.15 26.7889 484.524 26.9249 484.864 27.0949C485.612 27.435 486.326 27.775 487.04 28.1491C487.346 28.3191 487.686 28.4551 487.958 28.6251L449.84 6.48853C449.738 6.42052 449.602 6.35251 449.5 6.2845C449.296 6.18249 449.092 6.11448 448.922 5.97847C448.208 5.60442 447.493 5.23038 446.745 4.92434C446.609 4.85633 446.473 4.78833 446.337 4.72032C446.133 4.61831 445.895 4.5843 445.691 4.48229C444.977 4.21026 444.297 3.97223 443.549 3.7342C443.345 3.6662 443.141 3.56418 442.903 3.49618C442.767 3.46217 442.597 3.42817 442.461 3.39416C441.543 3.15614 440.625 2.91811 439.673 2.74809C439.503 2.71408 439.333 2.64608 439.163 2.61207C439.129 2.61207 439.095 2.61207 439.027 2.61207C437.802 2.40805 436.544 2.27203 435.286 2.17002C435.184 2.17002 435.082 2.13602 434.946 2.13602C434.13 2.034 433.348 2 432.566 2C432.532 2 432.498 2 432.464 2C431.716 2 430.934 2 430.152 2.034C429.982 2.034 429.778 2.06801 429.608 2.06801C429.233 2.10201 428.893 2.13602 428.519 2.13602C427.805 2.20402 427.125 2.27203 426.377 2.34004C426.003 2.37404 425.629 2.44205 425.221 2.47606C424.983 2.51006 424.745 2.54406 424.507 2.57807C424.099 2.64608 423.691 2.74809 423.283 2.8161C422.739 2.91811 422.195 3.02012 421.651 3.12213C421.005 3.25815 420.358 3.39416 419.712 3.56418C419.168 3.7002 418.59 3.83621 418.012 3.97223C417.842 4.00623 417.672 4.04024 417.502 4.10825C417.196 4.17625 416.89 4.31227 416.584 4.38028C415.53 4.68631 414.476 4.99235 413.422 5.36639C412.912 5.53641 412.436 5.70643 411.926 5.87645C410.769 6.2845 409.613 6.72655 408.457 7.20261C408.151 7.33862 407.879 7.40663 407.573 7.54265C407.437 7.57665 407.335 7.64466 407.199 7.71267C406.859 7.84868 406.519 8.0187 406.179 8.15472C405.295 8.52876 404.411 8.93681 403.493 9.34486C403.085 9.54888 402.642 9.75291 402.234 9.95693C401.35 10.365 400.466 10.841 399.582 11.2831C399.174 11.4871 398.8 11.6911 398.392 11.8952C397.134 12.5752 395.842 13.2553 394.55 14.0034L307.466 64.2613L345.584 86.3979L432.668 36.14C433.96 35.3919 435.218 34.7118 436.51 34.0317C436.952 33.8277 437.326 33.6237 437.734 33.4197Z" fill="#839098"/>
<path d="M276.658 348.908L238.54 326.772L226.026 298.99L264.145 321.127L276.658 348.908Z" fill="#69767E"/>
<path d="M192.192 322.113L154.074 299.977L211.54 266.823L249.658 288.959L192.192 322.113Z" fill="#839098"/>
<path d="M249.659 288.959L211.541 266.823L182.569 202.147L220.688 224.284L249.659 288.959Z" fill="#647179"/>
<path d="M243.912 145.088L323.447 321.909L276.657 348.908L264.144 321.127L177.91 370.875L165.601 412.972L119.118 439.801L197.394 171.917L243.912 145.088ZM192.192 322.113L249.692 288.925L220.721 224.283L192.192 322.113Z" fill="white"/>
<path d="M119.118 439.835L81 417.664L159.277 149.781L197.429 171.918L119.118 439.835Z" fill="#69767E"/>
<path d="M197.43 171.917L159.277 149.781L205.761 122.952L243.913 145.088L197.43 171.917Z" fill="#839098"/>
</svg>
