<svg width="705" height="723" viewBox="0 0 705 723" fill="none" xmlns="http://www.w3.org/2000/svg">
<g opacity="0.17">
<path d="M352.526 557.7C453.759 557.7 535.825 475.65 535.825 374.437C535.825 273.224 453.759 191.174 352.526 191.174C251.292 191.174 169.227 273.224 169.227 374.437C169.227 475.65 251.292 557.7 352.526 557.7Z" stroke="#5DFFE8" stroke-width="8.3476" stroke-miterlimit="10"/>
<path d="M352.526 635.092C496.51 635.092 613.232 518.393 613.232 374.437C613.232 230.481 496.51 113.782 352.526 113.782C208.541 113.782 91.8192 230.481 91.8192 374.437C91.8192 518.393 208.541 635.092 352.526 635.092Z" stroke="#5DFFE8" stroke-width="0.7761" stroke-miterlimit="10"/>
<path d="M79.5027 452.23C72.4674 427.506 68.7114 401.41 68.7114 374.437C68.7114 217.709 195.785 90.6601 352.545 90.6601" stroke="#5DFFE8" stroke-width="0.2609" stroke-miterlimit="10"/>
<path d="M636.359 374.437C636.359 531.165 509.285 658.214 352.526 658.214" stroke="#5DFFE8" stroke-width="0.2609" stroke-miterlimit="10"/>
<path d="M190.638 685.359C78.5303 626.895 2 509.606 2 374.437C2.01907 180.9 158.95 24 352.526 24" stroke="#5DFFE8" stroke-width="3.1304" stroke-miterlimit="10"/>
<path d="M703.051 374.437C703.051 512.866 622.784 632.538 506.235 689.495" stroke="#5DFFE8" stroke-width="3.1304" stroke-miterlimit="10"/>
<path d="M97.6915 200.858C165.375 101.621 288.083 47.1034 413.27 72.2654C580.191 105.815 688.294 268.281 654.758 435.169C640.706 505.032 604.062 564.582 553.956 607.776" stroke="#5DFFE8" stroke-width="0.9177" stroke-miterlimit="10"/>
<path d="M501.659 661.779C457.026 684.978 406.311 698.092 352.526 698.092C209.208 698.092 87.6629 604.974 45.0698 475.962" stroke="#5DFFE8" stroke-width="0.9636" stroke-miterlimit="10"/>
</g>
<path d="M327.483 612.224L348.94 599.741C349.239 600.305 349.537 600.87 349.869 601.434C349.935 601.534 349.968 601.6 350.035 601.7L328.578 614.183C328.511 614.084 328.478 614.017 328.412 613.918C328.08 613.353 327.782 612.789 327.483 612.224Z" fill="#674DB3"/>
<path d="M328.578 614.15L350.035 601.667C350.698 602.829 351.428 603.957 352.157 605.02L330.7 617.503C329.938 616.441 329.241 615.312 328.578 614.15Z" fill="#6D54B6"/>
<path d="M330.667 617.503L352.124 605.02C352.555 605.651 353.019 606.281 353.45 606.912L331.994 619.396C331.562 618.798 331.098 618.167 330.667 617.503Z" fill="#674DB3"/>
<path d="M332.027 619.396L353.484 606.912C353.815 607.344 354.147 607.809 354.479 608.24L333.022 620.724C332.69 620.292 332.358 619.861 332.027 619.396Z" fill="#6146B0"/>
<path d="M333.022 620.724L354.479 608.24C354.777 608.639 355.075 609.004 355.407 609.369L333.95 621.853C333.619 621.487 333.32 621.122 333.022 620.724Z" fill="#593DAC"/>
<path d="M333.95 621.853L355.407 609.369C355.705 609.734 356.004 610.066 356.302 610.431L334.846 622.915C334.547 622.583 334.249 622.218 333.95 621.853Z" fill="#4F31A7"/>
<path d="M334.846 622.915L356.303 610.432C356.601 610.797 356.933 611.129 357.231 611.461L335.774 623.944C335.476 623.612 335.144 623.28 334.846 622.915Z" fill="#37159B"/>
<path d="M335.774 623.944L357.231 611.461C357.563 611.793 357.861 612.158 358.193 612.49L336.736 624.973C336.404 624.641 336.106 624.309 335.774 623.944Z" fill="#361598"/>
<path d="M336.736 624.973L358.193 612.49C358.525 612.822 358.856 613.154 359.221 613.486L337.764 625.969C337.433 625.637 337.068 625.305 336.736 624.973Z" fill="#351495"/>
<path d="M337.764 625.969L359.221 613.486C359.586 613.818 359.917 614.15 360.282 614.482L338.825 626.965C338.461 626.633 338.129 626.301 337.764 625.969Z" fill="#341492"/>
<path d="M338.825 626.965L360.282 614.482C360.647 614.814 361.012 615.113 361.343 615.412L339.887 627.895C339.522 627.596 339.19 627.297 338.825 626.965Z" fill="#33138F"/>
<path d="M339.886 627.895L361.343 615.412C361.708 615.71 362.073 616.009 362.405 616.275L340.948 628.758C340.616 628.493 340.251 628.194 339.886 627.895Z" fill="#32138B"/>
<path d="M340.981 628.792L362.438 616.308C362.803 616.574 363.134 616.839 363.499 617.105L342.042 629.588C341.677 629.323 341.313 629.057 340.981 628.792Z" fill="#301288"/>
<path d="M342.042 629.588L363.499 617.105C363.831 617.37 364.195 617.603 364.527 617.835L343.07 630.319C342.739 630.086 342.374 629.854 342.042 629.588Z" fill="#2F1285"/>
<path d="M343.07 630.319L364.527 617.835C364.859 618.068 365.19 618.3 365.555 618.499L344.098 630.983C343.734 630.783 343.402 630.551 343.07 630.319Z" fill="#2E1282"/>
<path d="M344.098 630.983L365.555 618.499C365.887 618.698 366.218 618.931 366.55 619.097L345.093 631.58C344.762 631.414 344.43 631.215 344.098 630.983Z" fill="#2D117F"/>
<path d="M345.093 631.614L366.55 619.13C366.616 619.163 366.716 619.23 366.782 619.263C367.048 619.396 367.28 619.562 367.545 619.695L346.088 632.178C345.823 632.045 345.591 631.912 345.325 631.746C345.226 631.68 345.16 631.647 345.093 631.614Z" fill="#2C117C"/>
<path d="M346.055 632.178L367.512 619.694C367.843 619.86 368.175 620.026 368.474 620.192L347.017 632.676C346.718 632.51 346.387 632.344 346.055 632.178Z" fill="#2B1079"/>
<path d="M347.05 632.676L368.507 620.193C368.839 620.359 369.137 620.491 369.469 620.657L348.012 633.141C347.68 632.975 347.349 632.842 347.05 632.676Z" fill="#2A1076"/>
<path d="M348.012 633.108L369.469 620.624C369.8 620.757 370.099 620.89 370.43 621.023L348.973 633.506C348.642 633.406 348.343 633.274 348.012 633.108Z" fill="#291073"/>
<path d="M348.973 633.539L370.43 621.056C370.762 621.189 371.06 621.321 371.392 621.421L349.935 633.904C349.603 633.772 349.305 633.672 348.973 633.539Z" fill="#280F70"/>
<path d="M349.935 633.904L371.392 621.421C371.724 621.521 372.055 621.653 372.354 621.753L350.897 634.203C350.598 634.104 350.267 634.004 349.935 633.904Z" fill="#270F6C"/>
<path d="M350.897 634.203L372.354 621.72C372.685 621.819 373.017 621.919 373.349 621.985L351.892 634.469C351.56 634.402 351.229 634.303 350.897 634.203Z" fill="#250E69"/>
<path d="M351.892 634.502L373.349 622.019C373.68 622.118 374.012 622.185 374.344 622.251L352.887 634.734C352.555 634.635 352.223 634.568 351.892 634.502Z" fill="#240E66"/>
<path d="M352.886 634.701L374.343 622.218C374.675 622.284 375.04 622.351 375.371 622.384L353.915 634.867C353.583 634.834 353.251 634.768 352.886 634.701Z" fill="#230D63"/>
<path d="M353.915 634.867L375.371 622.384C375.736 622.417 376.101 622.483 376.433 622.483L354.976 634.967C354.644 634.967 354.279 634.934 353.915 634.867Z" fill="#220D60"/>
<path d="M355.009 635L376.466 622.517C376.831 622.55 377.229 622.55 377.593 622.55L356.137 635.033C355.739 635.033 355.374 635 355.009 635Z" fill="#210D5D"/>
<path d="M356.104 635.033L377.561 622.55C377.959 622.55 378.39 622.517 378.788 622.483L357.331 634.967C356.933 635 356.535 635.033 356.104 635.033Z" fill="#200C5A"/>
<path d="M357.331 634.967L378.787 622.483C379.252 622.45 379.716 622.384 380.147 622.284L358.69 634.768C358.259 634.867 357.795 634.934 357.331 634.967Z" fill="#1F0C57"/>
<path d="M358.69 634.768L380.147 622.284C380.711 622.185 381.275 622.019 381.805 621.819L360.348 634.303C359.818 634.502 359.254 634.668 358.69 634.768Z" fill="#1E0B54"/>
<path d="M360.348 634.336L381.805 621.853C382.468 621.62 383.099 621.321 383.696 620.989L362.239 633.473C361.642 633.805 361.012 634.104 360.348 634.336Z" fill="#1D0B51"/>
<path d="M328.512 574.973L349.968 562.49C348.244 563.453 346.851 564.847 345.757 566.54L324.3 579.024C325.394 577.33 326.82 575.936 328.512 574.973Z" fill="#1D0B51"/>
<path d="M324.3 579.024L345.756 566.54C345.425 567.071 345.126 567.603 344.861 568.167L323.404 580.65C323.67 580.086 323.968 579.555 324.3 579.024Z" fill="#1E0B54"/>
<path d="M323.404 580.651L344.861 568.167C344.662 568.599 344.463 569.063 344.264 569.561L322.807 582.045C323.006 581.58 323.205 581.115 323.404 580.651Z" fill="#1F0C57"/>
<path d="M322.841 582.045L344.297 569.561C344.132 569.993 343.999 570.391 343.866 570.856L322.409 583.34C322.542 582.908 322.675 582.477 322.841 582.045Z" fill="#200C5A"/>
<path d="M322.409 583.34L343.866 570.856C343.733 571.255 343.634 571.686 343.534 572.085L322.078 584.568C322.177 584.137 322.277 583.738 322.409 583.34Z" fill="#210D5D"/>
<path d="M322.078 584.568L343.534 572.085C343.435 572.45 343.369 572.848 343.302 573.247L321.845 585.73C321.912 585.332 321.978 584.967 322.078 584.568Z" fill="#220D60"/>
<path d="M321.846 585.73L343.303 573.247C343.236 573.612 343.17 574.01 343.137 574.409L321.68 586.892C321.713 586.494 321.779 586.129 321.846 585.73Z" fill="#230D63"/>
<path d="M321.68 586.892L343.137 574.409C343.103 574.774 343.037 575.172 343.004 575.571L321.547 588.054C321.58 587.656 321.613 587.257 321.68 586.892Z" fill="#240E66"/>
<path d="M321.547 588.054L343.004 575.571C342.971 575.936 342.938 576.334 342.938 576.7L321.481 589.183C321.514 588.785 321.514 588.419 321.547 588.054Z" fill="#250E69"/>
<path d="M321.481 589.183L342.938 576.7C342.938 577.065 342.905 577.463 342.905 577.828L321.448 590.312C321.448 589.947 321.481 589.548 321.481 589.183Z" fill="#270F6C"/>
<path d="M321.448 590.312L342.938 577.828C342.938 578.194 342.938 578.592 342.938 578.957L321.481 591.441C321.448 591.076 321.448 590.677 321.448 590.312Z" fill="#280F70"/>
<path d="M321.481 591.441L342.938 578.957C342.938 579.322 342.971 579.721 343.004 580.119L321.547 592.603C321.514 592.238 321.481 591.839 321.481 591.441Z" fill="#291073"/>
<path d="M321.514 592.603L342.971 580.119C343.004 580.518 343.037 580.883 343.07 581.281L321.614 593.765C321.58 593.366 321.547 593.001 321.514 592.603Z" fill="#2A1076"/>
<path d="M321.614 593.765L343.07 581.281C343.103 581.68 343.137 582.078 343.203 582.477L321.746 594.96C321.713 594.562 321.647 594.163 321.614 593.765Z" fill="#2B1079"/>
<path d="M321.746 594.96L343.203 582.477C343.269 582.875 343.302 583.273 343.369 583.672L321.912 596.155C321.846 595.757 321.812 595.358 321.746 594.96Z" fill="#2C117C"/>
<path d="M321.912 596.155L343.369 583.672C343.435 584.07 343.501 584.502 343.568 584.9L322.111 597.384C322.045 596.985 321.978 596.554 321.912 596.155Z" fill="#2D117F"/>
<path d="M322.144 597.384L343.601 584.9C343.667 585.299 343.767 585.73 343.866 586.162L322.409 598.645C322.31 598.214 322.21 597.815 322.144 597.384Z" fill="#2E1282"/>
<path d="M322.376 598.645L343.833 586.162C343.933 586.593 344.032 586.992 344.132 587.423L322.675 599.907C322.575 599.475 322.476 599.044 322.376 598.645Z" fill="#2F1285"/>
<path d="M322.675 599.907L344.132 587.423C344.231 587.855 344.364 588.287 344.463 588.685L323.006 601.169C322.907 600.737 322.774 600.338 322.675 599.907Z" fill="#301288"/>
<path d="M323.006 601.168L344.463 588.685C344.563 589.117 344.695 589.515 344.828 589.947L323.371 602.43C323.238 602.032 323.139 601.6 323.006 601.168Z" fill="#32138B"/>
<path d="M323.371 602.43L344.828 589.947C344.961 590.345 345.093 590.777 345.226 591.208L323.769 603.692C323.637 603.26 323.504 602.862 323.371 602.43Z" fill="#33138F"/>
<path d="M323.769 603.692L345.226 591.208C345.358 591.607 345.491 592.005 345.657 592.404L324.2 604.887C324.068 604.489 323.902 604.09 323.769 603.692Z" fill="#341492"/>
<path d="M324.2 604.887L345.657 592.404C345.79 592.802 345.955 593.2 346.088 593.566L324.631 606.049C324.499 605.684 324.333 605.285 324.2 604.887Z" fill="#351495"/>
<path d="M324.631 606.049L346.088 593.566C346.254 593.964 346.386 594.329 346.552 594.728L325.095 607.211C324.93 606.846 324.797 606.447 324.631 606.049Z" fill="#361598"/>
<path d="M325.095 607.211L346.552 594.728C346.718 595.093 346.884 595.491 347.05 595.856L325.593 608.34C325.427 607.975 325.261 607.609 325.095 607.211Z" fill="#37159B"/>
<path d="M325.593 608.34L347.05 595.856C347.216 596.255 347.415 596.653 347.58 597.018L326.124 609.502C325.925 609.137 325.759 608.738 325.593 608.34Z" fill="#4F31A7"/>
<path d="M326.124 609.535L347.581 597.052C347.78 597.45 347.979 597.882 348.178 598.28L326.721 610.764C326.522 610.332 326.323 609.934 326.124 609.535Z" fill="#593DAC"/>
<path d="M326.72 610.763L348.177 598.28C348.409 598.778 348.675 599.276 348.94 599.741L327.483 612.224C327.218 611.726 326.953 611.228 326.72 610.763Z" fill="#6146B0"/>
<path d="M327.483 612.224L348.94 599.741C349.239 600.305 349.537 600.87 349.869 601.434C349.935 601.534 349.968 601.6 350.035 601.7L328.578 614.183C328.511 614.084 328.478 614.017 328.412 613.918C328.08 613.353 327.782 612.789 327.483 612.224Z" fill="#674DB3"/>
<path d="M328.511 574.973L349.968 562.49C350.565 562.125 351.228 561.859 351.892 561.627L330.435 574.11C329.771 574.342 329.141 574.608 328.511 574.973Z" fill="#450482"/>
<path d="M330.435 574.11L351.892 561.627C352.422 561.427 352.986 561.295 353.55 561.162L332.093 573.645C331.529 573.778 330.965 573.911 330.435 574.11Z" fill="#480487"/>
<path d="M332.093 573.645L353.55 561.162C353.981 561.062 354.445 560.996 354.91 560.963L333.453 573.446C332.988 573.512 332.524 573.579 332.093 573.645Z" fill="#4A048C"/>
<path d="M333.453 573.446L354.909 560.963C355.307 560.929 355.705 560.896 356.137 560.896L334.68 573.38C334.249 573.413 333.851 573.413 333.453 573.446Z" fill="#4D0491"/>
<path d="M334.679 573.413L356.136 560.929C356.501 560.929 356.866 560.929 357.264 560.963L335.807 573.446C335.409 573.413 335.044 573.413 334.679 573.413Z" fill="#500496"/>
<path d="M335.807 573.446L357.264 560.963C357.629 560.996 357.961 561.029 358.325 561.062L336.869 573.546C336.504 573.512 336.139 573.479 335.807 573.446Z" fill="#52049B"/>
<path d="M336.868 573.546L358.325 561.062C358.657 561.095 359.022 561.162 359.353 561.228L337.896 573.712C337.532 573.645 337.2 573.612 336.868 573.546Z" fill="#5504A0"/>
<path d="M337.896 573.712L359.353 561.228C359.685 561.295 360.017 561.361 360.348 561.461L338.891 573.944C338.56 573.844 338.228 573.778 337.896 573.712Z" fill="#5805A5"/>
<path d="M338.891 573.944L360.348 561.461C360.68 561.527 361.011 561.627 361.343 561.726L339.886 574.21C339.554 574.11 339.223 574.01 338.891 573.944Z" fill="#5A05AA"/>
<path d="M339.886 574.21L361.343 561.726C361.675 561.826 362.006 561.925 362.305 562.058L340.848 574.542C340.516 574.409 340.185 574.309 339.886 574.21Z" fill="#5D05AF"/>
<path d="M340.848 574.542L362.305 562.058C362.637 562.158 362.935 562.291 363.267 562.423L341.81 574.907C341.478 574.774 341.18 574.641 340.848 574.542Z" fill="#6005B4"/>
<path d="M341.81 574.907L363.267 562.423C363.598 562.556 363.897 562.689 364.228 562.822L342.772 575.305C342.44 575.172 342.141 575.04 341.81 574.907Z" fill="#6205B9"/>
<path d="M342.771 575.305L364.228 562.822C364.56 562.955 364.858 563.121 365.19 563.287L343.733 575.77C343.435 575.604 343.103 575.438 342.771 575.305Z" fill="#6505BE"/>
<path d="M343.733 575.77L365.19 563.287C365.522 563.453 365.853 563.619 366.152 563.785L344.695 576.268C344.396 576.102 344.065 575.936 343.733 575.77Z" fill="#6805C3"/>
<path d="M344.728 576.268L366.185 563.785C366.45 563.917 366.682 564.05 366.948 564.216L345.491 576.7C345.225 576.534 344.96 576.401 344.728 576.268Z" fill="#6A06C8"/>
<path d="M345.458 576.7L366.915 564.216C366.981 564.249 367.081 564.316 367.147 564.349L345.69 576.832C345.624 576.766 345.557 576.733 345.458 576.7Z" fill="#6A06C8"/>
<path d="M345.69 576.832L367.147 564.349C367.479 564.548 367.81 564.747 368.142 564.947L346.685 577.43C346.353 577.231 346.022 577.032 345.69 576.832Z" fill="#6D06CD"/>
<path d="M346.685 577.43L368.142 564.947C368.473 565.179 368.805 565.378 369.17 565.611L347.713 578.094C347.381 577.862 347.05 577.662 346.685 577.43Z" fill="#7006D2"/>
<path d="M347.713 578.094L369.17 565.611C369.501 565.843 369.866 566.109 370.198 566.341L348.741 578.824C348.409 578.592 348.078 578.36 347.713 578.094Z" fill="#7206D7"/>
<path d="M348.741 578.858L370.198 566.374C370.563 566.64 370.894 566.905 371.259 567.171L349.802 579.654C349.471 579.389 349.106 579.123 348.741 578.858Z" fill="#7506DC"/>
<path d="M349.802 579.654L371.259 567.171C371.624 567.47 371.989 567.735 372.32 568.034L350.897 580.518C350.532 580.219 350.167 579.953 349.802 579.654Z" fill="#7806E1"/>
<path d="M350.897 580.518L372.354 568.034C372.719 568.333 373.083 568.665 373.415 568.964L351.958 581.447C351.593 581.148 351.262 580.85 350.897 580.518Z" fill="#7A06E6"/>
<path d="M351.958 581.481L373.415 568.997C373.78 569.329 374.111 569.628 374.476 569.993L353.019 582.477C352.688 582.111 352.323 581.779 351.958 581.481Z" fill="#7D07EB"/>
<path d="M353.019 582.443L374.476 569.96C374.807 570.292 375.172 570.624 375.504 570.956L354.047 583.439C353.715 583.107 353.351 582.775 353.019 582.443Z" fill="#8007F0"/>
<path d="M354.047 583.473L375.504 570.989C375.836 571.321 376.167 571.653 376.466 572.018L355.009 584.469C354.677 584.137 354.379 583.805 354.047 583.473Z" fill="#8207F5"/>
<path d="M355.009 584.469L376.466 571.985C376.764 572.317 377.096 572.682 377.394 573.014L355.938 585.498C355.639 585.166 355.341 584.834 355.009 584.469Z" fill="#8507FA"/>
<path d="M355.938 585.531L377.395 573.048C377.693 573.38 377.992 573.745 378.29 574.11L356.833 586.593C356.568 586.228 356.236 585.863 355.938 585.531Z" fill="#9425FB"/>
<path d="M356.866 586.56L378.323 574.077C378.622 574.442 378.92 574.807 379.252 575.206L357.795 587.689C357.463 587.324 357.165 586.959 356.866 586.56Z" fill="#9A31FB"/>
<path d="M357.762 587.689L379.219 575.206C379.55 575.637 379.882 576.069 380.213 576.534L358.757 589.017C358.425 588.585 358.093 588.121 357.762 587.689Z" fill="#9E3BFB"/>
<path d="M358.757 589.017L380.213 576.534C380.678 577.164 381.109 577.795 381.54 578.426L360.083 590.91C359.685 590.279 359.221 589.648 358.757 589.017Z" fill="#A243FB"/>
<path d="M360.116 590.91L381.573 578.426C382.303 579.488 382.999 580.617 383.695 581.779L362.239 594.263C361.542 593.101 360.846 592.005 360.116 590.91Z" fill="#A64AFB"/>
<path d="M362.239 594.263L383.696 581.779C383.762 581.879 383.795 581.945 383.861 582.045C384.193 582.609 384.492 583.174 384.79 583.738L363.333 596.222C363.035 595.657 362.736 595.093 362.405 594.528C362.338 594.429 362.272 594.362 362.239 594.263Z" fill="#A243FB"/>
<path d="M363.3 596.222L384.757 583.738C385.022 584.236 385.287 584.701 385.52 585.199L364.063 597.682C363.831 597.184 363.565 596.686 363.3 596.222Z" fill="#9E3BFB"/>
<path d="M364.063 597.682L385.52 585.199C385.719 585.597 385.918 586.029 386.117 586.427L364.66 598.911C364.461 598.513 364.262 598.081 364.063 597.682Z" fill="#9A31FB"/>
<path d="M364.66 598.911L386.116 586.427C386.315 586.826 386.481 587.224 386.647 587.589L365.19 600.073C365.024 599.674 364.859 599.309 364.66 598.911Z" fill="#9425FB"/>
<path d="M365.19 600.073L386.647 587.589C386.813 587.955 386.979 588.353 387.145 588.718L365.688 601.202C365.522 600.836 365.356 600.471 365.19 600.073Z" fill="#8507FA"/>
<path d="M365.688 601.202L387.145 588.718C387.31 589.117 387.443 589.482 387.609 589.88L366.152 602.364C365.986 601.999 365.854 601.6 365.688 601.202Z" fill="#8207F5"/>
<path d="M366.152 602.364L387.609 589.88C387.775 590.279 387.907 590.677 388.04 591.042L366.583 603.526C366.451 603.161 366.285 602.762 366.152 602.364Z" fill="#8007F0"/>
<path d="M366.583 603.559L388.04 591.076C388.173 591.474 388.339 591.872 388.471 592.271L367.014 604.754C366.882 604.356 366.716 603.957 366.583 603.559Z" fill="#7D07EB"/>
<path d="M367.014 604.754L388.471 592.271C388.604 592.702 388.736 593.101 388.869 593.532L367.412 606.016C367.279 605.584 367.147 605.153 367.014 604.754Z" fill="#7A06E6"/>
<path d="M367.412 605.983L388.869 593.499C389.002 593.931 389.134 594.329 389.234 594.761L367.777 607.244C367.644 606.846 367.545 606.414 367.412 605.983Z" fill="#7806E1"/>
<path d="M367.777 607.244L389.234 594.761C389.367 595.192 389.466 595.624 389.566 596.022L368.109 608.506C368.009 608.107 367.877 607.676 367.777 607.244Z" fill="#7506DC"/>
<path d="M368.109 608.539L389.565 596.056C389.665 596.487 389.764 596.886 389.864 597.317L368.407 609.801C368.308 609.369 368.208 608.937 368.109 608.539Z" fill="#7206D7"/>
<path d="M368.407 609.801L389.864 597.317C389.964 597.749 390.03 598.147 390.129 598.579L368.639 611.029C368.573 610.631 368.507 610.199 368.407 609.801Z" fill="#7006D2"/>
<path d="M368.639 611.029L390.096 598.546C390.163 598.944 390.229 599.376 390.295 599.774L368.838 612.258C368.805 611.859 368.739 611.461 368.639 611.029Z" fill="#6D06CD"/>
<path d="M368.872 612.257L390.328 599.774C390.395 600.172 390.461 600.571 390.494 600.969L369.037 613.453C369.004 613.088 368.938 612.689 368.872 612.257Z" fill="#6A06C8"/>
<path d="M369.037 613.486L390.494 601.002C390.561 601.401 390.594 601.799 390.627 602.198L369.17 614.681C369.137 614.283 369.104 613.884 369.037 613.486Z" fill="#6805C3"/>
<path d="M369.17 614.648L390.627 602.165C390.66 602.563 390.693 602.928 390.726 603.327L369.269 615.81C369.236 615.445 369.203 615.046 369.17 614.648Z" fill="#6505BE"/>
<path d="M369.269 615.81L390.726 603.327C390.759 603.725 390.759 604.09 390.792 604.489L369.336 616.972C369.302 616.607 369.302 616.208 369.269 615.81Z" fill="#6205B9"/>
<path d="M369.302 616.972L390.759 604.489C390.759 604.887 390.759 605.252 390.759 605.617L369.302 618.101C369.336 617.736 369.336 617.37 369.302 616.972Z" fill="#6005B4"/>
<path d="M369.336 618.101L390.792 605.617C390.792 606.016 390.792 606.381 390.759 606.746L369.302 619.23C369.336 618.864 369.336 618.499 369.336 618.101Z" fill="#5D05AF"/>
<path d="M369.302 619.263L390.759 606.779C390.759 607.178 390.726 607.543 390.693 607.908L369.236 620.392C369.269 620.027 369.302 619.628 369.302 619.263Z" fill="#5A05AA"/>
<path d="M369.236 620.392L390.693 607.908C390.66 608.307 390.627 608.672 390.56 609.07L369.104 621.554C369.17 621.155 369.203 620.79 369.236 620.392Z" fill="#5805A5"/>
<path d="M369.104 621.521L390.56 609.037C390.527 609.436 390.461 609.801 390.395 610.199L368.938 622.683C369.004 622.317 369.07 621.919 369.104 621.521Z" fill="#5504A0"/>
<path d="M368.938 622.683L390.395 610.199C390.328 610.597 390.262 610.996 390.163 611.361L368.706 623.845C368.805 623.479 368.872 623.081 368.938 622.683Z" fill="#52049B"/>
<path d="M368.705 623.845L390.162 611.361C390.063 611.793 389.963 612.191 389.831 612.59L368.374 625.073C368.506 624.708 368.606 624.276 368.705 623.845Z" fill="#500496"/>
<path d="M368.374 625.106L389.831 612.623C389.698 613.054 389.565 613.486 389.4 613.918L367.943 626.401C368.109 625.969 368.274 625.538 368.374 625.106Z" fill="#4D0491"/>
<path d="M367.976 626.368L389.433 613.884C389.267 614.349 389.068 614.814 388.836 615.279L367.379 627.762C367.578 627.331 367.777 626.866 367.976 626.368Z" fill="#4A048C"/>
<path d="M367.379 627.762L388.836 615.279C388.571 615.843 388.272 616.408 387.94 616.906L366.484 629.389C366.815 628.891 367.114 628.327 367.379 627.762Z" fill="#480487"/>
<path d="M366.484 629.389L387.941 616.906C386.846 618.599 385.453 619.993 383.729 620.956L362.272 633.44C363.963 632.477 365.389 631.116 366.484 629.389Z" fill="#450482"/>
<path d="M345.458 576.7C351.593 580.252 357.695 586.461 362.371 594.528C371.69 610.664 371.624 628.127 362.272 633.473C357.596 636.162 351.461 635.299 345.325 631.746C339.19 628.194 333.088 621.985 328.412 613.918C319.093 597.782 319.159 580.352 328.511 574.973C333.221 572.284 339.356 573.147 345.458 576.7Z" fill="#D2D7DA"/>
<path d="M476.421 706.68L497.877 694.197C497.877 694.23 497.877 694.23 497.877 694.263L476.421 706.747C476.421 706.747 476.421 706.713 476.421 706.68Z" fill="#280F70"/>
<path d="M476.421 706.747L497.877 694.263C497.877 694.628 497.877 694.994 497.844 695.359L476.387 707.842C476.387 707.51 476.421 707.112 476.421 706.747Z" fill="#270F6C"/>
<path d="M476.388 707.842L497.844 695.359C497.844 695.724 497.811 696.089 497.778 696.421L476.321 708.905C476.354 708.573 476.354 708.208 476.388 707.842Z" fill="#250E69"/>
<path d="M476.321 708.938L497.778 696.454C497.745 696.82 497.712 697.185 497.679 697.55L476.222 710.034C476.255 709.668 476.288 709.303 476.321 708.938Z" fill="#240E66"/>
<path d="M476.222 710.034L497.679 697.55C497.646 697.915 497.579 698.281 497.513 698.646L476.056 711.129C476.089 710.764 476.156 710.399 476.222 710.034Z" fill="#230D63"/>
<path d="M476.056 711.129L497.513 698.646C497.447 699.011 497.38 699.409 497.281 699.774L475.824 712.258C475.89 711.893 475.99 711.528 476.056 711.129Z" fill="#220D60"/>
<path d="M475.824 712.258L497.281 699.774C497.181 700.173 497.082 700.571 496.982 700.937L475.525 713.42C475.625 713.022 475.724 712.656 475.824 712.258Z" fill="#210D5D"/>
<path d="M475.525 713.42L496.982 700.937C496.85 701.335 496.717 701.767 496.584 702.132L475.127 714.615C475.26 714.217 475.393 713.818 475.525 713.42Z" fill="#200C5A"/>
<path d="M475.127 714.615L496.584 702.132C496.418 702.597 496.219 703.028 496.02 703.427L474.563 715.91C474.762 715.512 474.961 715.08 475.127 714.615Z" fill="#1F0C57"/>
<path d="M474.563 715.91L496.02 703.427C495.755 703.991 495.456 704.489 495.158 704.987L473.701 717.471C474 717.006 474.298 716.474 474.563 715.91Z" fill="#1E0B54"/>
<path d="M473.701 717.47L495.158 704.987C494.097 706.647 492.77 707.942 491.212 708.838L469.755 721.322C471.314 720.459 472.64 719.131 473.701 717.47Z" fill="#1D0B51"/>
<path d="M476.247 706.431C476.247 715.205 472.592 719.592 470.764 720.689C475.834 717.721 490.505 710.27 493.795 706.431C497.085 702.593 498.182 697.109 498.182 693.819C488.311 699.851 485.57 701.496 476.247 706.431Z" fill="url(#paint0_linear_312_34)"/>
<path d="M222.355 490.809L243.812 478.326L482.954 616.474L461.497 628.991L222.355 490.809Z" fill="#2F1286"/>
<path d="M223.582 52.7264L245.039 40.243L243.812 478.326L222.355 490.809L223.582 52.7264Z" fill="#2A1078"/>
<path d="M239.354 0.136597L216.871 13.2974C221.806 11.6524 229.483 14.9426 231.676 16.0392C242.095 10.0072 250.321 5.62036 253.063 3.42688C248.676 -0.0826565 241.913 -0.22898 239.354 0.136597Z" fill="url(#paint1_linear_312_34)"/>
<path d="M223.582 52.7264L245.039 40.243L484.181 178.391L462.724 190.874L223.582 52.7264Z" fill="#C46E86"/>
<path d="M291.335 73.1781L312.792 60.6946C312.792 60.761 312.792 60.8606 312.792 60.927L291.335 73.4105C291.335 73.3441 291.335 73.2777 291.335 73.1781Z" fill="#280F70"/>
<path d="M291.335 73.4437L312.792 60.9603C312.792 61.0599 312.792 61.1263 312.792 61.2259L291.335 73.7093C291.335 73.6097 291.335 73.5101 291.335 73.4437Z" fill="#291073"/>
<path d="M291.368 73.7093L312.825 61.2258C312.825 61.3254 312.825 61.3918 312.858 61.4914L291.402 73.9749C291.368 73.8753 291.368 73.7757 291.368 73.7093Z" fill="#2A1076"/>
<path d="M291.368 73.9749L312.825 61.4915C312.825 61.5911 312.858 61.6575 312.858 61.7571L291.402 74.2405C291.402 74.1409 291.402 74.0413 291.368 73.9749Z" fill="#2B1079"/>
<path d="M291.402 74.2405L312.858 61.7571C312.858 61.8567 312.892 61.9231 312.892 62.0227L291.435 74.5061C291.435 74.4065 291.402 74.3069 291.402 74.2405Z" fill="#2C117C"/>
<path d="M291.435 74.5061L312.892 62.0226C312.892 62.1222 312.925 62.1886 312.925 62.2882L291.468 74.7717C291.468 74.6721 291.468 74.5725 291.435 74.5061Z" fill="#2D117F"/>
<path d="M291.501 74.7717L312.958 62.2883C312.991 62.3879 312.991 62.4875 313.024 62.5539L291.567 75.0373C291.534 74.9709 291.501 74.8713 291.501 74.7717Z" fill="#2E1282"/>
<path d="M291.534 75.0374L312.991 62.5539C313.024 62.6535 313.024 62.7531 313.057 62.8527L291.601 75.3362C291.601 75.2366 291.567 75.137 291.534 75.0374Z" fill="#2F1285"/>
<path d="M291.601 75.3361L313.057 62.8527C313.091 62.9523 313.091 63.0519 313.124 63.1515L291.667 75.6349C291.667 75.5353 291.634 75.4357 291.601 75.3361Z" fill="#301288"/>
<path d="M291.7 75.6349L313.157 63.1515C313.19 63.2511 313.223 63.3507 313.256 63.4503L291.799 75.9338C291.733 75.8009 291.733 75.7013 291.7 75.6349Z" fill="#32138B"/>
<path d="M291.766 75.9006L313.223 63.4172C313.256 63.5168 313.289 63.6164 313.323 63.6828L291.866 76.1662C291.833 76.0998 291.8 76.0002 291.766 75.9006Z" fill="#33138F"/>
<path d="M291.866 76.1993L313.323 63.7159C313.356 63.8155 313.389 63.9151 313.422 63.9815L291.965 76.4649C291.932 76.3653 291.899 76.2657 291.866 76.1993Z" fill="#341492"/>
<path d="M291.965 76.4649L313.422 63.9814C313.455 64.081 313.488 64.1474 313.521 64.2471L292.065 76.7305C292.031 76.6309 291.998 76.5645 291.965 76.4649Z" fill="#351495"/>
<path d="M292.065 76.7305L313.522 64.2471C313.555 64.3467 313.588 64.4131 313.621 64.5127L292.164 76.9961C292.131 76.8965 292.098 76.7969 292.065 76.7305Z" fill="#361598"/>
<path d="M292.164 76.9962L313.621 64.5127C313.654 64.6123 313.687 64.6787 313.721 64.7783L292.264 77.2618C292.231 77.1622 292.197 77.0626 292.164 76.9962Z" fill="#37159B"/>
<path d="M292.264 77.2618L313.72 64.7783C313.754 64.8779 313.787 64.9443 313.853 65.0439L292.396 77.5274C292.363 77.4278 292.297 77.3282 292.264 77.2618Z" fill="#4F31A7"/>
<path d="M292.396 77.4942L313.853 65.0107C313.886 65.1103 313.953 65.2099 313.986 65.3095L292.529 77.793C292.496 77.6934 292.43 77.5938 292.396 77.4942Z" fill="#593DAC"/>
<path d="M292.529 77.793L313.986 65.3096C314.052 65.4092 314.085 65.542 314.152 65.6416L292.695 78.125C292.629 77.9922 292.595 77.8926 292.529 77.793Z" fill="#6146B0"/>
<path d="M292.695 78.125L314.152 65.6415C314.251 65.8075 314.317 65.9736 314.417 66.1064L292.96 78.5898C292.861 78.4238 292.794 78.291 292.695 78.125Z" fill="#674DB3"/>
<path d="M292.96 78.5898L314.417 66.1063C314.55 66.3387 314.682 66.5379 314.815 66.7371L293.358 79.2206C293.226 79.0214 293.093 78.8222 292.96 78.5898Z" fill="#6D54B6"/>
<path d="M293.358 79.2206L314.815 66.7372C314.914 66.9032 315.047 67.0692 315.147 67.2352L293.69 79.7186C293.59 79.5526 293.491 79.3866 293.358 79.2206Z" fill="#674DB3"/>
<path d="M293.723 79.7186L315.18 67.2352C315.246 67.3348 315.346 67.4344 315.412 67.534L293.955 80.0174C293.856 79.9178 293.789 79.8182 293.723 79.7186Z" fill="#6146B0"/>
<path d="M293.955 80.0174L315.412 67.5339C315.478 67.6335 315.545 67.6999 315.611 67.7995L294.154 80.283C294.088 80.2166 294.021 80.117 293.955 80.0174Z" fill="#593DAC"/>
<path d="M294.154 80.283L315.611 67.7996C315.677 67.866 315.744 67.9656 315.81 68.032L294.353 80.5154C294.287 80.449 294.221 80.3826 294.154 80.283Z" fill="#4F31A7"/>
<path d="M294.353 80.5486L315.81 68.0652C315.876 68.1316 315.942 68.2312 316.009 68.2976L294.552 80.7811C294.519 80.6815 294.419 80.615 294.353 80.5486Z" fill="#37159B"/>
<path d="M294.585 80.7811L316.042 68.2976C316.108 68.364 316.175 68.4636 316.274 68.53L294.817 81.0135C294.718 80.9139 294.652 80.8475 294.585 80.7811Z" fill="#361598"/>
<path d="M294.784 81.0135L316.241 68.53C316.307 68.5964 316.407 68.696 316.473 68.7624L295.016 81.2459C294.95 81.1463 294.884 81.0799 294.784 81.0135Z" fill="#351495"/>
<path d="M295.016 81.2127L316.473 68.7292C316.539 68.7956 316.639 68.862 316.705 68.9617L295.248 81.4451C295.182 81.3787 295.116 81.3123 295.016 81.2127Z" fill="#341492"/>
<path d="M295.248 81.4451L316.705 68.9616C316.771 69.028 316.871 69.0944 316.937 69.1608L295.48 81.6443C295.414 81.5779 295.348 81.5115 295.248 81.4451Z" fill="#33138F"/>
<path d="M295.514 81.6443L316.971 69.1608C317.037 69.2272 317.137 69.2936 317.203 69.36L295.746 81.8435C295.647 81.7771 295.58 81.7107 295.514 81.6443Z" fill="#32138B"/>
<path d="M295.746 81.8435L317.203 69.36C317.269 69.4264 317.368 69.4928 317.435 69.526L295.978 82.0095C295.912 81.9763 295.812 81.9099 295.746 81.8435Z" fill="#301288"/>
<path d="M295.978 82.0427L317.435 69.5593C317.501 69.6257 317.601 69.6589 317.667 69.7253L296.21 82.2087C296.144 82.1423 296.044 82.0759 295.978 82.0427Z" fill="#2F1285"/>
<path d="M296.21 82.2087L317.667 69.7252C317.733 69.7916 317.833 69.8248 317.899 69.8912L296.442 82.3747C296.376 82.3083 296.277 82.2419 296.21 82.2087Z" fill="#2E1282"/>
<path d="M296.442 82.3414L317.899 69.858C317.966 69.8912 318.065 69.9576 318.131 69.9908L296.675 82.4742C296.608 82.441 296.509 82.4078 296.442 82.3414Z" fill="#2D117F"/>
<path d="M296.675 82.4743L318.131 69.9908C318.165 69.9908 318.165 70.024 318.198 70.024L296.741 82.5075C296.708 82.5075 296.675 82.5075 296.675 82.4743Z" fill="#2C117C"/>
<path d="M292.927 69.7252L314.384 57.2418C314.019 57.441 313.687 57.773 313.455 58.1714L291.999 70.6548C292.231 70.2564 292.562 69.9244 292.927 69.7252Z" fill="#1D0B51"/>
<path d="M291.965 70.6549L313.422 58.1714C313.356 58.271 313.289 58.4039 313.223 58.5367L291.766 71.0201C291.833 70.8873 291.899 70.7545 291.965 70.6549Z" fill="#1E0B54"/>
<path d="M291.766 71.0201L313.223 58.5366C313.19 58.6362 313.124 58.7358 313.091 58.8354L291.634 71.3189C291.7 71.2193 291.733 71.1197 291.766 71.0201Z" fill="#1F0C57"/>
<path d="M291.634 71.3188L313.09 58.8354C313.057 58.935 313.024 59.0346 312.991 59.1342L291.534 71.6177C291.567 71.518 291.601 71.4184 291.634 71.3188Z" fill="#200C5A"/>
<path d="M291.567 71.6177L313.024 59.1342C312.991 59.2338 312.958 59.3002 312.958 59.3998L291.501 71.8833C291.501 71.7837 291.534 71.6841 291.567 71.6177Z" fill="#210D5D"/>
<path d="M291.468 71.8833L312.925 59.3998C312.892 59.4994 312.892 59.5658 312.858 59.6654L291.402 72.1489C291.435 72.0493 291.468 71.9497 291.468 71.8833Z" fill="#220D60"/>
<path d="M291.435 72.1489L312.892 59.6655C312.892 59.7651 312.858 59.8315 312.858 59.9311L291.402 72.4145C291.402 72.3149 291.402 72.2153 291.435 72.1489Z" fill="#230D63"/>
<path d="M291.402 72.4146L312.858 59.9311C312.858 60.0307 312.825 60.0971 312.825 60.1967L291.368 72.6802C291.368 72.5806 291.368 72.481 291.402 72.4146Z" fill="#240E66"/>
<path d="M291.368 72.6469L312.825 60.1635C312.825 60.2631 312.825 60.3295 312.825 60.4291L291.368 72.9125C291.335 72.8129 291.368 72.7465 291.368 72.6469Z" fill="#250E69"/>
<path d="M291.335 72.9125L312.792 60.429C312.792 60.5286 312.792 60.595 312.792 60.6946L291.335 73.1781C291.335 73.0785 291.335 73.0121 291.335 72.9125Z" fill="#270F6C"/>
<path d="M292.927 69.7252L314.384 57.2418C314.516 57.1753 314.682 57.1089 314.815 57.0425L293.358 69.526C293.192 69.5924 293.06 69.6588 292.927 69.7252Z" fill="#858585"/>
<path d="M293.358 69.5261L314.815 57.0426C314.948 57.0094 315.047 56.9762 315.18 56.943L293.723 69.4265C293.59 69.4597 293.491 69.4929 293.358 69.5261Z" fill="#8A8A8A"/>
<path d="M293.723 69.4265L315.18 56.943C315.279 56.9098 315.379 56.9098 315.478 56.9098L294.021 69.3932C293.922 69.3932 293.822 69.3933 293.723 69.4265Z" fill="#8F8F8F"/>
<path d="M294.054 69.36L315.511 56.8766C315.611 56.8766 315.71 56.8766 315.777 56.8766L294.32 69.36C294.22 69.36 294.121 69.36 294.054 69.36Z" fill="#949494"/>
<path d="M294.32 69.36L315.777 56.8766C315.876 56.8766 315.942 56.8766 316.042 56.8766L294.585 69.36C294.486 69.36 294.419 69.36 294.32 69.36Z" fill="#999999"/>
<path d="M294.585 69.36L316.042 56.8766C316.108 56.8766 316.208 56.8766 316.274 56.9098L294.817 69.3932C294.751 69.3932 294.652 69.36 294.585 69.36Z" fill="#9E9E9E"/>
<path d="M294.817 69.3932L316.274 56.9098C316.341 56.9098 316.44 56.943 316.506 56.943L295.05 69.4265C294.983 69.4265 294.884 69.3932 294.817 69.3932Z" fill="#A3A3A3"/>
<path d="M295.05 69.4265L316.506 56.943C316.573 56.943 316.639 56.9762 316.739 56.9762L295.282 69.4596C295.215 69.4596 295.116 69.4597 295.05 69.4265Z" fill="#A8A8A8"/>
<path d="M295.282 69.4928L316.739 57.0093C316.805 57.0425 316.871 57.0425 316.971 57.0757L295.514 69.5592C295.414 69.526 295.348 69.4928 295.282 69.4928Z" fill="#ADADAD"/>
<path d="M295.48 69.5592L316.937 57.0757C317.004 57.1089 317.07 57.1089 317.169 57.1421L295.713 69.6256C295.646 69.5924 295.58 69.5592 295.48 69.5592Z" fill="#B3B3B3"/>
<path d="M295.713 69.6257L317.169 57.1422C317.236 57.1754 317.302 57.2086 317.402 57.2086L295.945 69.6921C295.845 69.6589 295.779 69.6257 295.713 69.6257Z" fill="#B8B8B8"/>
<path d="M295.945 69.692L317.402 57.2086C317.468 57.2418 317.534 57.275 317.634 57.3082L296.177 69.7916C296.077 69.7584 296.011 69.7252 295.945 69.692Z" fill="#BDBDBD"/>
<path d="M296.144 69.7916L317.601 57.3082C317.667 57.3414 317.733 57.3746 317.833 57.4078L296.376 69.8912C296.276 69.858 296.21 69.8248 296.144 69.7916Z" fill="#C2C2C2"/>
<path d="M296.376 69.8913L317.833 57.4078C317.899 57.441 317.965 57.4742 318.065 57.5074L296.608 69.9909C296.509 69.9577 296.442 69.9245 296.376 69.8913Z" fill="#C7C7C7"/>
<path d="M296.575 70.024L318.032 57.5406C318.098 57.5738 318.131 57.607 318.198 57.6402L296.741 70.1236C296.708 70.0572 296.641 70.024 296.575 70.024Z" fill="#CCCCCC"/>
<path d="M296.708 82.5075L318.197 70.024L390.229 111.658L368.772 124.141L296.708 82.5075Z" fill="#2F1286"/>
<path d="M368.772 124.141L390.229 111.658C390.295 111.691 390.328 111.724 390.395 111.757L368.938 124.241C368.871 124.208 368.805 124.174 368.772 124.141Z" fill="#2C117C"/>
<path d="M368.938 124.241L390.395 111.757C390.461 111.79 390.527 111.824 390.627 111.857L369.17 124.34C369.07 124.307 369.004 124.274 368.938 124.241Z" fill="#2B1079"/>
<path d="M369.136 124.34L390.593 111.857C390.66 111.89 390.726 111.923 390.825 111.957L369.369 124.44C369.302 124.407 369.236 124.374 369.136 124.34Z" fill="#2A1076"/>
<path d="M369.369 124.44L390.825 111.956C390.892 111.99 390.958 112.023 391.058 112.056L369.601 124.54C369.501 124.506 369.435 124.473 369.369 124.44Z" fill="#291073"/>
<path d="M369.601 124.54L391.058 112.056C391.124 112.089 391.191 112.122 391.29 112.122L369.8 124.639C369.734 124.606 369.668 124.573 369.601 124.54Z" fill="#280F70"/>
<path d="M369.8 124.639L391.257 112.156C391.323 112.189 391.39 112.189 391.489 112.222L370.032 124.706C369.966 124.672 369.866 124.639 369.8 124.639Z" fill="#270F6C"/>
<path d="M370.032 124.706L391.489 112.222C391.555 112.255 391.622 112.255 391.721 112.289L370.264 124.772C370.165 124.739 370.099 124.706 370.032 124.706Z" fill="#250E69"/>
<path d="M370.231 124.772L391.688 112.289C391.754 112.322 391.821 112.322 391.92 112.322L370.463 124.805C370.397 124.805 370.331 124.772 370.231 124.772Z" fill="#240E66"/>
<path d="M370.463 124.805L391.92 112.322C391.987 112.322 392.086 112.355 392.152 112.355L370.696 124.838C370.629 124.838 370.53 124.805 370.463 124.805Z" fill="#230D63"/>
<path d="M370.696 124.838L392.152 112.355C392.219 112.355 392.318 112.388 392.385 112.388L370.928 124.872C370.861 124.872 370.795 124.838 370.696 124.838Z" fill="#220D60"/>
<path d="M370.928 124.872L392.385 112.388C392.484 112.388 392.55 112.388 392.65 112.388L371.193 124.872C371.127 124.872 371.027 124.872 370.928 124.872Z" fill="#210D5D"/>
<path d="M371.193 124.872L392.65 112.388C392.749 112.388 392.849 112.388 392.915 112.388L371.458 124.872C371.392 124.872 371.292 124.872 371.193 124.872Z" fill="#200C5A"/>
<path d="M371.491 124.872L392.948 112.388C393.048 112.388 393.147 112.355 393.247 112.355L371.79 124.838C371.69 124.838 371.591 124.838 371.491 124.872Z" fill="#1F0C57"/>
<path d="M371.79 124.805L393.247 112.322C393.379 112.289 393.512 112.255 393.612 112.222L372.155 124.706C372.055 124.772 371.923 124.805 371.79 124.805Z" fill="#1E0B54"/>
<path d="M372.155 124.706L393.612 112.222C393.777 112.156 393.91 112.089 394.043 112.023L372.586 124.506C372.453 124.606 372.321 124.672 372.155 124.706Z" fill="#1D0B51"/>
<path d="M296.774 70.0904L318.23 57.6069L390.262 99.2406L368.805 111.724L296.774 70.0904Z" fill="#DCDCDC"/>
<path d="M368.805 111.724L390.262 99.2407C390.295 99.2407 390.295 99.2739 390.329 99.2739L368.872 111.757C368.839 111.724 368.805 111.724 368.805 111.724Z" fill="#CCCCCC"/>
<path d="M368.839 111.757L390.295 99.2739C390.362 99.3071 390.461 99.3735 390.528 99.4067L369.071 111.89C369.004 111.857 368.938 111.791 368.839 111.757Z" fill="#D1D1D1"/>
<path d="M369.071 111.89L390.528 99.4067C390.594 99.4399 390.693 99.5063 390.76 99.5727L369.303 112.056C369.237 111.99 369.137 111.923 369.071 111.89Z" fill="#D6D6D6"/>
<path d="M369.303 112.056L390.76 99.5727C390.826 99.6391 390.926 99.6723 390.992 99.7387L369.535 112.222C369.469 112.156 369.369 112.089 369.303 112.056Z" fill="#DBDBDB"/>
<path d="M369.535 112.222L391.025 99.7388C391.091 99.8052 391.191 99.8716 391.257 99.9048L369.8 112.388C369.701 112.322 369.634 112.255 369.535 112.222Z" fill="#E0E0E0"/>
<path d="M369.767 112.388L391.224 99.9048C391.29 99.9712 391.39 100.038 391.456 100.104L369.999 112.587C369.933 112.521 369.867 112.455 369.767 112.388Z" fill="#E6E6E6"/>
<path d="M370.032 112.587L391.489 100.104C391.556 100.17 391.655 100.237 391.721 100.303L370.265 112.787C370.165 112.72 370.099 112.654 370.032 112.587Z" fill="#EBEBEB"/>
<path d="M370.265 112.787L391.721 100.303C391.788 100.37 391.887 100.436 391.954 100.536L370.497 113.019C370.43 112.953 370.331 112.853 370.265 112.787Z" fill="#F0F0F0"/>
<path d="M370.497 113.019L391.954 100.536C392.02 100.602 392.119 100.668 392.186 100.768L370.729 113.251C370.663 113.152 370.563 113.085 370.497 113.019Z" fill="#F5F5F5"/>
<path d="M370.729 113.251L392.186 100.768C392.252 100.834 392.318 100.934 392.418 101L370.961 113.484C370.862 113.384 370.795 113.318 370.729 113.251Z" fill="#FAFAFA"/>
<path d="M370.928 113.484L392.385 101C392.451 101.067 392.517 101.166 392.584 101.233L371.127 113.716C371.094 113.617 371.027 113.55 370.928 113.484Z" fill="white"/>
<path d="M371.16 113.716L392.617 101.233C392.683 101.299 392.749 101.399 392.816 101.465L371.359 113.949C371.293 113.882 371.226 113.783 371.16 113.716Z" fill="white"/>
<path d="M371.359 113.949L392.816 101.465C392.882 101.565 392.949 101.631 393.015 101.731L371.558 114.214C371.492 114.115 371.425 114.048 371.359 113.949Z" fill="white"/>
<path d="M371.558 114.214L393.015 101.731C393.081 101.83 393.18 101.93 393.247 102.03L371.79 114.513C371.724 114.414 371.657 114.314 371.558 114.214Z" fill="white"/>
<path d="M371.823 114.513L393.28 102.03C393.413 102.196 393.512 102.362 393.612 102.528L372.155 115.011C372.055 114.845 371.923 114.679 371.823 114.513Z" fill="white"/>
<path d="M372.155 115.011L393.612 102.528C393.744 102.727 393.877 102.959 394.01 103.158L372.553 115.642C372.42 115.443 372.288 115.21 372.155 115.011Z" fill="white"/>
<path d="M372.553 115.642L394.01 103.158C394.109 103.324 394.176 103.457 394.275 103.623L372.818 116.107C372.719 115.974 372.652 115.808 372.553 115.642Z" fill="white"/>
<path d="M372.818 116.14L394.275 103.656C394.342 103.756 394.375 103.856 394.441 103.988L372.984 116.472C372.918 116.339 372.885 116.239 372.818 116.14Z" fill="white"/>
<path d="M372.984 116.439L394.441 103.955C394.474 104.055 394.54 104.154 394.573 104.254L373.117 116.738C373.083 116.638 373.05 116.538 372.984 116.439Z" fill="white"/>
<path d="M373.117 116.737L394.574 104.254C394.607 104.354 394.64 104.42 394.706 104.52L373.249 117.003C373.216 116.903 373.15 116.804 373.117 116.737Z" fill="white"/>
<path d="M373.25 117.003L394.706 104.52C394.739 104.619 394.773 104.686 394.806 104.785L373.349 117.269C373.316 117.169 373.283 117.07 373.25 117.003Z" fill="white"/>
<path d="M373.349 117.235L394.806 104.752C394.839 104.852 394.872 104.918 394.905 105.018L373.448 117.501C373.415 117.435 373.382 117.335 373.349 117.235Z" fill="#FAFAFA"/>
<path d="M373.448 117.501L394.905 105.018C394.938 105.117 394.971 105.184 395.005 105.283L373.548 117.767C373.515 117.7 373.481 117.601 373.448 117.501Z" fill="#F5F5F5"/>
<path d="M373.548 117.767L395.005 105.283C395.038 105.383 395.071 105.482 395.104 105.549L373.647 118.032C373.614 117.966 373.581 117.866 373.548 117.767Z" fill="#F0F0F0"/>
<path d="M373.647 118.065L395.104 105.582C395.137 105.682 395.17 105.781 395.204 105.848L373.747 118.331C373.714 118.231 373.68 118.132 373.647 118.065Z" fill="#EBEBEB"/>
<path d="M373.747 118.331L395.204 105.848C395.237 105.947 395.27 106.047 395.303 106.146L373.846 118.63C373.813 118.53 373.78 118.431 373.747 118.331Z" fill="#E6E6E6"/>
<path d="M373.813 118.63L395.27 106.146C395.303 106.246 395.336 106.346 395.336 106.445L373.88 118.929C373.88 118.796 373.846 118.729 373.813 118.63Z" fill="#E0E0E0"/>
<path d="M373.913 118.896L395.369 106.412C395.403 106.512 395.403 106.611 395.436 106.711L373.979 119.194C373.946 119.095 373.913 118.995 373.913 118.896Z" fill="#DBDBDB"/>
<path d="M373.979 119.194L395.436 106.711C395.469 106.81 395.469 106.91 395.502 106.976L374.045 119.46C374.012 119.394 373.979 119.294 373.979 119.194Z" fill="#D6D6D6"/>
<path d="M374.012 119.46L395.469 106.976C395.502 107.076 395.502 107.142 395.502 107.242L374.045 119.726C374.045 119.659 374.045 119.56 374.012 119.46Z" fill="#D1D1D1"/>
<path d="M374.078 119.759L395.535 107.275C395.535 107.375 395.568 107.441 395.568 107.541L374.112 120.024C374.112 119.925 374.078 119.825 374.078 119.759Z" fill="#CCCCCC"/>
<path d="M374.112 120.024L395.568 107.541C395.568 107.641 395.602 107.707 395.602 107.807L374.145 120.29C374.145 120.19 374.112 120.091 374.112 120.024Z" fill="#C7C7C7"/>
<path d="M374.145 120.29L395.602 107.807C395.602 107.906 395.602 107.973 395.635 108.072L374.178 120.556C374.145 120.456 374.145 120.356 374.145 120.29Z" fill="#C2C2C2"/>
<path d="M374.178 120.556L395.635 108.072C395.635 108.172 395.635 108.238 395.635 108.338L374.178 120.821C374.178 120.722 374.178 120.622 374.178 120.556Z" fill="#BDBDBD"/>
<path d="M374.178 120.788L395.635 108.305C395.635 108.371 395.635 108.471 395.635 108.537L374.178 121.02C374.178 120.954 374.178 120.888 374.178 120.788Z" fill="#B8B8B8"/>
<path d="M374.178 121.054L395.635 108.57C395.635 108.67 395.635 108.736 395.635 108.836L374.178 121.319C374.178 121.253 374.178 121.153 374.178 121.054Z" fill="#B3B3B3"/>
<path d="M374.178 121.319L395.635 108.836C395.635 108.935 395.635 109.002 395.635 109.101L374.178 121.585C374.178 121.485 374.178 121.419 374.178 121.319Z" fill="#ADADAD"/>
<path d="M374.145 121.585L395.602 109.101C395.602 109.201 395.602 109.267 395.568 109.367L374.112 121.85C374.145 121.751 374.145 121.651 374.145 121.585Z" fill="#A8A8A8"/>
<path d="M374.145 121.85L395.602 109.367C395.602 109.467 395.568 109.533 395.568 109.633L374.112 122.116C374.112 122.016 374.112 121.917 374.145 121.85Z" fill="#A3A3A3"/>
<path d="M374.079 122.083L395.535 109.599C395.535 109.699 395.502 109.765 395.469 109.865L374.012 122.348C374.045 122.282 374.079 122.182 374.079 122.083Z" fill="#9E9E9E"/>
<path d="M374.045 122.348L395.502 109.865C395.469 109.965 395.469 110.064 395.436 110.131L373.979 122.614C373.979 122.548 374.012 122.448 374.045 122.348Z" fill="#999999"/>
<path d="M373.979 122.647L395.436 110.164C395.403 110.263 395.369 110.363 395.336 110.463L373.879 122.946C373.913 122.846 373.946 122.747 373.979 122.647Z" fill="#949494"/>
<path d="M373.879 122.913L395.336 110.429C395.303 110.529 395.27 110.629 395.204 110.728L373.747 123.212C373.78 123.145 373.846 123.012 373.879 122.913Z" fill="#8F8F8F"/>
<path d="M373.747 123.245L395.204 110.761C395.137 110.894 395.071 111.027 395.005 111.127L373.548 123.61C373.614 123.477 373.68 123.344 373.747 123.245Z" fill="#8A8A8A"/>
<path d="M373.548 123.61L395.005 111.127C394.739 111.525 394.441 111.824 394.076 112.056L372.619 124.54C372.984 124.307 373.283 123.975 373.548 123.61Z" fill="#858585"/>
<path d="M384.989 132.109L406.446 119.626C406.545 119.792 406.645 119.958 406.744 120.124L385.287 132.607C385.155 132.441 385.089 132.275 384.989 132.109Z" fill="#674DB3"/>
<path d="M385.254 132.64L406.711 120.157C406.844 120.389 406.976 120.622 407.142 120.854L385.686 133.338C385.553 133.072 385.42 132.84 385.254 132.64Z" fill="#6D54B6"/>
<path d="M385.685 133.305L407.142 120.821C407.275 120.987 407.374 121.186 407.507 121.352L386.05 133.836C385.951 133.67 385.818 133.471 385.685 133.305Z" fill="#674DB3"/>
<path d="M386.05 133.836L407.507 121.352C407.606 121.452 407.673 121.585 407.772 121.684L386.315 134.168C386.216 134.068 386.15 133.935 386.05 133.836Z" fill="#6146B0"/>
<path d="M386.315 134.168L407.772 121.684C407.839 121.784 407.905 121.884 408.004 121.95L386.548 134.433C386.481 134.334 386.382 134.267 386.315 134.168Z" fill="#593DAC"/>
<path d="M386.548 134.433L408.004 121.95C408.071 122.049 408.137 122.116 408.237 122.216L386.78 134.699C386.68 134.599 386.614 134.533 386.548 134.433Z" fill="#4F31A7"/>
<path d="M386.78 134.699L408.237 122.216C408.303 122.315 408.369 122.382 408.469 122.448L387.012 134.931C386.912 134.865 386.846 134.799 386.78 134.699Z" fill="#37159B"/>
<path d="M386.979 134.931L408.435 122.448C408.502 122.547 408.601 122.614 408.667 122.68L387.211 135.164C387.144 135.097 387.078 135.031 386.979 134.931Z" fill="#361598"/>
<path d="M387.211 135.197L408.668 122.713C408.734 122.78 408.833 122.879 408.9 122.946L387.443 135.429C387.377 135.363 387.31 135.263 387.211 135.197Z" fill="#351495"/>
<path d="M387.476 135.429L408.933 122.946C409.032 123.012 409.099 123.112 409.198 123.178L387.741 135.662C387.642 135.595 387.542 135.529 387.476 135.429Z" fill="#341492"/>
<path d="M387.708 135.662L409.165 123.178C409.265 123.245 409.331 123.344 409.43 123.411L387.974 135.894C387.874 135.828 387.808 135.761 387.708 135.662Z" fill="#33138F"/>
<path d="M387.974 135.894L409.43 123.411C409.53 123.477 409.596 123.544 409.696 123.61L388.239 136.093C388.139 136.027 388.073 135.961 387.974 135.894Z" fill="#32138B"/>
<path d="M388.239 136.093L409.696 123.61C409.795 123.676 409.862 123.743 409.961 123.809L388.504 136.293C388.405 136.226 388.305 136.16 388.239 136.093Z" fill="#301288"/>
<path d="M388.471 136.293L409.928 123.809C410.027 123.876 410.094 123.942 410.193 123.975L388.737 136.459C388.637 136.425 388.571 136.359 388.471 136.293Z" fill="#2F1285"/>
<path d="M388.737 136.459L410.193 123.975C410.26 124.042 410.359 124.075 410.425 124.141L388.969 136.625C388.902 136.591 388.803 136.525 388.737 136.459Z" fill="#2E1282"/>
<path d="M388.969 136.625L410.425 124.141C410.492 124.208 410.591 124.241 410.657 124.307L389.201 136.791C389.134 136.724 389.068 136.691 388.969 136.625Z" fill="#2D117F"/>
<path d="M389.234 136.791L410.691 124.307C410.724 124.307 410.724 124.34 410.757 124.34C410.823 124.374 410.89 124.407 410.956 124.44L389.499 136.923C389.433 136.89 389.367 136.857 389.3 136.824C389.267 136.824 389.234 136.791 389.234 136.791Z" fill="#2C117C"/>
<path d="M389.466 136.923L410.923 124.44C410.989 124.473 411.089 124.54 411.155 124.573L389.698 137.056C389.632 136.99 389.532 136.957 389.466 136.923Z" fill="#2B1079"/>
<path d="M389.698 137.056L411.155 124.573C411.221 124.606 411.321 124.639 411.387 124.672L389.93 137.156C389.864 137.123 389.765 137.089 389.698 137.056Z" fill="#2A1076"/>
<path d="M389.93 137.156L411.387 124.672C411.453 124.706 411.553 124.739 411.619 124.772L390.162 137.255C390.096 137.222 389.997 137.189 389.93 137.156Z" fill="#291073"/>
<path d="M390.162 137.255L411.619 124.772C411.686 124.805 411.785 124.838 411.851 124.872L390.395 137.355C390.328 137.322 390.229 137.289 390.162 137.255Z" fill="#280F70"/>
<path d="M390.395 137.355L411.851 124.872C411.918 124.905 412.017 124.938 412.083 124.938L390.627 137.421C390.56 137.388 390.461 137.355 390.395 137.355Z" fill="#270F6C"/>
<path d="M390.627 137.421L412.083 124.938C412.15 124.971 412.249 124.971 412.316 125.004L390.859 137.488C390.793 137.455 390.693 137.455 390.627 137.421Z" fill="#250E69"/>
<path d="M390.859 137.488L412.316 125.004C412.382 125.038 412.481 125.038 412.548 125.071L391.091 137.554C391.025 137.521 390.958 137.488 390.859 137.488Z" fill="#240E66"/>
<path d="M391.091 137.521L412.548 125.038C412.647 125.071 412.714 125.071 412.813 125.071L391.356 137.587C391.257 137.554 391.191 137.554 391.091 137.521Z" fill="#230D63"/>
<path d="M391.356 137.587L412.813 125.104C412.913 125.104 412.979 125.137 413.079 125.137L391.622 137.621C391.522 137.587 391.456 137.587 391.356 137.587Z" fill="#220D60"/>
<path d="M391.621 137.587L413.078 125.104C413.178 125.104 413.244 125.104 413.343 125.104L391.887 137.587C391.787 137.621 391.688 137.621 391.621 137.587Z" fill="#210D5D"/>
<path d="M391.887 137.621L413.344 125.137C413.443 125.137 413.543 125.137 413.642 125.137L392.185 137.621C392.086 137.621 391.986 137.621 391.887 137.621Z" fill="#200C5A"/>
<path d="M392.186 137.587L413.642 125.104C413.742 125.104 413.874 125.071 413.974 125.071L392.517 137.554C392.418 137.554 392.285 137.587 392.186 137.587Z" fill="#1F0C57"/>
<path d="M392.517 137.554L413.974 125.071C414.107 125.038 414.239 125.004 414.372 124.971L392.915 137.455C392.782 137.488 392.65 137.521 392.517 137.554Z" fill="#1E0B54"/>
<path d="M392.915 137.421L414.372 124.938C414.538 124.872 414.704 124.805 414.836 124.739L393.379 137.222C393.247 137.322 393.081 137.388 392.915 137.421Z" fill="#1D0B51"/>
<path d="M385.221 123.178L406.678 110.695C406.28 110.927 405.948 111.259 405.683 111.658L384.226 124.141C384.491 123.743 384.823 123.411 385.221 123.178Z" fill="#1D0B51"/>
<path d="M384.226 124.141L405.683 111.658C405.617 111.791 405.517 111.923 405.451 112.056L383.994 124.54C384.06 124.407 384.127 124.274 384.226 124.141Z" fill="#1E0B54"/>
<path d="M383.994 124.539L405.451 112.056C405.385 112.156 405.352 112.255 405.318 112.388L383.862 124.871C383.895 124.772 383.961 124.639 383.994 124.539Z" fill="#1F0C57"/>
<path d="M383.861 124.872L405.318 112.388C405.285 112.488 405.252 112.587 405.219 112.687L383.762 125.17C383.795 125.071 383.828 124.971 383.861 124.872Z" fill="#200C5A"/>
<path d="M383.762 125.17L405.218 112.687C405.185 112.786 405.152 112.886 405.152 112.986L383.695 125.469C383.695 125.369 383.728 125.27 383.762 125.17Z" fill="#210D5D"/>
<path d="M383.696 125.469L405.153 112.986C405.119 113.085 405.119 113.185 405.086 113.251L383.629 125.735C383.663 125.668 383.663 125.569 383.696 125.469Z" fill="#220D60"/>
<path d="M383.629 125.735L405.086 113.251C405.086 113.351 405.053 113.417 405.053 113.517L383.596 126C383.596 125.934 383.629 125.834 383.629 125.735Z" fill="#230D63"/>
<path d="M383.596 126.034L405.053 113.55C405.053 113.65 405.02 113.749 405.02 113.816L383.563 126.299C383.563 126.2 383.563 126.133 383.596 126.034Z" fill="#240E66"/>
<path d="M383.563 126.299L405.02 113.816C405.02 113.915 405.02 113.982 405.02 114.081L383.563 126.565C383.563 126.498 383.563 126.399 383.563 126.299Z" fill="#250E69"/>
<path d="M383.53 126.565L404.986 114.081C404.986 114.181 404.986 114.28 404.986 114.347L383.53 126.83C383.53 126.764 383.53 126.664 383.53 126.565Z" fill="#270F6C"/>
<path d="M383.53 126.864L404.986 114.38C404.986 114.38 404.986 114.38 404.986 114.413C404.986 114.513 404.986 114.579 404.986 114.679L383.53 127.162C383.53 127.03 383.53 126.963 383.53 126.864Z" fill="#280F70"/>
<path d="M383.53 127.129L404.986 114.646C404.986 114.745 404.986 114.845 404.986 114.911L383.53 127.395C383.563 127.328 383.53 127.229 383.53 127.129Z" fill="#291073"/>
<path d="M383.563 127.395L405.02 114.911C405.02 115.011 405.02 115.111 405.053 115.177L383.596 127.66C383.563 127.594 383.563 127.494 383.563 127.395Z" fill="#2A1076"/>
<path d="M383.563 127.694L405.02 115.21C405.02 115.31 405.053 115.409 405.053 115.476L383.596 127.959C383.596 127.86 383.596 127.793 383.563 127.694Z" fill="#2B1079"/>
<path d="M383.596 127.959L405.053 115.476C405.053 115.575 405.086 115.675 405.086 115.775L383.629 128.258C383.629 128.158 383.629 128.059 383.596 127.959Z" fill="#2C117C"/>
<path d="M383.662 128.258L405.119 115.775C405.119 115.874 405.152 115.974 405.185 116.073L383.728 128.557C383.695 128.457 383.662 128.358 383.662 128.258Z" fill="#2D117F"/>
<path d="M383.695 128.557L405.152 116.073C405.185 116.173 405.185 116.273 405.218 116.372L383.762 128.856C383.728 128.756 383.728 128.656 383.695 128.557Z" fill="#2E1282"/>
<path d="M383.762 128.856L405.219 116.372C405.252 116.472 405.252 116.571 405.285 116.671L383.828 129.154C383.795 129.055 383.795 128.955 383.762 128.856Z" fill="#2F1285"/>
<path d="M383.828 129.154L405.285 116.671C405.318 116.771 405.351 116.87 405.351 116.97L383.894 129.453C383.894 129.354 383.861 129.254 383.828 129.154Z" fill="#301288"/>
<path d="M383.894 129.453L405.351 116.97C405.384 117.069 405.417 117.169 405.451 117.269L383.994 129.752C383.961 129.652 383.927 129.553 383.894 129.453Z" fill="#32138B"/>
<path d="M383.994 129.752L405.451 117.269C405.484 117.368 405.517 117.468 405.55 117.567L384.093 130.051C384.06 129.951 384.027 129.852 383.994 129.752Z" fill="#33138F"/>
<path d="M384.094 130.051L405.55 117.567C405.583 117.667 405.617 117.767 405.65 117.866L384.193 130.35C384.16 130.25 384.127 130.15 384.094 130.051Z" fill="#341492"/>
<path d="M384.193 130.35L405.65 117.866C405.683 117.966 405.716 118.065 405.749 118.132L384.292 130.615C384.259 130.549 384.226 130.449 384.193 130.35Z" fill="#351495"/>
<path d="M384.292 130.648L405.749 118.165C405.782 118.265 405.816 118.364 405.849 118.431L384.392 130.914C384.392 130.814 384.326 130.715 384.292 130.648Z" fill="#361598"/>
<path d="M384.425 130.914L405.882 118.431C405.915 118.53 405.948 118.63 406.015 118.696L384.558 131.18C384.491 131.113 384.458 131.014 384.425 130.914Z" fill="#37159B"/>
<path d="M384.525 131.18L405.981 118.696C406.015 118.796 406.081 118.895 406.114 118.962L384.657 131.445C384.624 131.379 384.558 131.279 384.525 131.18Z" fill="#4F31A7"/>
<path d="M384.657 131.478L406.114 118.995C406.147 119.095 406.214 119.194 406.247 119.294L384.79 131.777C384.757 131.678 384.724 131.578 384.657 131.478Z" fill="#593DAC"/>
<path d="M384.823 131.777L406.28 119.294C406.346 119.393 406.413 119.526 406.446 119.626L384.989 132.109C384.923 132.01 384.856 131.877 384.823 131.777Z" fill="#6146B0"/>
<path d="M384.989 132.109L406.446 119.626C406.545 119.792 406.645 119.958 406.744 120.124L385.287 132.607C385.155 132.441 385.089 132.275 384.989 132.109Z" fill="#674DB3"/>
<path d="M385.221 123.178L406.678 110.695C406.81 110.595 406.976 110.529 407.142 110.462L385.685 122.946C385.519 123.012 385.354 123.079 385.221 123.178Z" fill="#858585"/>
<path d="M385.685 122.946L407.142 110.462C407.275 110.429 407.407 110.396 407.54 110.363L386.083 122.846C385.951 122.88 385.818 122.913 385.685 122.946Z" fill="#8A8A8A"/>
<path d="M386.083 122.846L407.54 110.363C407.64 110.33 407.772 110.33 407.872 110.33L386.415 122.813C386.315 122.813 386.183 122.813 386.083 122.846Z" fill="#8F8F8F"/>
<path d="M386.415 122.813L407.872 110.33C407.971 110.33 408.071 110.33 408.17 110.33L386.713 122.813C386.614 122.78 386.514 122.78 386.415 122.813Z" fill="#949494"/>
<path d="M386.713 122.78L408.17 110.296C408.27 110.296 408.336 110.296 408.435 110.296L386.979 122.78C386.912 122.78 386.813 122.78 386.713 122.78Z" fill="#999999"/>
<path d="M386.979 122.78L408.435 110.296C408.535 110.296 408.601 110.296 408.701 110.33L387.244 122.813C387.144 122.813 387.078 122.813 386.979 122.78Z" fill="#9E9E9E"/>
<path d="M387.244 122.813L408.701 110.33C408.8 110.33 408.867 110.363 408.966 110.363L387.509 122.846C387.41 122.846 387.343 122.846 387.244 122.813Z" fill="#A3A3A3"/>
<path d="M387.509 122.846L408.966 110.363C409.032 110.363 409.132 110.396 409.198 110.429L387.741 122.913C387.642 122.88 387.576 122.88 387.509 122.846Z" fill="#A8A8A8"/>
<path d="M387.741 122.913L409.198 110.429C409.264 110.462 409.364 110.462 409.43 110.496L387.973 122.979C387.907 122.946 387.808 122.946 387.741 122.913Z" fill="#ADADAD"/>
<path d="M387.973 122.979L409.43 110.496C409.497 110.529 409.596 110.529 409.662 110.562L388.206 123.046C388.139 123.012 388.04 123.012 387.973 122.979Z" fill="#B3B3B3"/>
<path d="M388.206 123.046L409.662 110.562C409.729 110.595 409.828 110.628 409.895 110.662L388.438 123.145C388.371 123.112 388.272 123.079 388.206 123.046Z" fill="#B8B8B8"/>
<path d="M388.438 123.145L409.895 110.662C409.961 110.695 410.06 110.728 410.127 110.761L388.67 123.245C388.604 123.212 388.504 123.178 388.438 123.145Z" fill="#BDBDBD"/>
<path d="M388.67 123.245L410.127 110.761C410.193 110.794 410.293 110.828 410.359 110.861L388.902 123.344C388.836 123.311 388.736 123.278 388.67 123.245Z" fill="#C2C2C2"/>
<path d="M388.902 123.344L410.359 110.861C410.425 110.894 410.525 110.927 410.591 110.994L389.134 123.477C389.068 123.444 388.968 123.378 388.902 123.344Z" fill="#C7C7C7"/>
<path d="M389.134 123.477L410.591 110.994C410.657 111.027 410.724 111.06 410.79 111.093L389.333 123.577C389.267 123.543 389.201 123.51 389.134 123.477Z" fill="#CCCCCC"/>
<path d="M389.333 123.577L410.79 111.093C410.823 111.093 410.823 111.126 410.856 111.126L389.4 123.61C389.366 123.61 389.333 123.577 389.333 123.577Z" fill="#CCCCCC"/>
<path d="M389.366 123.61L410.823 111.126C410.89 111.16 410.989 111.226 411.055 111.259L389.599 123.743C389.532 123.71 389.466 123.643 389.366 123.61Z" fill="#D1D1D1"/>
<path d="M389.632 123.743L411.089 111.259C411.155 111.326 411.254 111.359 411.321 111.425L389.864 123.909C389.798 123.876 389.698 123.809 389.632 123.743Z" fill="#D6D6D6"/>
<path d="M389.864 123.909L411.321 111.425C411.42 111.492 411.487 111.558 411.586 111.591L390.129 124.075C390.03 124.042 389.964 123.975 389.864 123.909Z" fill="#DBDBDB"/>
<path d="M390.129 124.108L411.586 111.625C411.686 111.691 411.752 111.757 411.851 111.824L390.362 124.307C390.295 124.241 390.196 124.174 390.129 124.108Z" fill="#E0E0E0"/>
<path d="M390.362 124.307L411.818 111.824C411.918 111.89 411.984 111.957 412.084 112.023L390.627 124.506C390.527 124.44 390.461 124.374 390.362 124.307Z" fill="#E6E6E6"/>
<path d="M390.627 124.506L412.083 112.023C412.183 112.089 412.249 112.156 412.349 112.255L390.892 124.739C390.793 124.639 390.726 124.573 390.627 124.506Z" fill="#EBEBEB"/>
<path d="M390.892 124.739L412.349 112.255C412.448 112.322 412.514 112.421 412.614 112.488L391.157 124.971C391.058 124.872 390.958 124.805 390.892 124.739Z" fill="#F0F0F0"/>
<path d="M391.124 124.971L412.581 112.488C412.647 112.554 412.747 112.654 412.813 112.72L391.356 125.204C391.29 125.104 391.224 125.038 391.124 124.971Z" fill="#F5F5F5"/>
<path d="M391.389 125.204L412.846 112.72C412.912 112.786 413.012 112.886 413.078 112.952L391.621 125.436C391.522 125.37 391.455 125.27 391.389 125.204Z" fill="#FAFAFA"/>
<path d="M391.621 125.436L413.078 112.953C413.144 113.019 413.244 113.119 413.31 113.185L391.853 125.668C391.754 125.602 391.688 125.536 391.621 125.436Z" fill="white"/>
<path d="M391.854 125.702L413.31 113.218C413.377 113.318 413.443 113.384 413.542 113.484L392.086 125.967C391.986 125.868 391.92 125.768 391.854 125.702Z" fill="white"/>
<path d="M392.053 125.967L413.51 113.484C413.576 113.583 413.642 113.65 413.742 113.749L392.285 126.233C392.219 126.133 392.119 126.034 392.053 125.967Z" fill="white"/>
<path d="M392.285 126.233L413.742 113.749C413.841 113.849 413.908 113.982 414.007 114.081L392.55 126.565C392.451 126.465 392.384 126.332 392.285 126.233Z" fill="white"/>
<path d="M392.55 126.565L414.007 114.081C414.139 114.247 414.239 114.413 414.372 114.612L392.915 127.096C392.782 126.897 392.65 126.731 392.55 126.565Z" fill="white"/>
<path d="M392.915 127.096L414.372 114.613C414.505 114.845 414.67 115.077 414.803 115.31L393.346 127.793C393.18 127.528 393.048 127.295 392.915 127.096Z" fill="white"/>
<path d="M393.346 127.76L414.803 115.277C414.902 115.443 415.002 115.609 415.101 115.775L393.645 128.258C393.512 128.092 393.413 127.926 393.346 127.76Z" fill="white"/>
<path d="M393.611 128.291L415.068 115.808C415.134 115.907 415.201 116.04 415.234 116.14L393.777 128.623C393.744 128.49 393.678 128.391 393.611 128.291Z" fill="white"/>
<path d="M393.777 128.623L415.234 116.14C415.3 116.239 415.333 116.339 415.367 116.439L393.91 128.922C393.877 128.822 393.843 128.723 393.777 128.623Z" fill="white"/>
<path d="M393.943 128.922L415.4 116.439C415.433 116.538 415.499 116.638 415.532 116.704L394.076 129.188C394.042 129.121 393.976 129.022 393.943 128.922Z" fill="white"/>
<path d="M394.076 129.221L415.533 116.737C415.566 116.837 415.599 116.937 415.665 117.003L394.208 129.486C394.142 129.387 394.109 129.287 394.076 129.221Z" fill="white"/>
<path d="M394.175 129.486L415.632 117.003C415.665 117.103 415.698 117.202 415.731 117.269L394.275 129.752C394.275 129.652 394.208 129.586 394.175 129.486Z" fill="#FAFAFA"/>
<path d="M394.308 129.752L415.765 117.269C415.798 117.368 415.831 117.468 415.864 117.567L394.407 130.051C394.374 129.951 394.341 129.852 394.308 129.752Z" fill="#F5F5F5"/>
<path d="M394.407 130.051L415.864 117.567C415.897 117.667 415.93 117.767 415.964 117.866L394.507 130.35C394.474 130.25 394.44 130.15 394.407 130.051Z" fill="#F0F0F0"/>
<path d="M394.507 130.35L415.964 117.866C415.997 117.966 416.03 118.065 416.063 118.165L394.606 130.648C394.573 130.549 394.54 130.449 394.507 130.35Z" fill="#EBEBEB"/>
<path d="M394.606 130.648L416.063 118.165C416.096 118.265 416.129 118.364 416.162 118.464L394.706 130.947C394.673 130.848 394.639 130.748 394.606 130.648Z" fill="#E6E6E6"/>
<path d="M394.706 130.947L416.163 118.464C416.196 118.563 416.229 118.663 416.229 118.763L394.772 131.246C394.739 131.146 394.706 131.047 394.706 130.947Z" fill="#E0E0E0"/>
<path d="M394.772 131.246L416.229 118.763C416.262 118.862 416.262 118.962 416.295 119.061L394.839 131.545C394.805 131.445 394.805 131.346 394.772 131.246Z" fill="#DBDBDB"/>
<path d="M394.838 131.545L416.295 119.061C416.328 119.161 416.328 119.261 416.361 119.36L394.905 131.844C394.872 131.744 394.872 131.645 394.838 131.545Z" fill="#D6D6D6"/>
<path d="M394.905 131.844L416.361 119.36C416.394 119.46 416.395 119.559 416.428 119.659L394.971 132.142C394.938 132.043 394.905 131.943 394.905 131.844Z" fill="#D1D1D1"/>
<path d="M394.938 132.143L416.428 119.659C416.428 119.759 416.461 119.858 416.461 119.958L395.004 132.441C394.971 132.342 394.971 132.242 394.938 132.143Z" fill="#CCCCCC"/>
<path d="M395.004 132.441L416.461 119.958C416.461 120.057 416.494 120.157 416.494 120.257L395.038 132.74C395.004 132.607 395.004 132.508 395.004 132.441Z" fill="#C7C7C7"/>
<path d="M395.037 132.707L416.494 120.223C416.494 120.323 416.494 120.423 416.527 120.489L395.071 132.973C395.037 132.906 395.037 132.807 395.037 132.707Z" fill="#C2C2C2"/>
<path d="M395.037 133.006L416.494 120.522C416.494 120.622 416.494 120.721 416.494 120.788L395.037 133.271C395.071 133.172 395.037 133.072 395.037 133.006Z" fill="#BDBDBD"/>
<path d="M395.07 133.271L416.527 120.788C416.527 120.887 416.527 120.954 416.527 121.053C416.527 121.053 416.527 121.053 416.527 121.087L395.07 133.57C395.07 133.57 395.07 133.57 395.07 133.537C395.07 133.437 395.07 133.371 395.07 133.271Z" fill="#B8B8B8"/>
<path d="M395.07 133.537L416.527 121.053C416.527 121.153 416.527 121.253 416.527 121.319L395.07 133.803C395.07 133.736 395.07 133.637 395.07 133.537Z" fill="#B3B3B3"/>
<path d="M395.071 133.836L416.527 121.352C416.527 121.452 416.527 121.518 416.494 121.618L395.037 134.101C395.037 134.002 395.037 133.902 395.071 133.836Z" fill="#ADADAD"/>
<path d="M395.038 134.101L416.494 121.618C416.494 121.718 416.461 121.817 416.461 121.884L395.004 134.367C395.038 134.267 395.038 134.201 395.038 134.101Z" fill="#A8A8A8"/>
<path d="M395.004 134.367L416.461 121.883C416.461 121.983 416.428 122.083 416.428 122.149L394.971 134.632C394.971 134.566 395.004 134.466 395.004 134.367Z" fill="#A3A3A3"/>
<path d="M394.971 134.633L416.428 122.149C416.395 122.249 416.394 122.348 416.361 122.415L394.905 134.898C394.938 134.832 394.938 134.732 394.971 134.633Z" fill="#9E9E9E"/>
<path d="M394.905 134.931L416.361 122.448C416.328 122.547 416.328 122.647 416.295 122.747L394.838 135.23C394.872 135.131 394.905 135.031 394.905 134.931Z" fill="#999999"/>
<path d="M394.839 135.23L416.295 122.747C416.262 122.846 416.229 122.946 416.196 123.046L394.739 135.529C394.772 135.429 394.805 135.33 394.839 135.23Z" fill="#949494"/>
<path d="M394.739 135.529L416.196 123.046C416.163 123.145 416.096 123.278 416.063 123.378L394.606 135.861C394.639 135.761 394.706 135.629 394.739 135.529Z" fill="#8F8F8F"/>
<path d="M394.606 135.861L416.063 123.378C415.997 123.51 415.93 123.643 415.831 123.776L394.374 136.259C394.474 136.127 394.54 135.994 394.606 135.861Z" fill="#8A8A8A"/>
<path d="M394.374 136.259L415.831 123.776C415.566 124.208 415.234 124.506 414.836 124.739L393.379 137.222C393.777 136.99 394.109 136.658 394.374 136.259Z" fill="#858585"/>
<path d="M462.724 190.875L484.181 178.391L482.954 616.507L461.497 628.991L462.724 190.875Z" fill="#B06378"/>
<path d="M462.724 190.875L461.497 628.991L222.355 490.809L223.582 52.7265L462.724 190.875Z" fill="url(#paint2_linear_312_34)"/>
<path d="M455.13 144.991C467.732 152.262 477.946 169.958 477.88 184.467L476.388 706.714C476.355 721.222 466.074 727.066 453.472 719.795L229.751 590.544C217.148 583.273 206.934 565.577 207 551.069L208.493 28.822C208.526 14.3133 218.807 8.47 231.409 15.741L455.13 144.991ZM461.497 628.991L462.724 190.875L223.582 52.7265L222.355 490.843L461.497 628.991ZM362.272 633.473C371.657 628.128 371.69 610.697 362.371 594.528C357.695 586.461 351.593 580.219 345.458 576.7C339.323 573.147 333.188 572.317 328.512 574.973C319.126 580.319 319.093 597.749 328.412 613.918C333.055 621.985 339.19 628.227 345.325 631.746C351.428 635.266 357.563 636.129 362.272 633.473ZM296.774 70.0905C293.789 68.364 291.368 69.7585 291.368 73.1781C291.368 76.5978 293.756 80.7811 296.741 82.5075L368.772 124.108C371.757 125.834 374.178 124.44 374.178 121.02C374.178 117.601 371.79 113.417 368.805 111.691L296.774 70.0905ZM389.333 123.577C386.15 121.751 383.563 123.212 383.563 126.864C383.563 130.516 386.117 134.965 389.3 136.824C392.484 138.65 395.071 137.189 395.071 133.537C395.071 129.885 392.517 125.403 389.333 123.577Z" fill="white"/>
<path d="M368.805 111.724C371.79 113.45 374.211 117.634 374.178 121.053C374.178 124.473 371.757 125.868 368.772 124.141L296.708 82.5075C293.723 80.781 291.302 76.5977 291.335 73.1781C291.335 69.7584 293.756 68.364 296.741 70.0904L368.805 111.724Z" fill="#D2D7DA"/>
<path d="M389.334 123.577C392.517 125.403 395.104 129.885 395.071 133.537C395.071 137.189 392.484 138.65 389.3 136.824C386.117 134.998 383.53 130.516 383.563 126.864C383.563 123.212 386.15 121.751 389.334 123.577Z" fill="#D2D7DA"/>
<path d="M477.88 184.467L499.37 171.983L497.877 694.197L476.421 706.68L477.88 184.467Z" fill="#839098"/>
<path d="M231.408 15.7409L252.865 3.25745L476.586 132.508L455.13 144.991L231.408 15.7409Z" fill="#839098"/>
<path d="M455.13 144.991L476.587 132.508C476.653 132.541 476.753 132.607 476.819 132.64L455.362 145.124C455.263 145.091 455.196 145.024 455.13 144.991Z" fill="url(#paint3_linear_312_34)"/>
<path d="M455.362 145.124L476.819 132.641C477.151 132.84 477.449 133.039 477.781 133.238L456.324 145.722C455.992 145.522 455.661 145.323 455.362 145.124Z" fill="url(#paint4_linear_312_34)"/>
<path d="M456.324 145.722L477.781 133.238C478.112 133.437 478.444 133.67 478.742 133.869L457.285 146.352C456.954 146.153 456.655 145.921 456.324 145.722Z" fill="url(#paint5_linear_312_34)"/>
<path d="M457.286 146.352L478.742 133.869C479.074 134.101 479.406 134.334 479.737 134.566L458.281 147.05C457.949 146.817 457.617 146.585 457.286 146.352Z" fill="url(#paint6_linear_312_34)"/>
<path d="M458.28 147.05L479.737 134.566C480.069 134.799 480.4 135.064 480.732 135.33L459.275 147.813C458.944 147.581 458.612 147.315 458.28 147.05Z" fill="url(#paint7_linear_312_34)"/>
<path d="M459.275 147.846L480.732 135.363C481.064 135.629 481.395 135.894 481.76 136.193L460.303 148.676C459.972 148.378 459.64 148.112 459.275 147.846Z" fill="url(#paint8_linear_312_34)"/>
<path d="M460.303 148.676L481.76 136.193C482.092 136.492 482.457 136.791 482.788 137.089L461.298 149.54C460.967 149.241 460.635 148.942 460.303 148.676Z" fill="url(#paint9_linear_312_34)"/>
<path d="M461.298 149.54L482.755 137.056C483.087 137.355 483.418 137.687 483.75 137.986L462.293 150.469C461.995 150.17 461.663 149.838 461.298 149.54Z" fill="url(#paint10_linear_312_34)"/>
<path d="M462.326 150.469L483.783 137.986C484.115 138.285 484.413 138.617 484.745 138.949L463.288 151.432C462.957 151.1 462.658 150.801 462.326 150.469Z" fill="url(#paint11_linear_312_34)"/>
<path d="M463.288 151.432L484.745 138.949C485.077 139.281 485.375 139.613 485.674 139.945L464.217 152.428C463.918 152.096 463.587 151.764 463.288 151.432Z" fill="url(#paint12_linear_312_34)"/>
<path d="M464.217 152.428L485.674 139.945C485.972 140.277 486.271 140.609 486.569 140.941L465.112 153.424C464.814 153.059 464.515 152.727 464.217 152.428Z" fill="url(#paint13_linear_312_34)"/>
<path d="M465.112 153.391L486.569 140.907C486.867 141.239 487.166 141.605 487.464 141.937L466.007 154.42C465.709 154.088 465.411 153.723 465.112 153.391Z" fill="url(#paint14_linear_312_34)"/>
<path d="M465.974 154.42L487.431 141.937C487.73 142.302 488.028 142.667 488.293 143.032L466.837 155.516C466.571 155.151 466.273 154.785 465.974 154.42Z" fill="url(#paint15_linear_312_34)"/>
<path d="M466.87 155.516L488.326 143.032C488.658 143.464 489.023 143.929 489.355 144.36L467.898 156.844C467.533 156.412 467.201 155.947 466.87 155.516Z" fill="url(#paint16_linear_312_34)"/>
<path d="M467.865 156.844L489.321 144.36C489.819 145.024 490.316 145.722 490.781 146.419L469.324 158.902C468.859 158.205 468.362 157.541 467.865 156.844Z" fill="url(#paint17_linear_312_34)"/>
<path d="M469.324 158.902L490.781 146.419C491.378 147.315 491.942 148.212 492.472 149.108L471.015 161.591C470.485 160.695 469.921 159.799 469.324 158.902Z" fill="url(#paint18_linear_312_34)"/>
<path d="M471.015 161.625L492.472 149.141C492.87 149.805 493.235 150.469 493.6 151.167L472.143 163.65C471.778 162.953 471.413 162.289 471.015 161.625Z" fill="url(#paint19_linear_312_34)"/>
<path d="M472.143 163.617L493.6 151.133C493.832 151.598 494.064 152.03 494.296 152.494L472.839 164.978C472.64 164.546 472.375 164.082 472.143 163.617Z" fill="url(#paint20_linear_312_34)"/>
<path d="M472.839 164.978L494.296 152.495C494.495 152.893 494.694 153.291 494.893 153.69L473.436 166.173C473.237 165.808 473.038 165.376 472.839 164.978Z" fill="url(#paint21_linear_312_34)"/>
<path d="M473.436 166.206L494.893 153.723C495.059 154.088 495.224 154.453 495.39 154.819L473.933 167.302C473.768 166.937 473.602 166.572 473.436 166.206Z" fill="url(#paint22_linear_312_34)"/>
<path d="M473.934 167.302L495.39 154.819C495.556 155.184 495.722 155.549 495.855 155.914L474.398 168.398C474.265 168.032 474.099 167.667 473.934 167.302Z" fill="url(#paint23_linear_312_34)"/>
<path d="M474.398 168.398L495.855 155.914C496.021 156.279 496.153 156.645 496.286 157.01L474.829 169.493C474.696 169.128 474.564 168.763 474.398 168.398Z" fill="url(#paint24_linear_312_34)"/>
<path d="M474.862 169.493L496.319 157.01C496.452 157.375 496.618 157.74 496.75 158.139L475.293 170.622C475.128 170.257 474.995 169.892 474.862 169.493Z" fill="url(#paint25_linear_312_34)"/>
<path d="M475.26 170.622L496.717 158.139C496.85 158.537 496.982 158.902 497.115 159.301L475.658 171.784C475.559 171.386 475.426 171.02 475.26 170.622Z" fill="url(#paint26_linear_312_34)"/>
<path d="M475.691 171.784L497.148 159.301C497.281 159.699 497.413 160.097 497.513 160.496L476.056 172.979C475.923 172.581 475.824 172.183 475.691 171.784Z" fill="url(#paint27_linear_312_34)"/>
<path d="M476.056 172.979L497.513 160.496C497.646 160.894 497.745 161.293 497.878 161.691L476.421 174.175C476.288 173.776 476.189 173.378 476.056 172.979Z" fill="url(#paint28_linear_312_34)"/>
<path d="M476.421 174.175L497.878 161.691C497.977 162.09 498.11 162.488 498.209 162.92L476.753 175.403C476.62 174.971 476.52 174.573 476.421 174.175Z" fill="url(#paint29_linear_312_34)"/>
<path d="M476.719 175.403L498.176 162.919C498.276 163.318 498.375 163.716 498.442 164.115L476.985 176.598C476.918 176.2 476.819 175.801 476.719 175.403Z" fill="url(#paint30_linear_312_34)"/>
<path d="M477.018 176.598L498.475 164.115C498.574 164.513 498.641 164.912 498.707 165.31L477.25 177.793C477.184 177.395 477.084 176.997 477.018 176.598Z" fill="url(#paint31_linear_312_34)"/>
<path d="M477.25 177.793L498.707 165.31C498.773 165.708 498.839 166.074 498.906 166.472L477.449 178.955C477.383 178.557 477.316 178.159 477.25 177.793Z" fill="url(#paint32_linear_312_34)"/>
<path d="M477.449 178.922L498.906 166.439C498.972 166.837 499.005 167.202 499.072 167.601L477.615 180.084C477.548 179.719 477.515 179.321 477.449 178.922Z" fill="url(#paint33_linear_312_34)"/>
<path d="M477.615 180.084L499.072 167.601C499.105 167.966 499.171 168.364 499.204 168.73L477.747 181.213C477.714 180.848 477.648 180.449 477.615 180.084Z" fill="url(#paint34_linear_312_34)"/>
<path d="M477.748 181.213L499.204 168.73C499.238 169.095 499.271 169.46 499.304 169.825L477.847 182.309C477.814 181.943 477.781 181.578 477.748 181.213Z" fill="url(#paint35_linear_312_34)"/>
<path d="M477.814 182.309L499.271 169.825C499.304 170.19 499.304 170.556 499.337 170.921L477.88 183.404C477.88 183.072 477.847 182.674 477.814 182.309Z" fill="url(#paint36_linear_312_34)"/>
<path d="M477.88 183.437L499.337 170.954C499.337 171.286 499.337 171.651 499.337 171.983L477.88 184.467C477.88 184.102 477.88 183.769 477.88 183.437Z" fill="url(#paint37_linear_312_34)"/>
<path d="M499.279 171.775C498.73 153.131 485.57 136.68 476.247 132.293C471.312 135.583 463.087 139.97 454.861 144.905C471.86 154.776 478.441 176.345 477.892 184.387C488.86 178.904 499.279 171.775 499.279 171.775Z" fill="url(#paint38_linear_312_34)"/>
<defs>
<linearGradient id="paint0_linear_312_34" x1="472.409" y1="707.528" x2="484.641" y2="732.367" gradientUnits="userSpaceOnUse">
<stop offset="0.00833321" stop-color="#839098"/>
<stop offset="0.522829" stop-color="white"/>
<stop offset="1" stop-color="#839098"/>
</linearGradient>
<linearGradient id="paint1_linear_312_34" x1="219.612" y1="0.136689" x2="229.099" y2="16.37" gradientUnits="userSpaceOnUse">
<stop offset="0.00833321" stop-color="#69767E"/>
<stop offset="0.522829" stop-color="white"/>
<stop offset="1" stop-color="#69767E"/>
</linearGradient>
<linearGradient id="paint2_linear_312_34" x1="308.896" y1="34.9688" x2="400.628" y2="867.266" gradientUnits="userSpaceOnUse">
<stop stop-color="white"/>
<stop offset="0.492708" stop-color="#839098"/>
</linearGradient>
<linearGradient id="paint3_linear_312_34" x1="456.881" y1="130.991" x2="461.423" y2="146.175" gradientUnits="userSpaceOnUse">
<stop stop-color="#458B95"/>
<stop offset="1" stop-color="#103338"/>
</linearGradient>
<linearGradient id="paint4_linear_312_34" x1="457.172" y1="131.068" x2="461.894" y2="146.803" gradientUnits="userSpaceOnUse">
<stop stop-color="#458B95"/>
<stop offset="1" stop-color="#103338"/>
</linearGradient>
<linearGradient id="paint5_linear_312_34" x1="458.134" y1="131.661" x2="462.877" y2="147.43" gradientUnits="userSpaceOnUse">
<stop stop-color="#458B95"/>
<stop offset="1" stop-color="#103338"/>
</linearGradient>
<linearGradient id="paint6_linear_312_34" x1="459.099" y1="132.284" x2="463.88" y2="148.123" gradientUnits="userSpaceOnUse">
<stop stop-color="#458B95"/>
<stop offset="1" stop-color="#103338"/>
</linearGradient>
<linearGradient id="paint7_linear_312_34" x1="460.093" y1="132.973" x2="464.919" y2="148.879" gradientUnits="userSpaceOnUse">
<stop stop-color="#458B95"/>
<stop offset="1" stop-color="#103338"/>
</linearGradient>
<linearGradient id="paint8_linear_312_34" x1="461.091" y1="133.762" x2="465.955" y2="149.738" gradientUnits="userSpaceOnUse">
<stop stop-color="#458B95"/>
<stop offset="1" stop-color="#103338"/>
</linearGradient>
<linearGradient id="paint9_linear_312_34" x1="462.119" y1="134.588" x2="467.006" y2="150.597" gradientUnits="userSpaceOnUse">
<stop stop-color="#458B95"/>
<stop offset="1" stop-color="#103338"/>
</linearGradient>
<linearGradient id="paint10_linear_312_34" x1="463.111" y1="135.444" x2="468.048" y2="151.514" gradientUnits="userSpaceOnUse">
<stop stop-color="#458B95"/>
<stop offset="1" stop-color="#103338"/>
</linearGradient>
<linearGradient id="paint11_linear_312_34" x1="464.137" y1="136.369" x2="469.102" y2="152.469" gradientUnits="userSpaceOnUse">
<stop stop-color="#458B95"/>
<stop offset="1" stop-color="#103338"/>
</linearGradient>
<linearGradient id="paint12_linear_312_34" x1="465.096" y1="137.328" x2="470.09" y2="153.456" gradientUnits="userSpaceOnUse">
<stop stop-color="#458B95"/>
<stop offset="1" stop-color="#103338"/>
</linearGradient>
<linearGradient id="paint13_linear_312_34" x1="466.022" y1="138.324" x2="471.022" y2="154.448" gradientUnits="userSpaceOnUse">
<stop stop-color="#458B95"/>
<stop offset="1" stop-color="#103338"/>
</linearGradient>
<linearGradient id="paint14_linear_312_34" x1="466.917" y1="139.283" x2="471.94" y2="155.44" gradientUnits="userSpaceOnUse">
<stop stop-color="#458B95"/>
<stop offset="1" stop-color="#103338"/>
</linearGradient>
<linearGradient id="paint15_linear_312_34" x1="467.777" y1="140.304" x2="472.85" y2="156.522" gradientUnits="userSpaceOnUse">
<stop stop-color="#458B95"/>
<stop offset="1" stop-color="#103338"/>
</linearGradient>
<linearGradient id="paint16_linear_312_34" x1="468.685" y1="141.372" x2="473.887" y2="157.839" gradientUnits="userSpaceOnUse">
<stop stop-color="#458B95"/>
<stop offset="1" stop-color="#103338"/>
</linearGradient>
<linearGradient id="paint17_linear_312_34" x1="469.715" y1="142.612" x2="475.338" y2="159.845" gradientUnits="userSpaceOnUse">
<stop stop-color="#458B95"/>
<stop offset="1" stop-color="#103338"/>
</linearGradient>
<linearGradient id="paint18_linear_312_34" x1="471.193" y1="144.595" x2="477.215" y2="162.46" gradientUnits="userSpaceOnUse">
<stop stop-color="#458B95"/>
<stop offset="1" stop-color="#103338"/>
</linearGradient>
<linearGradient id="paint19_linear_312_34" x1="472.839" y1="147.397" x2="478.505" y2="164.549" gradientUnits="userSpaceOnUse">
<stop stop-color="#458B95"/>
<stop offset="1" stop-color="#103338"/>
</linearGradient>
<linearGradient id="paint20_linear_312_34" x1="473.932" y1="149.469" x2="479.219" y2="165.923" gradientUnits="userSpaceOnUse">
<stop stop-color="#458B95"/>
<stop offset="1" stop-color="#103338"/>
</linearGradient>
<linearGradient id="paint21_linear_312_34" x1="474.62" y1="150.85" x2="479.813" y2="167.13" gradientUnits="userSpaceOnUse">
<stop stop-color="#458B95"/>
<stop offset="1" stop-color="#103338"/>
</linearGradient>
<linearGradient id="paint22_linear_312_34" x1="475.209" y1="152.09" x2="480.352" y2="168.26" gradientUnits="userSpaceOnUse">
<stop stop-color="#458B95"/>
<stop offset="1" stop-color="#103338"/>
</linearGradient>
<linearGradient id="paint23_linear_312_34" x1="475.704" y1="153.186" x2="480.853" y2="169.351" gradientUnits="userSpaceOnUse">
<stop stop-color="#458B95"/>
<stop offset="1" stop-color="#103338"/>
</linearGradient>
<linearGradient id="paint24_linear_312_34" x1="476.165" y1="154.282" x2="481.321" y2="170.442" gradientUnits="userSpaceOnUse">
<stop stop-color="#458B95"/>
<stop offset="1" stop-color="#103338"/>
</linearGradient>
<linearGradient id="paint25_linear_312_34" x1="476.63" y1="155.373" x2="481.808" y2="171.566" gradientUnits="userSpaceOnUse">
<stop stop-color="#458B95"/>
<stop offset="1" stop-color="#103338"/>
</linearGradient>
<linearGradient id="paint26_linear_312_34" x1="477.025" y1="156.498" x2="482.233" y2="172.718" gradientUnits="userSpaceOnUse">
<stop stop-color="#458B95"/>
<stop offset="1" stop-color="#103338"/>
</linearGradient>
<linearGradient id="paint27_linear_312_34" x1="477.453" y1="157.656" x2="482.69" y2="173.904" gradientUnits="userSpaceOnUse">
<stop stop-color="#458B95"/>
<stop offset="1" stop-color="#103338"/>
</linearGradient>
<linearGradient id="paint28_linear_312_34" x1="477.818" y1="158.851" x2="483.055" y2="175.099" gradientUnits="userSpaceOnUse">
<stop stop-color="#458B95"/>
<stop offset="1" stop-color="#103338"/>
</linearGradient>
<linearGradient id="paint29_linear_312_34" x1="478.18" y1="160.043" x2="483.447" y2="176.317" gradientUnits="userSpaceOnUse">
<stop stop-color="#458B95"/>
<stop offset="1" stop-color="#103338"/>
</linearGradient>
<linearGradient id="paint30_linear_312_34" x1="478.474" y1="161.275" x2="483.73" y2="177.509" gradientUnits="userSpaceOnUse">
<stop stop-color="#458B95"/>
<stop offset="1" stop-color="#103338"/>
</linearGradient>
<linearGradient id="paint31_linear_312_34" x1="478.769" y1="162.47" x2="484.033" y2="178.699" gradientUnits="userSpaceOnUse">
<stop stop-color="#458B95"/>
<stop offset="1" stop-color="#103338"/>
</linearGradient>
<linearGradient id="paint32_linear_312_34" x1="478.999" y1="163.669" x2="484.245" y2="179.862" gradientUnits="userSpaceOnUse">
<stop stop-color="#458B95"/>
<stop offset="1" stop-color="#103338"/>
</linearGradient>
<linearGradient id="paint33_linear_312_34" x1="479.195" y1="164.798" x2="484.448" y2="180.986" gradientUnits="userSpaceOnUse">
<stop stop-color="#458B95"/>
<stop offset="1" stop-color="#103338"/>
</linearGradient>
<linearGradient id="paint34_linear_312_34" x1="479.358" y1="165.964" x2="484.595" y2="182.115" gradientUnits="userSpaceOnUse">
<stop stop-color="#458B95"/>
<stop offset="1" stop-color="#103338"/>
</linearGradient>
<linearGradient id="paint35_linear_312_34" x1="479.488" y1="167.097" x2="484.708" y2="183.211" gradientUnits="userSpaceOnUse">
<stop stop-color="#458B95"/>
<stop offset="1" stop-color="#103338"/>
</linearGradient>
<linearGradient id="paint36_linear_312_34" x1="479.552" y1="168.193" x2="484.778" y2="184.302" gradientUnits="userSpaceOnUse">
<stop stop-color="#458B95"/>
<stop offset="1" stop-color="#103338"/>
</linearGradient>
<linearGradient id="paint37_linear_312_34" x1="479.613" y1="169.329" x2="484.806" y2="185.366" gradientUnits="userSpaceOnUse">
<stop stop-color="#458B95"/>
<stop offset="1" stop-color="#103338"/>
</linearGradient>
<linearGradient id="paint38_linear_312_34" x1="466.925" y1="137.776" x2="488.86" y2="180" gradientUnits="userSpaceOnUse">
<stop offset="0.00833321" stop-color="#839098"/>
<stop offset="0.522829" stop-color="white"/>
<stop offset="1" stop-color="#839098"/>
</linearGradient>
</defs>
</svg>
