<svg width="192" height="205" viewBox="0 0 192 205" fill="none" xmlns="http://www.w3.org/2000/svg">
<path opacity="0.7" d="M138.5 205C168.047 205 192 181.047 192 151.5C192 121.953 168.047 98 138.5 98C108.953 98 85 121.953 85 151.5C85 181.047 108.953 205 138.5 205Z" fill="url(#paint0_radial_114_3537)"/>
<path opacity="0.5" d="M85 66C103.225 66 118 51.2254 118 33C118 14.7746 103.225 0 85 0C66.7746 0 52 14.7746 52 33C52 51.2254 66.7746 66 85 66Z" fill="url(#paint1_radial_114_3537)"/>
<g opacity="0.3" filter="url(#filter0_f_114_3537)">
<path d="M43.1333 158.267C61.9847 158.267 77.2667 142.985 77.2667 124.133C77.2667 105.282 61.9847 90 43.1333 90C24.282 90 9 105.282 9 124.133C9 142.985 24.282 158.267 43.1333 158.267Z" fill="url(#paint2_radial_114_3537)"/>
</g>
<defs>
<filter id="filter0_f_114_3537" x="0" y="81" width="86.2666" height="86.2666" filterUnits="userSpaceOnUse" color-interpolation-filters="sRGB">
<feFlood flood-opacity="0" result="BackgroundImageFix"/>
<feBlend mode="normal" in="SourceGraphic" in2="BackgroundImageFix" result="shape"/>
<feGaussianBlur stdDeviation="4.5" result="effect1_foregroundBlur_114_3537"/>
</filter>
<radialGradient id="paint0_radial_114_3537" cx="0" cy="0" r="1" gradientUnits="userSpaceOnUse" gradientTransform="translate(141.539 131.061) rotate(-30.2267) scale(87.67)">
<stop offset="0.0152" stop-color="#09F8CF"/>
<stop offset="0.607292" stop-color="#205D61"/>
<stop offset="1"/>
</radialGradient>
<radialGradient id="paint1_radial_114_3537" cx="0" cy="0" r="1" gradientUnits="userSpaceOnUse" gradientTransform="translate(86.8742 20.3928) rotate(-30.2267) scale(54.0768)">
<stop offset="0.0152" stop-color="#4BD9C1"/>
<stop offset="0.607292" stop-color="#205D61"/>
<stop offset="1"/>
</radialGradient>
<radialGradient id="paint2_radial_114_3537" cx="0" cy="0" r="1" gradientUnits="userSpaceOnUse" gradientTransform="translate(45.0719 111.093) rotate(-30.2267) scale(55.934)">
<stop offset="0.0152" stop-color="#428C80"/>
<stop offset="0.607292" stop-color="#174C50"/>
<stop offset="1"/>
</radialGradient>
</defs>
</svg>
