<svg width="746" height="686" viewBox="0 0 746 686" fill="none" xmlns="http://www.w3.org/2000/svg">
<path d="M516.236 514.09C610.804 419.61 610.804 266.428 516.236 171.948C421.668 77.4679 268.344 77.4679 173.776 171.948C79.2086 266.428 79.2086 419.61 173.776 514.09C268.344 608.57 421.668 608.57 516.236 514.09Z" fill="#296667"/>
<path d="M531.6 188.915C541.939 201.373 551.125 214.984 558.846 229.615C600.959 231.078 628.339 239.9 632.821 256.393C643.426 295.407 522.237 362.308 362.085 405.8C201.933 449.292 63.4811 452.972 52.8753 413.957C48.3934 397.465 67.5193 376.007 103.109 353.441C102.399 336.904 103.375 320.545 105.993 304.584C33.2169 348.52 -7.96366 397.022 2.64212 436.036C21.1468 503.957 189.375 517.346 378.459 465.962C567.544 414.578 705.819 317.885 687.358 250.008C676.708 210.994 616.624 190.024 531.6 188.915Z" fill="white"/>
<path d="M83.1087 253.114C92.2844 243.938 92.2844 229.061 83.1087 219.886C73.9329 210.71 59.0561 210.71 49.8803 219.886C40.7045 229.061 40.7045 243.938 49.8803 253.114C59.0561 262.29 73.9329 262.29 83.1087 253.114Z" fill="white"/>
<path d="M72.7207 251.244C59.7443 251.244 49.2245 240.724 49.2245 227.747C49.2245 224.613 49.8424 221.621 50.9577 218.885C46.0821 223.188 43 229.481 43 236.496C43 249.473 53.5198 259.993 66.4962 259.993C76.3378 259.993 84.7627 253.941 88.2593 245.351C84.1222 249.021 78.6814 251.244 72.7207 251.244Z" fill="#D6E0E8"/>
<path d="M89.096 230.046C87.1744 233.407 85.1473 236.7 82.9921 239.918C78.2597 246.986 72.9395 253.753 67.1445 259.985C68.501 259.947 69.8197 259.804 71.1083 259.548C72.8566 257.461 74.5747 255.358 76.2401 253.203C81.2212 246.775 85.6974 239.94 89.7139 232.872C89.5707 231.907 89.3597 230.965 89.096 230.046Z" fill="#2C8284"/>
<path d="M66.9786 227.943C70.0305 223.934 73.2483 220.031 76.8051 216.451C77.0462 216.21 77.2949 215.984 77.5361 215.751C76.8805 215.404 76.2098 215.08 75.5165 214.794C72.2912 217.906 69.3297 221.327 66.534 224.824C59.8498 233.203 53.4973 241.975 48.3052 251.372C48.8779 252.073 49.4958 252.736 50.1439 253.369C52.5176 248.968 55.14 244.703 57.9282 240.551C60.8069 236.255 63.8437 232.058 66.9786 227.943Z" fill="#2C8284"/>
<path d="M59.6014 257.981C62.2162 253.896 64.8989 249.857 67.6043 245.841C72.947 237.898 78.6214 230.189 84.3937 222.548C84.5595 222.329 84.7328 222.111 84.8986 221.892C84.4992 221.387 84.0848 220.905 83.6477 220.438C80.7163 224.04 77.8754 227.71 75.0872 231.41C69.3224 239.074 63.7761 246.896 58.5464 254.936C57.9209 255.901 57.303 256.88 56.6851 257.852C57.4612 258.207 58.26 258.523 59.0814 258.802C59.2547 258.531 59.428 258.252 59.6014 257.981Z" fill="#2C8284"/>
<path d="M43.0303 237.657C43.1056 239.149 43.3166 240.611 43.6557 242.012C44.6128 239.646 45.7431 237.355 47.0769 235.155C49.5411 231.093 52.5026 227.363 55.5395 223.723C58.3428 220.355 61.2892 217.084 64.5522 214.161C64.9892 213.769 65.4338 213.384 65.886 213.008C64.62 213.038 63.3841 213.173 62.1784 213.392C59.6238 215.69 57.2652 218.2 55.012 220.8C51.8545 224.439 48.78 228.2 46.1274 232.239C44.982 233.994 43.9572 235.803 43.0303 237.657Z" fill="#2C8284"/>
<g clip-path="url(#clip0_301_35)">
<path d="M722.13 140.122C753.957 108.294 753.957 56.6919 722.13 24.8645C690.303 -6.96289 638.7 -6.96289 606.873 24.8645C575.045 56.6919 575.045 108.294 606.873 140.122C638.7 171.949 690.303 171.949 722.13 140.122Z" fill="white"/>
<path d="M708.763 14.1256C717.043 26.8878 721.889 42.0731 721.889 58.3892C721.889 103.38 685.42 139.889 640.389 139.889C624.033 139.889 608.847 135.043 596.125 126.764C610.665 149.138 635.825 163.96 664.5 163.96C709.49 163.96 746 127.491 746 82.4596C746 53.8256 731.138 28.6648 708.763 14.1256Z" fill="#D6E0E8"/>
<path d="M714.66 51.887C713.973 50.7158 713.004 49.7465 711.833 49.0599C710.621 48.333 709.289 47.9695 707.835 47.9695C706.906 48.0503 705.896 48.2118 705.008 48.333C704.725 48.3733 704.483 48.4137 704.24 48.4945C703.311 48.858 702.423 49.2215 701.494 49.6253C701.373 49.6657 701.252 49.7465 701.131 49.7869C701.05 49.8273 701.009 49.8273 700.929 49.8676C700.323 50.3523 699.717 50.7965 699.071 51.2812C699.03 51.3216 698.99 51.362 698.99 51.362C698.061 52.2908 697.294 53.3813 696.486 54.3909C696.123 54.8352 695.799 55.3198 695.517 55.8449C694.83 56.8949 694.467 58.0257 694.426 59.2777C694.144 60.4893 694.224 61.7413 694.588 62.9529C694.911 63.6798 695.194 64.4068 695.517 65.1338C696.082 66.2242 696.89 67.0723 697.9 67.7185C698.465 68.2839 699.152 68.6878 699.919 68.8897C701.009 69.4551 702.181 69.7378 703.473 69.6974C704.281 69.5763 705.088 69.4955 705.937 69.3743C707.512 68.9301 708.844 68.1627 710.016 66.9915C710.783 66.2646 711.308 65.7799 711.954 64.6895C712.116 64.326 712.237 64.0029 712.398 63.6395C712.802 63.1952 713.166 62.7106 713.408 62.2259C713.529 61.9432 713.691 61.6605 713.852 61.3778C714.014 61.1355 714.135 60.8528 714.297 60.6105C714.418 60.3278 714.579 60.0451 714.741 59.7623C716.033 57.3795 716.114 54.3909 714.66 51.887Z" fill="#D6E0E8"/>
<path d="M682.876 13.9641C682.189 13.2775 681.341 12.7929 680.372 12.5102C679.362 12.2275 678.393 12.2275 677.383 12.5102C676.616 12.6313 676.051 12.8333 675.283 13.2775C675.081 13.3987 674.879 13.5198 674.637 13.641C674.395 13.7622 674.152 13.9237 673.91 14.0449C673.224 14.4487 672.658 14.9334 672.052 15.4584L669.589 17.5989C668.943 18.2047 668.498 18.8913 668.256 19.699C667.852 20.4663 667.65 21.3144 667.691 22.2029C667.65 23.0915 667.852 23.9396 668.256 24.7069C668.539 25.5146 668.983 26.2012 669.589 26.807C670.033 27.1301 670.477 27.4936 670.922 27.8167C671.931 28.4225 673.022 28.7052 674.193 28.7052C674.758 28.6244 675.364 28.5436 675.929 28.4629C677.02 28.1398 677.989 27.6147 678.797 26.807C678.837 26.7666 678.837 26.7666 678.878 26.7262C679.605 25.9993 680.372 25.2723 681.139 24.5454C681.866 23.8184 682.432 22.9703 683.038 22.1222C683.199 21.9202 683.32 21.7183 683.482 21.476C683.886 20.8702 684.088 20.1432 684.289 19.4567C684.815 17.4777 684.289 15.418 682.876 13.9641Z" fill="#D6E0E8"/>
<path d="M656.746 11.9851C653.798 9.27924 649.274 8.39074 645.72 10.5716C645.236 10.8543 644.751 11.0966 644.266 11.3793C642.812 11.864 641.439 12.5909 640.066 13.2371C639.622 13.4391 639.178 13.6006 638.733 13.8429C637.966 14.2468 637.279 14.7718 636.593 15.3776C634.897 16.5488 632.958 17.6796 631.706 19.1739C631.222 19.7394 630.696 20.3048 630.212 20.8702C628.596 22.6876 627.425 24.8684 626.941 27.2109C626.941 27.2512 626.9 27.332 626.9 27.3724L626.819 28.0186C626.779 28.3417 626.698 28.6648 626.698 28.9879C626.658 29.2302 626.617 29.5129 626.577 29.7552C626.537 31.0072 626.779 32.138 627.344 33.2285C628.071 35.0055 629.323 36.5401 631.02 37.5094C631.181 37.5902 631.383 37.6306 631.545 37.7114C632.514 38.3172 633.564 38.7614 634.533 39.0441C636.795 39.6499 638.208 39.4884 640.47 39.0441C641.116 38.923 641.762 38.7614 642.409 38.6402C644.63 38.1152 646.528 37.1056 648.345 35.7728C649.597 34.8843 650.809 33.915 652.021 32.9861C653.232 32.0169 654.161 30.6841 655.05 29.3917C656.18 27.6955 657.23 25.9185 657.715 23.9396C657.877 23.6165 658.038 23.3338 658.159 23.0107C658.482 22.2837 658.765 21.5567 659.088 20.8298C659.452 19.6182 659.532 18.4066 659.25 17.195C659.007 15.2968 658.2 13.3179 656.746 11.9851Z" fill="#D6E0E8"/>
<path d="M644.226 92.1927C642.166 90.133 639.299 89.4869 636.472 90.133C632.272 91.1023 628.475 93.2428 625.164 95.9891C625.083 96.0295 625.042 96.0295 624.962 96.0295C622.296 97.1603 619.994 98.8161 618.015 100.916C614.582 104.591 612.038 109.034 610.907 113.961C610.14 117.354 610.867 120.827 613.371 123.331C614.582 124.542 615.996 125.35 617.611 125.794C619.308 126.239 621.044 126.239 622.74 125.794C625.648 124.583 628.273 123.371 630.818 121.473C633.281 119.615 635.583 117.677 637.562 115.294C641.359 110.73 644.388 105.561 646.205 99.8662C647.134 97.2411 646.165 94.1313 644.226 92.1927Z" fill="#D6E0E8"/>
<path d="M676.01 107.459C675.647 106.813 675.202 106.288 674.596 105.924C674.071 105.44 673.425 105.116 672.739 104.955C671.769 104.713 670.8 104.713 669.831 104.955L668.296 105.197C667.287 105.359 666.358 105.924 665.429 106.409C665.025 106.57 664.621 106.732 664.217 106.934C663.652 107.338 663.086 107.782 662.561 108.226C662.44 108.347 662.319 108.469 662.198 108.59L661.43 109.276C661.148 109.519 660.946 109.801 660.704 110.084C660.744 110.003 660.825 109.922 660.865 109.842C660.34 110.488 659.734 111.053 659.33 111.78C657.998 114.203 657.917 117.111 659.33 119.534C660.663 121.796 663.288 123.452 665.954 123.331C666.317 123.331 666.681 123.29 667.085 123.21C667.771 123.21 668.417 123.048 669.023 122.685C669.387 122.523 669.79 122.402 670.114 122.2C670.8 121.877 671.729 121.069 672.052 120.786C672.335 120.504 672.577 120.181 672.819 119.898C673.466 119.131 674.273 118.323 674.718 117.515C674.96 116.909 675.243 116.304 675.485 115.657C675.485 115.617 675.525 115.536 675.525 115.496C675.566 115.415 675.606 115.334 675.606 115.213C675.606 115.173 675.647 115.132 675.647 115.092C675.889 114.607 676.131 114.082 676.252 113.638C676.454 112.992 676.454 112.265 676.535 111.619C676.575 111.174 676.656 110.73 676.697 110.286C676.737 109.236 676.495 108.307 676.01 107.459Z" fill="#D6E0E8"/>
</g>
<g clip-path="url(#clip1_301_35)">
<path d="M134.465 575.474C147.154 562.785 147.154 542.212 134.465 529.523C121.776 516.834 101.203 516.834 88.514 529.523C75.825 542.212 75.825 562.785 88.514 575.474C101.203 588.163 121.776 588.163 134.465 575.474Z" fill="#5BA59C"/>
<path d="M131.184 526.694C134.606 531.836 136.612 538.018 136.612 544.667C136.612 562.61 122.062 577.16 104.119 577.16C96.701 577.16 89.9009 574.657 84.4277 570.465C90.2477 579.21 100.199 584.985 111.492 584.985C129.435 584.985 143.985 570.435 143.985 552.492C144 541.968 138.964 532.62 131.184 526.694Z" fill="#468F82"/>
<path d="M103.381 527.871C103.185 527.886 102.944 527.871 102.748 527.931C102.672 527.946 102.627 527.961 102.597 527.976C101.798 527.84 101.074 527.84 100.26 528.082C99.2646 528.383 98.2243 528.73 97.3648 529.333C95.7063 530.494 94.1231 531.806 92.7511 533.299C91.4544 534.716 90.0069 536.359 89.1927 538.123C88.2277 540.204 87.3683 543.144 88.7555 545.255C89.2681 546.024 90.3235 546.627 91.2734 546.28C93.2637 545.542 94.5604 543.747 95.6912 542.059C96.1435 541.395 96.5054 540.672 96.9577 540.008C97.1839 539.676 97.4101 539.36 97.6362 539.043C97.7719 538.892 97.8926 538.726 98.0283 538.576C98.556 537.958 99.0988 537.369 99.6717 536.812C99.9733 536.525 100.29 536.239 100.607 535.967C100.757 535.847 100.893 535.726 101.044 535.605C101.059 535.605 101.059 535.59 101.074 535.59C101.225 535.545 101.768 535.048 101.768 535.048C102.024 534.852 102.25 534.671 102.461 534.459C102.778 534.143 103.079 533.826 103.411 533.51C103.848 533.103 104.165 532.635 104.421 532.107C104.436 532.092 104.436 532.092 104.451 532.077C104.617 531.957 104.768 531.776 104.919 531.625C106.261 530.389 105.311 527.705 103.381 527.871Z" fill="#84BDB5"/>
</g>
<defs>
<clipPath id="clip0_301_35">
<rect width="163" height="163" fill="white" transform="translate(583 1)"/>
</clipPath>
<clipPath id="clip1_301_35">
<rect width="65" height="65" fill="white" transform="translate(79 520)"/>
</clipPath>
</defs>
</svg>
