<svg width="97" height="97" viewBox="0 0 97 97" fill="none" xmlns="http://www.w3.org/2000/svg">
<circle cx="48.5" cy="48.5" r="46" fill="url(#paint0_linear_237_34)" stroke="white" stroke-width="5"/>
<path d="M51.3869 39.6844L59.2908 47.3501C59.7636 47.7735 60 48.3502 60 48.9854C60 49.6206 59.7636 50.19 59.2908 50.6207L51.3869 58.3156C50.4491 59.2281 48.9203 59.2281 47.9826 58.3156C47.0448 57.403 47.0448 55.9283 47.9826 55.0157L51.7809 51.3362L39.4193 51.275C38.0796 51.275 37 50.231 37 48.9388C37 47.6466 38.0796 46.6026 39.4114 46.6026L51.773 46.6638L47.9747 42.9843C47.0369 42.0717 47.0369 40.597 47.9747 39.6844C48.9203 38.7719 50.4412 38.7719 51.3869 39.6844Z" fill="white"/>
<defs>
<linearGradient id="paint0_linear_237_34" x1="48" y1="28" x2="48.5" y2="97" gradientUnits="userSpaceOnUse">
<stop stop-color="#55EAD5"/>
<stop offset="1" stop-color="#28A090"/>
</linearGradient>
</defs>
</svg>
