<svg width="444" height="362" viewBox="0 0 444 362" fill="none" xmlns="http://www.w3.org/2000/svg">
<g filter="url(#filter0_d_220_1512)">
<path d="M284.815 218.261C269.137 218.261 254.47 218.261 239.803 218.261C225.135 218.261 210.489 218.261 194.896 218.261C197.19 225.942 202.009 228.152 208.28 228.804C213.561 229.351 219.79 229.919 219.601 237.011C219.504 240.643 216.403 242.903 210.826 243.302C204.219 243.765 194.896 242.416 189.554 239.314C182.232 235.062 178.031 223.36 176.259 218.261C124.851 214.939 86.2276 205.803 64.3424 197.87C56.0513 194.861 48.0127 191.368 41.3419 185.497C31.4725 176.785 31.5777 165.063 41.5102 156.478C48.5177 150.396 56.9772 146.924 65.626 143.978C85.2806 137.328 105.566 133.561 126.084 130.826C131.618 130.089 137.658 129.584 138.92 136.255C140.372 143.936 133.491 145.135 128.02 146.061C112.132 148.713 96.1601 150.922 80.6721 155.489C73.6436 157.572 66.6361 159.95 59.9443 162.896C56.0302 164.621 50.5512 167.971 50.8535 171.734C51.1559 175.497 56.2406 177.795 60.0074 179.457C77.4524 187.18 96.0128 191.115 114.699 193.956C189.214 205.277 263.961 205.551 338.791 197.491C344.431 196.881 350.218 196.65 351.48 203.257C352.785 210.096 346.064 212.96 342.006 214.053C330.483 217.155 316.745 218.261 306.109 218.261C303.45 224.909 293.257 237.032 286.609 240.643C281.424 243.46 275.689 244.376 272.427 244.65C260.18 245.66 252.485 244.65 240.245 244.65C235.741 244.229 231.974 242.482 231.953 237.032C231.953 231.582 235.72 229.709 240.223 229.456C248.599 228.972 257.037 228.509 265.413 228.888C276.416 227.791 280.08 225.774 284.815 218.261Z" fill="white"/>
<path d="M243.212 172.428C221.348 172.449 201.883 170.156 183.196 163.569C155.587 153.805 147.401 137.749 155.019 109.656C166.109 68.8104 204.218 41.7906 245.905 45.1996C287.34 48.6087 321.073 81.9415 325.302 123.629C327.091 141.368 319.894 153.363 301.671 161.507C282.437 170.092 262.004 172.681 243.212 172.428ZM237.888 156.541C256.995 157.193 275.682 154.92 293.485 147.744C308.489 141.705 312.024 134.697 308.846 119.041C301.776 84.2773 273.767 60.877 239.108 60.7928C204.176 60.7297 176.294 83.6039 168.907 118.41C165.372 135.076 169.097 142.105 185.342 148.355C202.24 154.857 219.875 157.024 237.888 156.541Z" fill="white"/>
<path d="M352.533 131.225C375.302 134.865 399.607 138.001 422.292 148.039C424.522 149.028 426.711 150.143 428.815 151.406C448.891 163.464 448.701 180.13 428.247 191.262C411.749 200.226 393.652 204.33 375.407 207.781C370.041 208.791 364.086 208.644 363.202 201.531C362.444 195.344 367.474 193.324 372.587 192.377C387.738 189.578 402.784 186.317 416.841 179.772C420.777 177.941 426.521 176.531 426.458 171.271C426.395 166.136 420.882 164.453 416.82 162.706C396.703 154.12 375.323 150.438 353.879 147.197C352.491 146.987 351.06 147.071 349.692 146.797C344.452 145.808 338.434 144.966 339.044 137.833C339.675 130.488 345.799 131.141 352.533 131.225Z" fill="white"/>
<path d="M103.911 46.2834C107.415 46.3707 109.009 48.4492 109.565 51.7197C110.768 58.7258 114.753 62.9702 122.303 63.9005C125.506 64.2929 128.198 65.8482 128.108 69.4094C128.017 72.927 125.476 74.1916 122.122 74.6858C114.799 75.7759 110.588 80.0494 109.55 87.1136C109.054 90.4277 107.384 92.6516 103.805 92.5644C100.557 92.4917 98.8876 90.1515 98.5418 87.3171C97.5943 79.7151 93.1128 75.7033 85.5033 74.555C82.4504 74.0898 80.345 72.5781 80.2849 69.3803C80.2247 66.1389 82.5106 64.4237 85.413 64.0894C93.6692 63.1737 97.7748 58.7258 98.7673 50.9348C99.0982 48.4202 100.828 46.5742 103.911 46.2834Z" fill="white"/>
<path d="M399.849 47.8262C396.927 47.6011 394.993 45.9805 394.586 42.8142C393.568 34.8309 389.323 30.209 381.544 29.1285C378.505 28.7084 376.557 26.9826 376.499 23.7863C376.426 20.515 378.622 18.6392 381.457 18.2941C389.381 17.3187 393.481 12.7118 394.615 4.78848C395.008 2.02734 396.563 0.211594 399.384 0.0165133C402.641 -0.20858 404.575 1.89229 404.895 4.80349C405.825 13.387 410.478 17.5287 418.533 18.5792C421.063 18.9093 422.851 20.8751 422.778 23.8463C422.706 26.7425 421.077 28.6033 418.402 28.9785C410.332 30.1189 405.898 34.6808 404.909 43.0693C404.589 45.7404 402.757 47.4811 399.849 47.8262Z" fill="white"/>
<path d="M124.765 253.495C127.448 253.771 129.058 255.197 129.424 257.836C130.354 264.517 134.319 268.232 141.295 269.121C144.057 269.471 145.693 271.06 145.68 273.699C145.667 276.076 143.991 277.703 141.662 277.978C134.372 278.841 130.301 282.569 129.307 289.537C128.979 291.839 127.409 293.29 124.883 293.378C121.964 293.466 120.341 291.639 120.053 289.212C119.216 282.394 115.355 278.854 108.287 278.028C105.748 277.728 103.85 276.139 104.034 273.337C104.204 270.584 106.128 269.458 108.758 269.046C115.041 268.057 118.98 264.842 119.805 258.524C120.171 255.847 121.519 253.783 124.765 253.495Z" fill="white"/>
<path d="M355.871 249.95C358.356 250.012 359.717 251.36 359.964 253.378C360.655 258.926 363.665 261.983 369.161 262.786C371.284 263.095 372.635 264.34 372.583 266.574C372.522 268.849 370.882 269.96 368.903 270.197C363.501 270.835 360.655 273.769 360.006 279.132C359.768 281.108 358.624 282.724 356.325 282.745C354.077 282.765 352.912 281.376 352.582 279.265C351.778 274.078 349.026 270.938 343.613 270.269C341.407 269.991 339.654 268.766 339.798 266.234C339.922 264.031 341.427 263.023 343.551 262.724C348.819 261.983 351.83 258.946 352.541 253.697C352.83 251.545 353.985 250.321 355.871 249.95Z" fill="white"/>
<path d="M247.314 296.163C247.02 302.434 246.978 308.726 246.388 314.976C245.968 319.501 243.758 323.225 238.56 323.099C233.973 323.015 231.721 319.732 231.3 315.544C229.975 302.666 230.08 289.745 231.216 276.867C231.595 272.658 233.91 269.48 238.497 269.354C243.674 269.207 246.136 272.721 246.431 277.329C246.83 283.579 246.536 289.871 246.536 296.142C246.788 296.163 247.062 296.163 247.314 296.163Z" fill="white"/>
<path d="M204.786 282.653C204.786 276.74 204.597 270.806 204.849 264.893C205.039 260.305 207.122 256.475 212.152 256.244C217.223 255.991 219.917 259.611 220.022 264.219C220.337 276.761 220.316 289.303 220.064 301.845C219.98 306.475 217.37 310.094 212.299 309.968C207.248 309.841 205.018 306.138 204.828 301.508C204.597 295.195 204.786 288.924 204.786 282.653Z" fill="white"/>
<path d="M257.395 282.527C257.395 276.614 257.206 270.68 257.458 264.766C257.648 260.158 259.857 256.391 264.866 256.223C269.916 256.054 272.547 259.716 272.652 264.325C272.925 276.845 272.946 289.408 272.652 301.929C272.547 306.538 269.874 310.115 264.803 309.905C259.752 309.694 257.627 305.948 257.437 301.319C257.206 295.09 257.395 288.798 257.395 282.527Z" fill="white"/>
<path d="M203.482 84.9923C206.975 85.1607 209.037 86.3391 210.426 88.5697C212.425 91.7473 211.647 94.9459 209.29 97.2186C199.463 106.688 194.728 118.304 193.549 131.709C193.171 136.002 190.582 138.8 185.847 138.59C181.576 138.401 179.976 135.707 179.345 131.772C177.22 118.746 187.72 93.9568 198.537 87.0967C200.262 86.0024 202.324 85.4763 203.482 84.9923Z" fill="white"/>
</g>
<defs>
<filter id="filter0_d_220_1512" x="0" y="0" width="443.731" height="361.102" filterUnits="userSpaceOnUse" color-interpolation-filters="sRGB">
<feFlood flood-opacity="0" result="BackgroundImageFix"/>
<feColorMatrix in="SourceAlpha" type="matrix" values="0 0 0 0 0 0 0 0 0 0 0 0 0 0 0 0 0 0 127 0" result="hardAlpha"/>
<feOffset dx="-17" dy="21"/>
<feGaussianBlur stdDeviation="8.5"/>
<feComposite in2="hardAlpha" operator="out"/>
<feColorMatrix type="matrix" values="0 0 0 0 0 0 0 0 0 0 0 0 0 0 0 0 0 0 0.35 0"/>
<feBlend mode="normal" in2="BackgroundImageFix" result="effect1_dropShadow_220_1512"/>
<feBlend mode="normal" in="SourceGraphic" in2="effect1_dropShadow_220_1512" result="shape"/>
</filter>
</defs>
</svg>
