<svg width="337" height="320" viewBox="0 0 337 320" fill="none" xmlns="http://www.w3.org/2000/svg">
<path d="M0.136186 144.806C0.136186 127.699 0.171531 110.585 0.114979 93.4788C0.100842 88.3454 2.21447 84.3803 6.20137 81.3286C14.1752 75.211 23.6617 72.6407 33.1271 70.2333C49.9301 65.9567 67.0723 63.5634 84.2924 61.7791C116.76 58.4158 149.348 57.0139 181.964 57.7007C220.816 58.515 259.603 60.5542 297.761 68.7818C307.905 70.9697 317.901 73.6957 327.076 78.7937C333.856 82.5606 337.192 87.9489 336.916 96.0845C336.471 109.169 336.796 178.339 336.796 191.438C336.796 193.442 336.853 195.453 336.754 197.457C336.556 201.507 334.16 204.127 330.837 204.056C327.748 203.985 325.394 201.323 325.359 197.429C325.267 187.516 325.316 121.539 325.316 111.633C325.316 106.139 325.316 106.153 320.269 108.157C306.598 113.595 292.233 116.179 277.82 118.587C277.36 118.664 276.88 118.664 276.413 118.679C272.525 118.82 270.108 117.156 269.62 114.005C269.153 110.989 271.21 108.426 274.907 107.697C281.142 106.458 287.427 105.466 293.64 104.142C302.286 102.308 310.874 100.184 318.919 96.396C321.202 95.3198 324.595 94.4418 324.652 91.7582C324.708 89.2092 321.329 88.4516 319.159 87.4391C306.753 81.633 293.414 79.2256 280.068 76.8961C275.551 76.1031 270.991 75.5083 266.46 74.7861C263.745 74.3542 262.318 75.2534 261.971 78.199C260.67 89.28 257.433 99.8584 253.51 110.267C251.304 116.122 253.969 121.837 254.549 127.607C254.598 128.124 255.489 128.606 256.047 129.016C260.678 132.408 262.834 136.946 262.749 142.703C262.643 150.138 262.756 157.572 262.713 165.007C262.622 179.161 254.874 190.539 241.782 195.694C240.05 196.374 238.672 196.968 238.424 199.185C237.329 209.048 231.949 216.723 225.559 223.853C225.085 224.377 224.633 224.93 224.103 225.397C216.815 231.72 214.256 239.388 215.973 249.081C217.528 257.875 217.981 266.875 218.702 275.796C218.893 278.154 219.798 279.294 221.89 280.222C236.862 286.849 251.82 293.519 266.686 300.366C270.171 301.973 273.487 301.626 277.014 301.074C289.484 299.12 301.812 296.606 313.737 292.386C317.081 291.204 320.29 289.745 323.252 287.777C325.415 286.339 325.415 284.93 323.196 283.486C317.385 279.691 310.846 277.666 304.258 275.867C286.486 271.003 268.263 268.737 250.003 266.677C249.304 266.599 248.583 266.585 247.904 266.429C244.589 265.664 242.687 263.087 243.125 260.028C243.549 257.061 246.278 254.845 249.53 255.242C274.299 258.251 299.203 260.644 322.595 270.33C326.271 271.853 325.267 268.964 325.274 267.434C325.33 247.141 325.302 226.841 325.309 206.548C325.309 201.946 325.217 197.344 325.387 192.748C325.514 189.272 327.805 186.964 330.788 186.836C333.933 186.709 336.33 189.01 336.726 192.607C336.825 193.541 336.789 194.49 336.789 195.439C336.796 199.454 336.796 203.461 336.796 207.476C336.803 232.966 336.789 258.449 336.832 283.939C336.839 289.823 334.039 294.043 329.367 297.187C322.623 301.733 315.003 304.232 307.255 306.321C289.59 311.086 271.528 313.607 253.375 315.582C217.726 319.462 181.957 320.461 146.16 319.533C110.964 318.62 75.845 316.318 41.2564 309.118C31.0983 307 21.0886 304.345 11.7222 299.679C3.82619 295.749 -0.528298 290.05 0.0513587 280.618C0.631015 271.215 0.1786 261.749 0.1786 252.31C0.1786 251.248 0.136186 250.179 0.256359 249.131C0.645153 245.69 2.91429 243.474 5.94689 243.495C8.96534 243.516 11.2133 245.761 11.595 249.188C11.701 250.122 11.6586 251.071 11.6586 252.02C11.6657 256.856 11.6586 261.699 11.6586 266.535C11.6586 271.414 11.6374 271.371 16.1191 269.565C30.5399 263.752 45.7028 260.941 60.9647 258.626C69.9211 257.267 78.9341 256.332 87.9258 255.213C88.7458 255.114 89.5658 255.057 90.3929 255.043C94.4505 254.944 96.96 256.792 97.2357 260.07C97.5184 263.455 95.631 265.806 91.4533 266.266C79.5208 267.583 67.5813 268.815 55.7549 270.925C43.6952 273.07 31.6497 275.35 20.2686 280.13C18.1055 281.036 15.999 282.141 14.0267 283.408C11.3193 285.15 11.3334 286.297 14.0621 288.046C19.5829 291.6 25.8107 293.477 32.0385 295.247C42.2461 298.157 52.6799 299.984 63.1561 301.641C65.5879 302.023 67.7934 301.485 69.9989 300.493C85.0417 293.731 100.092 286.991 115.17 280.307C117.085 279.457 118.047 278.395 118.223 276.136C119.213 263.689 120.344 251.241 121.56 238.815C121.857 235.77 120.358 233.596 118.754 231.437C115.17 226.615 110.907 222.338 107.493 217.36C103.972 212.234 101.237 206.803 100.367 200.594C99.9855 197.861 98.5929 196.529 96.0198 195.361C83.3027 189.598 76.2691 179.678 75.7955 165.552C75.5481 158.124 75.7672 150.683 75.7248 143.255C75.6894 136.677 78.3686 131.608 84.0238 128.259C85.6496 127.296 86.3212 126.149 86.3 124.286C86.2364 116.618 86.2505 108.95 86.2858 101.275C86.2929 99.6248 85.8051 98.329 84.5469 97.2315C78.3403 91.8007 73.5193 85.2937 70.006 77.8449C69.1082 75.9403 67.7863 75.218 65.7858 75.5296C50.6511 77.8803 35.5376 80.316 21.1735 85.9451C18.7771 86.8868 16.4585 88.1188 14.2529 89.4641C11.2981 91.2697 11.3052 92.2751 14.26 94.2435C16.0131 95.4118 17.9076 96.4243 19.8516 97.2315C33.6856 102.953 48.3254 105.403 62.9723 107.775C65.4111 108.171 67.8994 108.391 70.2675 109.042C73.4344 109.913 75.032 112.611 74.4312 115.471C73.8232 118.339 71.2643 120.406 68.1398 119.953C50.2977 117.39 32.505 114.551 15.6314 107.775C11.6657 106.181 11.6516 106.153 11.6516 110.352C11.6445 138.674 11.6516 222.48 11.6445 250.802C11.6445 252.218 11.7222 253.663 11.4748 255.036C10.9376 258.038 9.17034 260.014 6.00344 260.07C2.82947 260.127 1.01274 258.208 0.39067 255.213C0.129117 253.96 0.1786 252.629 0.1786 251.34C0.164462 234.347 0.171531 161.87 0.171531 144.877C0.164462 144.806 0.150324 144.806 0.136186 144.806ZM169.544 137.605C144.216 137.605 118.895 137.598 93.5669 137.612C88.3924 137.612 87.2543 138.738 87.2331 143.793C87.2048 150.987 87.1553 158.188 87.2472 165.382C87.3957 177.306 96.1824 186.234 108.016 186.355C119.68 186.475 131.336 186.376 143 186.383C148.33 186.383 152.84 184.429 156.693 180.768C164.999 172.887 173.934 172.873 182.339 180.626C186.383 184.358 191.062 186.468 196.703 186.418C208.014 186.319 219.317 186.461 230.627 186.348C241.153 186.241 249.304 179.359 251.127 168.915C252.492 161.084 251.53 153.14 251.686 145.252C251.813 138.787 250.534 137.598 244.122 137.591C219.253 137.591 194.399 137.591 169.544 137.605ZM130.743 197.896C124.692 197.896 119.623 197.974 114.562 197.868C111.918 197.811 111.218 198.774 112.003 201.273C113.763 206.91 116.993 211.668 120.768 216.079C125.533 221.637 130.029 227.316 133.408 233.901C136.32 239.572 140.328 244.55 145.057 248.919C158.396 261.239 176.514 262.832 189.952 252.622C196.456 247.679 201.235 241.229 204.677 233.879C207.568 227.712 211.421 222.345 216.086 217.403C220.37 212.871 224.47 208.099 226.308 201.897C227.354 198.377 227.065 197.917 223.466 197.903C214.991 197.868 206.508 197.861 198.032 197.896C189.168 197.931 181.427 195.099 174.86 189.059C170.76 185.285 168.251 185.335 164.214 189.109C159.436 193.584 153.858 196.402 147.376 197.429C141.523 198.37 135.627 197.62 130.743 197.896ZM247.508 304.862C246.504 303.149 245.239 303.05 244.207 302.582C233.794 297.888 223.403 293.158 212.948 288.563C209.654 287.111 208.077 284.824 207.858 281.241C207.519 275.839 207.144 270.415 206.352 265.062C205.843 261.614 206.437 257.918 204.621 253.861C203.857 254.937 203.567 255.461 203.164 255.886C194.017 265.43 183.025 270.967 169.636 270.748C155.491 270.521 144.174 264.029 134.51 254.137C133.881 253.493 133.351 252.282 132.354 252.572C131.146 252.919 131.365 254.3 131.273 255.305C130.516 263.986 129.718 272.667 129.096 281.362C128.848 284.789 127.413 287.083 124.239 288.464C117.658 291.338 111.126 294.326 104.58 297.272C99.6179 299.502 94.6626 301.74 89.7001 303.97C89.7708 304.274 89.8415 304.586 89.9122 304.89C142.307 309.472 194.717 309.528 247.508 304.862ZM134.595 100.659C146.422 100.241 161.867 98.0175 176.585 92.1264C186.588 88.1188 195.509 82.5747 201.171 72.8885C202.486 70.6369 202.033 69.7164 199.411 69.6456C194.59 69.5253 189.769 69.1287 184.948 69.1146C168.816 69.065 152.692 69.0013 136.56 69.6173C118.676 70.3041 100.848 71.5007 83.0482 73.2709C80.871 73.4904 80.6801 74.1701 81.6769 75.8765C84.9286 81.4206 88.8024 86.4195 93.991 90.2926C104.891 98.4281 117.418 100.821 134.595 100.659ZM171.015 126.12C184.439 126.12 197.863 126.12 211.294 126.12C215.888 126.12 220.476 126.12 225.071 126.106C226.464 126.099 227.658 125.95 227.566 124.017C227.383 120.25 225.799 118.367 222.095 117.73C221.049 117.553 220.003 117.376 218.971 117.142C207.759 114.628 197.587 110.401 191.288 99.9788C190.207 98.1803 189.125 98.7397 187.775 99.4194C169.686 108.454 150.232 111.329 130.326 112.242C126.848 112.405 122.748 110.401 120.09 112.511C117.382 114.657 117.008 118.976 115.629 122.346C114.102 126.071 114.166 126.113 118.379 126.12C135.924 126.12 153.469 126.113 171.015 126.12ZM233.434 107.074C235.675 107.074 237.908 107.059 240.149 107.081C241.704 107.088 242.814 106.571 243.422 104.978C247.034 95.5818 249.565 85.9097 250.965 75.9403C251.198 74.2551 250.859 72.8602 248.745 72.6832C238.191 71.7981 227.651 70.7573 217.062 70.4316C215.705 70.3891 214.418 70.5449 213.895 72.0813C211.23 79.9195 206.225 86.0726 200.118 91.4538C199.679 91.8432 198.944 92.0486 199.701 93.0682C203.143 97.6918 207.158 101.473 212.672 103.54C219.388 106.061 226.294 107.201 233.434 107.074ZM97.3205 115.974C97.3205 118.332 97.2993 120.689 97.3276 123.047C97.3417 124.322 97.1508 125.802 98.9958 126.035C100.593 126.234 102.05 126.092 102.742 124.23C103.562 122.021 104.503 119.861 105.372 117.666C108.532 109.658 108.511 109.707 100.502 106.826C98.2819 106.026 97.1579 106.188 97.2993 108.9C97.4124 111.258 97.3205 113.616 97.3205 115.974Z" fill="white"/>
<path d="M62.3152 36.9758C62.0961 31.7786 62.5061 26.6169 63.0221 21.4552C63.6866 14.8207 67.0656 12.6965 73.0742 15.3588C77.5277 17.3343 82.0942 18.7575 87.0567 18.5805C89.0431 18.5097 89.6368 17.922 88.6613 16.0315C87.3677 13.5178 86.166 10.9547 84.9925 8.37736C83.8403 5.84959 84.1442 3.48468 86.2579 1.61541C88.3503 -0.232615 90.7396 -0.360065 93.1148 1.11269C96.2463 3.05277 99.7384 3.4068 103.28 3.61921C113.813 4.25647 124.141 2.38012 134.539 1.16934C153.328 -1.02564 171.92 -0.685772 189.691 7.07453C193.6 8.78095 197.269 10.898 200.599 13.5391C202.027 14.672 203.306 15.0897 205.102 14.3321C227.037 5.07073 246.321 16.9519 255.977 34.4622C257.744 37.6697 259.2 41.0329 260.169 44.5732C261.222 48.418 259.886 51.2785 256.698 52.3618C253.63 53.3956 250.732 51.76 249.488 47.9294C246.9 39.9779 242.68 33.1877 236.007 28.0613C229.461 23.0271 222.152 21.3419 214.037 23.1191C211.761 23.6147 210.969 24.3865 212.425 26.6452C213.499 28.3092 214.404 30.1714 214.956 32.0689C215.818 35.0711 214.631 37.4148 211.81 38.7601C209.202 40.0063 206.197 39.1566 204.882 36.3952C197.156 20.2302 182.728 14.7994 166.526 12.4345C151.809 10.2891 137.183 12.0309 122.585 14.0914C116.64 14.934 110.653 15.4367 104.637 15.1535C102.064 15.0331 100.763 15.2526 102.276 18.3468C104.411 22.7084 103.308 25.399 98.8407 27.4241C91.8919 30.5749 84.6815 30.7378 77.4429 28.7269C74.8839 28.0189 73.7953 28.4366 73.5549 31.2334C73.152 35.9491 73.0742 40.6364 73.6256 45.345C73.9508 48.1348 73.0884 50.4926 70.5506 51.9795C68.6278 53.1124 66.698 52.9 64.8884 51.675C63.0716 50.4501 62.3506 48.6162 62.3223 46.5062C62.2799 43.3412 62.3152 40.155 62.3152 36.9758Z" fill="white"/>
</svg>
