<svg width="42" height="42" viewBox="0 0 42 42" fill="none" xmlns="http://www.w3.org/2000/svg">
<path fill-rule="evenodd" clip-rule="evenodd" d="M21.0764 0.516113C32.3341 0.516113 41.4739 9.65594 41.4739 20.9136C41.4739 32.1713 32.3341 41.3111 21.0764 41.3111C9.81878 41.3111 0.678955 32.1713 0.678955 20.9136C0.678955 9.65594 9.81878 0.516113 21.0764 0.516113ZM17.4837 31.7624C26.5098 31.7624 31.4451 24.283 31.4451 17.801C31.4451 17.5873 31.4451 17.3736 31.4349 17.17C32.3915 16.4781 33.2259 15.6131 33.8873 14.6261C33.0122 15.0128 32.0658 15.2774 31.0686 15.3994C32.0862 14.7889 32.8596 13.8323 33.2259 12.6825C32.2795 13.2422 31.2314 13.6491 30.1121 13.873C29.2166 12.9165 27.9446 12.3263 26.5301 12.3263C23.8233 12.3263 21.6253 14.5243 21.6253 17.2311C21.6253 17.6178 21.6661 17.9943 21.7576 18.3505C17.6771 18.147 14.0646 16.1932 11.6428 13.2218C11.2255 13.9443 10.9813 14.7889 10.9813 15.6844C10.9813 17.3837 11.8463 18.8898 13.1692 19.7649C12.3652 19.7446 11.6122 19.5207 10.9508 19.1544V19.2154C10.9508 21.5966 12.6399 23.5707 14.8888 24.0287C14.4818 24.1406 14.0443 24.2017 13.5965 24.2017C13.281 24.2017 12.9758 24.1711 12.6705 24.11C13.2912 26.0638 15.1025 27.4783 17.2497 27.519C15.5706 28.8317 13.4541 29.6153 11.1543 29.6153C10.7574 29.6153 10.3707 29.5949 9.98403 29.5441C12.1312 30.9483 14.7159 31.7624 17.4837 31.7624Z" fill="white"/>
</svg>
